<?xml version="1.0" encoding="UTF-8" standalone="no"?>
<!DOCTYPE svg PUBLIC "-//W3C//DTD SVG 1.1//EN"
 "http://www.w3.org/Graphics/SVG/1.1/DTD/svg11.dtd">
<!-- Generated by graphviz version 14.1.3 (20260303.0454)
 -->
<!-- Title: g Pages: 1 -->
<svg width="694pt" height="1242pt"
 viewBox="0.00 0.00 694.00 1242.00" xmlns="http://www.w3.org/2000/svg" xmlns:xlink="http://www.w3.org/1999/xlink">
<g id="graph0" class="graph" transform="scale(1 1) rotate(0) translate(4 1238)">
<title>g</title>
<polygon fill="white" stroke="none" points="-4,4 -4,-1238 690.14,-1238 690.14,4 -4,4"/>
<text xml:space="preserve" text-anchor="middle" x="343.07" y="-31" font-family="Times,serif" font-size="10.00">Open the SVG in a browser to see tooltips on comments 📝</text>
<text xml:space="preserve" text-anchor="middle" x="343.07" y="-19" font-family="Times,serif" font-size="10.00">🔑: Primary key</text>
<text xml:space="preserve" text-anchor="middle" x="343.07" y="-7" font-family="Times,serif" font-size="10.00">🔧: Generated column</text>
<!-- attribution -->
<g id="node1" class="node">
<title>attribution</title>
<g id="a_node1_0"><a xlink:title="External attributions (UI: &#39;signals&#39;) and manual attributions (UI: &#39;attributions&#39;)">
<polygon fill="none" stroke="black" points="360.25,-735.2 360.25,-758 657.77,-758 657.77,-735.2 360.25,-735.2"/>
<text xml:space="preserve" text-anchor="start" x="467.59" y="-743.4" font-family="Times,serif" font-weight="bold" font-size="14.00">attribution 📝</text>
</a>
</g>
<polygon fill="none" stroke="black" points="360.25,-712.4 360.25,-735.2 383.75,-735.2 383.75,-712.4 360.25,-712.4"/>
<text xml:space="preserve" text-anchor="start" x="363.25" y="-718.2" font-family="Times,serif" font-size="14.00">🔑 </text>
<polygon fill="none" stroke="black" points="383.75,-712.4 383.75,-735.2 585.68,-735.2 585.68,-712.4 383.75,-712.4"/>
<text xml:space="preserve" text-anchor="start" x="386.75" y="-718.2" font-family="Times,serif" font-size="14.00">uuid</text>
<polygon fill="none" stroke="black" points="585.68,-712.4 585.68,-735.2 657.77,-735.2 657.77,-712.4 585.68,-712.4"/>
<text xml:space="preserve" text-anchor="start" x="588.68" y="-718.2" font-family="Times,serif" font-size="14.00">TEXT</text>
<polygon fill="none" stroke="black" points="360.25,-689.6 360.25,-712.4 383.75,-712.4 383.75,-689.6 360.25,-689.6"/>
<g id="a_node1_1"><a xlink:title="All of the attribution as JSON">
<polygon fill="none" stroke="black" points="383.75,-689.6 383.75,-712.4 585.68,-712.4 585.68,-689.6 383.75,-689.6"/>
<text xml:space="preserve" text-anchor="start" x="386.75" y="-695.4" font-family="Times,serif" font-size="14.00">data 📝</text>
</a>
</g>
<polygon fill="none" stroke="black" points="585.68,-689.6 585.68,-712.4 657.77,-712.4 657.77,-689.6 585.68,-689.6"/>
<text xml:space="preserve" text-anchor="start" x="588.68" y="-695.4" font-family="Times,serif" font-size="14.00">TEXT</text>
<polygon fill="none" stroke="black" points="360.25,-666.8 360.25,-689.6 383.75,-689.6 383.75,-666.8 360.25,-666.8"/>
<polygon fill="none" stroke="black" points="383.75,-666.8 383.75,-689.6 585.68,-689.6 585.68,-666.8 383.75,-666.8"/>
<text xml:space="preserve" text-anchor="start" x="386.75" y="-672.6" font-family="Times,serif" font-size="14.00">is_external</text>
<polygon fill="none" stroke="black" points="585.68,-666.8 585.68,-689.6 657.77,-689.6 657.77,-666.8 585.68,-666.8"/>
<text xml:space="preserve" text-anchor="start" x="588.68" y="-672.6" font-family="Times,serif" font-size="14.00">INTEGER</text>
<polygon fill="none" stroke="black" points="360.25,-644 360.25,-666.8 383.75,-666.8 383.75,-644 360.25,-644"/>
<polygon fill="none" stroke="black" points="383.75,-644 383.75,-666.8 585.68,-666.8 585.68,-644 383.75,-644"/>
<text xml:space="preserve" text-anchor="start" x="386.75" y="-649.8" font-family="Times,serif" font-size="14.00">is_resolved</text>
<polygon fill="none" stroke="black" points="585.68,-644 585.68,-666.8 657.77,-666.8 657.77,-644 585.68,-644"/>
<text xml:space="preserve" text-anchor="start" x="588.68" y="-649.8" font-family="Times,serif" font-size="14.00">INTEGER</text>
<polygon fill="none" stroke="black" points="360.25,-621.2 360.25,-644 383.75,-644 383.75,-621.2 360.25,-621.2"/>
<text xml:space="preserve" text-anchor="start" x="363.25" y="-627" font-family="Times,serif" font-size="14.00">🔧 </text>
<polygon fill="none" stroke="black" points="383.75,-621.2 383.75,-644 585.68,-644 585.68,-621.2 383.75,-621.2"/>
<text xml:space="preserve" text-anchor="start" x="386.75" y="-627" font-family="Times,serif" font-size="14.00">pre_selected</text>
<polygon fill="none" stroke="black" points="585.68,-621.2 585.68,-644 657.77,-644 657.77,-621.2 585.68,-621.2"/>
<text xml:space="preserve" text-anchor="start" x="588.68" y="-627" font-family="Times,serif" font-size="14.00">INTEGER</text>
<polygon fill="none" stroke="black" points="360.25,-598.4 360.25,-621.2 383.75,-621.2 383.75,-598.4 360.25,-598.4"/>
<text xml:space="preserve" text-anchor="start" x="363.25" y="-604.2" font-family="Times,serif" font-size="14.00">🔧 </text>
<polygon fill="none" stroke="black" points="383.75,-598.4 383.75,-621.2 585.68,-621.2 585.68,-598.4 383.75,-598.4"/>
<text xml:space="preserve" text-anchor="start" x="386.75" y="-604.2" font-family="Times,serif" font-size="14.00">criticality</text>
<polygon fill="none" stroke="black" points="585.68,-598.4 585.68,-621.2 657.77,-621.2 657.77,-598.4 585.68,-598.4"/>
<text xml:space="preserve" text-anchor="start" x="588.68" y="-604.2" font-family="Times,serif" font-size="14.00">INTEGER?</text>
<polygon fill="none" stroke="black" points="360.25,-575.6 360.25,-598.4 383.75,-598.4 383.75,-575.6 360.25,-575.6"/>
<text xml:space="preserve" text-anchor="start" x="363.25" y="-581.4" font-family="Times,serif" font-size="14.00">🔧 </text>
<polygon fill="none" stroke="black" points="383.75,-575.6 383.75,-598.4 585.68,-598.4 585.68,-575.6 383.75,-575.6"/>
<text xml:space="preserve" text-anchor="start" x="386.75" y="-581.4" font-family="Times,serif" font-size="14.00">classification</text>
<polygon fill="none" stroke="black" points="585.68,-575.6 585.68,-598.4 657.77,-598.4 657.77,-575.6 585.68,-575.6"/>
<text xml:space="preserve" text-anchor="start" x="588.68" y="-581.4" font-family="Times,serif" font-size="14.00">INTEGER?</text>
<polygon fill="none" stroke="black" points="360.25,-552.8 360.25,-575.6 383.75,-575.6 383.75,-552.8 360.25,-552.8"/>
<text xml:space="preserve" text-anchor="start" x="363.25" y="-558.6" font-family="Times,serif" font-size="14.00">🔧 </text>
<polygon fill="none" stroke="black" points="383.75,-552.8 383.75,-575.6 585.68,-575.6 585.68,-552.8 383.75,-552.8"/>
<text xml:space="preserve" text-anchor="start" x="386.75" y="-558.6" font-family="Times,serif" font-size="14.00">first_party</text>
<polygon fill="none" stroke="black" points="585.68,-552.8 585.68,-575.6 657.77,-575.6 657.77,-552.8 585.68,-552.8"/>
<text xml:space="preserve" text-anchor="start" x="588.68" y="-558.6" font-family="Times,serif" font-size="14.00">INTEGER</text>
<polygon fill="none" stroke="black" points="360.25,-530 360.25,-552.8 383.75,-552.8 383.75,-530 360.25,-530"/>
<text xml:space="preserve" text-anchor="start" x="363.25" y="-535.8" font-family="Times,serif" font-size="14.00">🔧 </text>
<polygon fill="none" stroke="black" points="383.75,-530 383.75,-552.8 585.68,-552.8 585.68,-530 383.75,-530"/>
<text xml:space="preserve" text-anchor="start" x="386.75" y="-535.8" font-family="Times,serif" font-size="14.00">exclude_from_notice</text>
<polygon fill="none" stroke="black" points="585.68,-530 585.68,-552.8 657.77,-552.8 657.77,-530 585.68,-530"/>
<text xml:space="preserve" text-anchor="start" x="588.68" y="-535.8" font-family="Times,serif" font-size="14.00">INTEGER</text>
<polygon fill="none" stroke="black" points="360.25,-507.2 360.25,-530 383.75,-530 383.75,-507.2 360.25,-507.2"/>
<text xml:space="preserve" text-anchor="start" x="363.25" y="-513" font-family="Times,serif" font-size="14.00">🔧 </text>
<polygon fill="none" stroke="black" points="383.75,-507.2 383.75,-530 585.68,-530 585.68,-507.2 383.75,-507.2"/>
<text xml:space="preserve" text-anchor="start" x="386.75" y="-513" font-family="Times,serif" font-size="14.00">was_preferred</text>
<polygon fill="none" stroke="black" points="585.68,-507.2 585.68,-530 657.77,-530 657.77,-507.2 585.68,-507.2"/>
<text xml:space="preserve" text-anchor="start" x="588.68" y="-513" font-family="Times,serif" font-size="14.00">INTEGER</text>
<polygon fill="none" stroke="black" points="360.25,-484.4 360.25,-507.2 383.75,-507.2 383.75,-484.4 360.25,-484.4"/>
<text xml:space="preserve" text-anchor="start" x="363.25" y="-490.2" font-family="Times,serif" font-size="14.00">🔧 </text>
<polygon fill="none" stroke="black" points="383.75,-484.4 383.75,-507.2 585.68,-507.2 585.68,-484.4 383.75,-484.4"/>
<text xml:space="preserve" text-anchor="start" x="386.75" y="-490.2" font-family="Times,serif" font-size="14.00">copyright</text>
<polygon fill="none" stroke="black" points="585.68,-484.4 585.68,-507.2 657.77,-507.2 657.77,-484.4 585.68,-484.4"/>
<text xml:space="preserve" text-anchor="start" x="588.68" y="-490.2" font-family="Times,serif" font-size="14.00">TEXT?</text>
<polygon fill="none" stroke="black" points="360.25,-461.6 360.25,-484.4 383.75,-484.4 383.75,-461.6 360.25,-461.6"/>
<text xml:space="preserve" text-anchor="start" x="363.25" y="-467.4" font-family="Times,serif" font-size="14.00">🔧 </text>
<polygon fill="none" stroke="black" points="383.75,-461.6 383.75,-484.4 585.68,-484.4 585.68,-461.6 383.75,-461.6"/>
<text xml:space="preserve" text-anchor="start" x="386.75" y="-467.4" font-family="Times,serif" font-size="14.00">license_name</text>
<polygon fill="none" stroke="black" points="585.68,-461.6 585.68,-484.4 657.77,-484.4 657.77,-461.6 585.68,-461.6"/>
<text xml:space="preserve" text-anchor="start" x="588.68" y="-467.4" font-family="Times,serif" font-size="14.00">TEXT?</text>
<polygon fill="none" stroke="black" points="360.25,-438.8 360.25,-461.6 383.75,-461.6 383.75,-438.8 360.25,-438.8"/>
<text xml:space="preserve" text-anchor="start" x="363.25" y="-444.6" font-family="Times,serif" font-size="14.00">🔧 </text>
<polygon fill="none" stroke="black" points="383.75,-438.8 383.75,-461.6 585.68,-461.6 585.68,-438.8 383.75,-438.8"/>
<text xml:space="preserve" text-anchor="start" x="386.75" y="-444.6" font-family="Times,serif" font-size="14.00">url</text>
<polygon fill="none" stroke="black" points="585.68,-438.8 585.68,-461.6 657.77,-461.6 657.77,-438.8 585.68,-438.8"/>
<text xml:space="preserve" text-anchor="start" x="588.68" y="-444.6" font-family="Times,serif" font-size="14.00">TEXT?</text>
<polygon fill="none" stroke="black" points="360.25,-416 360.25,-438.8 383.75,-438.8 383.75,-416 360.25,-416"/>
<text xml:space="preserve" text-anchor="start" x="363.25" y="-421.8" font-family="Times,serif" font-size="14.00">🔧 </text>
<polygon fill="none" stroke="black" points="383.75,-416 383.75,-438.8 585.68,-438.8 585.68,-416 383.75,-416"/>
<text xml:space="preserve" text-anchor="start" x="386.75" y="-421.8" font-family="Times,serif" font-size="14.00">package_name</text>
<polygon fill="none" stroke="black" points="585.68,-416 585.68,-438.8 657.77,-438.8 657.77,-416 585.68,-416"/>
<text xml:space="preserve" text-anchor="start" x="588.68" y="-421.8" font-family="Times,serif" font-size="14.00">TEXT?</text>
<polygon fill="none" stroke="black" points="360.25,-393.2 360.25,-416 383.75,-416 383.75,-393.2 360.25,-393.2"/>
<text xml:space="preserve" text-anchor="start" x="363.25" y="-399" font-family="Times,serif" font-size="14.00">🔧 </text>
<polygon fill="none" stroke="black" points="383.75,-393.2 383.75,-416 585.68,-416 585.68,-393.2 383.75,-393.2"/>
<text xml:space="preserve" text-anchor="start" x="386.75" y="-399" font-family="Times,serif" font-size="14.00">package_namespace</text>
<polygon fill="none" stroke="black" points="585.68,-393.2 585.68,-416 657.77,-416 657.77,-393.2 585.68,-393.2"/>
<text xml:space="preserve" text-anchor="start" x="588.68" y="-399" font-family="Times,serif" font-size="14.00">TEXT?</text>
<polygon fill="none" stroke="black" points="360.25,-370.4 360.25,-393.2 383.75,-393.2 383.75,-370.4 360.25,-370.4"/>
<text xml:space="preserve" text-anchor="start" x="363.25" y="-376.2" font-family="Times,serif" font-size="14.00">🔧 </text>
<polygon fill="none" stroke="black" points="383.75,-370.4 383.75,-393.2 585.68,-393.2 585.68,-370.4 383.75,-370.4"/>
<text xml:space="preserve" text-anchor="start" x="386.75" y="-376.2" font-family="Times,serif" font-size="14.00">package_version</text>
<polygon fill="none" stroke="black" points="585.68,-370.4 585.68,-393.2 657.77,-393.2 657.77,-370.4 585.68,-370.4"/>
<text xml:space="preserve" text-anchor="start" x="588.68" y="-376.2" font-family="Times,serif" font-size="14.00">TEXT?</text>
<polygon fill="none" stroke="black" points="360.25,-347.6 360.25,-370.4 383.75,-370.4 383.75,-347.6 360.25,-347.6"/>
<text xml:space="preserve" text-anchor="start" x="363.25" y="-353.4" font-family="Times,serif" font-size="14.00">🔧 </text>
<polygon fill="none" stroke="black" points="383.75,-347.6 383.75,-370.4 585.68,-370.4 585.68,-347.6 383.75,-347.6"/>
<text xml:space="preserve" text-anchor="start" x="386.75" y="-353.4" font-family="Times,serif" font-size="14.00">package_type</text>
<polygon fill="none" stroke="black" points="585.68,-347.6 585.68,-370.4 657.77,-370.4 657.77,-347.6 585.68,-347.6"/>
<text xml:space="preserve" text-anchor="start" x="588.68" y="-353.4" font-family="Times,serif" font-size="14.00">TEXT?</text>
<polygon fill="none" stroke="black" points="360.25,-324.8 360.25,-347.6 383.75,-347.6 383.75,-324.8 360.25,-324.8"/>
<text xml:space="preserve" text-anchor="start" x="363.25" y="-330.6" font-family="Times,serif" font-size="14.00">🔧 </text>
<polygon fill="none" stroke="black" points="383.75,-324.8 383.75,-347.6 585.68,-347.6 585.68,-324.8 383.75,-324.8"/>
<text xml:space="preserve" text-anchor="start" x="386.75" y="-330.6" font-family="Times,serif" font-size="14.00">attribution_confidence</text>
<polygon fill="none" stroke="black" points="585.68,-324.8 585.68,-347.6 657.77,-347.6 657.77,-324.8 585.68,-324.8"/>
<text xml:space="preserve" text-anchor="start" x="588.68" y="-330.6" font-family="Times,serif" font-size="14.00">INTEGER?</text>
<polygon fill="none" stroke="black" points="360.25,-302 360.25,-324.8 383.75,-324.8 383.75,-302 360.25,-302"/>
<text xml:space="preserve" text-anchor="start" x="363.25" y="-307.8" font-family="Times,serif" font-size="14.00">🔧 </text>
<polygon fill="none" stroke="black" points="383.75,-302 383.75,-324.8 585.68,-324.8 585.68,-302 383.75,-302"/>
<text xml:space="preserve" text-anchor="start" x="386.75" y="-307.8" font-family="Times,serif" font-size="14.00">follow_up</text>
<polygon fill="none" stroke="black" points="585.68,-302 585.68,-324.8 657.77,-324.8 657.77,-302 585.68,-302"/>
<text xml:space="preserve" text-anchor="start" x="588.68" y="-307.8" font-family="Times,serif" font-size="14.00">INTEGER</text>
<polygon fill="none" stroke="black" points="360.25,-279.2 360.25,-302 383.75,-302 383.75,-279.2 360.25,-279.2"/>
<text xml:space="preserve" text-anchor="start" x="363.25" y="-285" font-family="Times,serif" font-size="14.00">🔧 </text>
<polygon fill="none" stroke="black" points="383.75,-279.2 383.75,-302 585.68,-302 585.68,-279.2 383.75,-279.2"/>
<text xml:space="preserve" text-anchor="start" x="386.75" y="-285" font-family="Times,serif" font-size="14.00">needs_review</text>
<polygon fill="none" stroke="black" points="585.68,-279.2 585.68,-302 657.77,-302 657.77,-279.2 585.68,-279.2"/>
<text xml:space="preserve" text-anchor="start" x="588.68" y="-285" font-family="Times,serif" font-size="14.00">INTEGER</text>
<polygon fill="none" stroke="black" points="360.25,-256.4 360.25,-279.2 383.75,-279.2 383.75,-256.4 360.25,-256.4"/>
<text xml:space="preserve" text-anchor="start" x="363.25" y="-262.2" font-family="Times,serif" font-size="14.00">🔧 </text>
<polygon fill="none" stroke="black" points="383.75,-256.4 383.75,-279.2 585.68,-279.2 585.68,-256.4 383.75,-256.4"/>
<text xml:space="preserve" text-anchor="start" x="386.75" y="-262.2" font-family="Times,serif" font-size="14.00">preferred</text>
<polygon fill="none" stroke="black" points="585.68,-256.4 585.68,-279.2 657.77,-279.2 657.77,-256.4 585.68,-256.4"/>
<text xml:space="preserve" text-anchor="start" x="588.68" y="-262.2" font-family="Times,serif" font-size="14.00">INTEGER</text>
<polygon fill="none" stroke="black" points="360.25,-233.6 360.25,-256.4 383.75,-256.4 383.75,-233.6 360.25,-233.6"/>
<text xml:space="preserve" text-anchor="start" x="363.25" y="-239.4" font-family="Times,serif" font-size="14.00">🔧 </text>
<polygon fill="none" stroke="black" points="383.75,-233.6 383.75,-256.4 585.68,-256.4 585.68,-233.6 383.75,-233.6"/>
<text xml:space="preserve" text-anchor="start" x="386.75" y="-239.4" font-family="Times,serif" font-size="14.00">original_attribution_was_preferred</text>
<polygon fill="none" stroke="black" points="585.68,-233.6 585.68,-256.4 657.77,-256.4 657.77,-233.6 585.68,-233.6"/>
<text xml:space="preserve" text-anchor="start" x="588.68" y="-239.4" font-family="Times,serif" font-size="14.00">INTEGER</text>
<polygon fill="none" stroke="black" points="360.25,-210.8 360.25,-233.6 383.75,-233.6 383.75,-210.8 360.25,-210.8"/>
<text xml:space="preserve" text-anchor="start" x="363.25" y="-216.6" font-family="Times,serif" font-size="14.00">🔧 </text>
<polygon fill="none" stroke="black" points="383.75,-210.8 383.75,-233.6 585.68,-233.6 585.68,-210.8 383.75,-210.8"/>
<text xml:space="preserve" text-anchor="start" x="386.75" y="-216.6" font-family="Times,serif" font-size="14.00">comment</text>
<polygon fill="none" stroke="black" points="585.68,-210.8 585.68,-233.6 657.77,-233.6 657.77,-210.8 585.68,-210.8"/>
<text xml:space="preserve" text-anchor="start" x="588.68" y="-216.6" font-family="Times,serif" font-size="14.00">TEXT?</text>
<polygon fill="none" stroke="black" points="360.25,-188 360.25,-210.8 383.75,-210.8 383.75,-188 360.25,-188"/>
<text xml:space="preserve" text-anchor="start" x="363.25" y="-193.8" font-family="Times,serif" font-size="14.00">🔧 </text>
<polygon fill="none" stroke="black" points="383.75,-188 383.75,-210.8 585.68,-210.8 585.68,-188 383.75,-188"/>
<text xml:space="preserve" text-anchor="start" x="386.75" y="-193.8" font-family="Times,serif" font-size="14.00">canonical_license_name</text>
<polygon fill="none" stroke="black" points="585.68,-188 585.68,-210.8 657.77,-210.8 657.77,-188 585.68,-188"/>
<text xml:space="preserve" text-anchor="start" x="588.68" y="-193.8" font-family="Times,serif" font-size="14.00">TEXT?</text>
</g>
<!-- cwa -->
<g id="node2" class="node">
<title>cwa</title>
<polygon fill="none" stroke="black" points="74.68,-1067.6 74.68,-1090.4 241.57,-1090.4 241.57,-1067.6 74.68,-1067.6"/>
<text xml:space="preserve" text-anchor="start" x="146.46" y="-1075.8" font-family="Times,serif" font-weight="bold" font-size="14.00">cwa</text>
<polygon fill="none" stroke="black" points="74.68,-1044.8 74.68,-1067.6 98.18,-1067.6 98.18,-1044.8 74.68,-1044.8"/>
<text xml:space="preserve" text-anchor="start" x="77.68" y="-1050.6" font-family="Times,serif" font-size="14.00">🔑 </text>
<polygon fill="none" stroke="black" points="98.18,-1044.8 98.18,-1067.6 169.48,-1067.6 169.48,-1044.8 98.18,-1044.8"/>
<text xml:space="preserve" text-anchor="start" x="101.18" y="-1050.6" font-family="Times,serif" font-size="14.00">resource_id</text>
<polygon fill="none" stroke="black" points="169.48,-1044.8 169.48,-1067.6 241.57,-1067.6 241.57,-1044.8 169.48,-1044.8"/>
<text xml:space="preserve" text-anchor="start" x="172.48" y="-1050.6" font-family="Times,serif" font-size="14.00">INTEGER</text>
<polygon fill="none" stroke="black" points="74.68,-1022 74.68,-1044.8 98.18,-1044.8 98.18,-1022 74.68,-1022"/>
<polygon fill="none" stroke="black" points="98.18,-1022 98.18,-1044.8 169.48,-1044.8 169.48,-1022 98.18,-1022"/>
<text xml:space="preserve" text-anchor="start" x="101.18" y="-1027.8" font-family="Times,serif" font-size="14.00">is_file</text>
<polygon fill="none" stroke="black" points="169.48,-1022 169.48,-1044.8 241.57,-1044.8 241.57,-1022 169.48,-1022"/>
<text xml:space="preserve" text-anchor="start" x="172.48" y="-1027.8" font-family="Times,serif" font-size="14.00">INTEGER</text>
<polygon fill="none" stroke="black" points="74.68,-999.2 74.68,-1022 98.18,-1022 98.18,-999.2 74.68,-999.2"/>
<polygon fill="none" stroke="black" points="98.18,-999.2 98.18,-1022 169.48,-1022 169.48,-999.2 98.18,-999.2"/>
<text xml:space="preserve" text-anchor="start" x="101.18" y="-1005" font-family="Times,serif" font-size="14.00">manual</text>
<polygon fill="none" stroke="black" points="169.48,-999.2 169.48,-1022 241.57,-1022 241.57,-999.2 169.48,-999.2"/>
<text xml:space="preserve" text-anchor="start" x="172.48" y="-1005" font-family="Times,serif" font-size="14.00">INTEGER?</text>
<polygon fill="none" stroke="black" points="74.68,-976.4 74.68,-999.2 98.18,-999.2 98.18,-976.4 74.68,-976.4"/>
<polygon fill="none" stroke="black" points="98.18,-976.4 98.18,-999.2 169.48,-999.2 169.48,-976.4 98.18,-976.4"/>
<text xml:space="preserve" text-anchor="start" x="101.18" y="-982.2" font-family="Times,serif" font-size="14.00">external</text>
<polygon fill="none" stroke="black" points="169.48,-976.4 169.48,-999.2 241.57,-999.2 241.57,-976.4 169.48,-976.4"/>
<text xml:space="preserve" text-anchor="start" x="172.48" y="-982.2" font-family="Times,serif" font-size="14.00">INTEGER?</text>
<polygon fill="none" stroke="black" points="74.68,-953.6 74.68,-976.4 98.18,-976.4 98.18,-953.6 74.68,-953.6"/>
<polygon fill="none" stroke="black" points="98.18,-953.6 98.18,-976.4 169.48,-976.4 169.48,-953.6 98.18,-953.6"/>
<text xml:space="preserve" text-anchor="start" x="101.18" y="-959.4" font-family="Times,serif" font-size="14.00">breakpoint</text>
<polygon fill="none" stroke="black" points="169.48,-953.6 169.48,-976.4 241.57,-976.4 241.57,-953.6 169.48,-953.6"/>
<text xml:space="preserve" text-anchor="start" x="172.48" y="-959.4" font-family="Times,serif" font-size="14.00">INTEGER</text>
</g>
<!-- resource -->
<g id="node5" class="node">
<title>resource</title>
<polygon fill="none" stroke="black" points="387.45,-1011.6 387.45,-1034.4 630.57,-1034.4 630.57,-1011.6 387.45,-1011.6"/>
<text xml:space="preserve" text-anchor="start" x="483.36" y="-1019.8" font-family="Times,serif" font-weight="bold" font-size="14.00">resource</text>
<polygon fill="none" stroke="black" points="387.45,-988.8 387.45,-1011.6 410.95,-1011.6 410.95,-988.8 387.45,-988.8"/>
<text xml:space="preserve" text-anchor="start" x="390.45" y="-994.6" font-family="Times,serif" font-size="14.00">🔑 </text>
<polygon fill="none" stroke="black" points="410.95,-988.8 410.95,-1011.6 558.48,-1011.6 558.48,-988.8 410.95,-988.8"/>
<text xml:space="preserve" text-anchor="start" x="413.95" y="-994.6" font-family="Times,serif" font-size="14.00">id</text>
<polygon fill="none" stroke="black" points="558.48,-988.8 558.48,-1011.6 630.57,-1011.6 630.57,-988.8 558.48,-988.8"/>
<text xml:space="preserve" text-anchor="start" x="561.48" y="-994.6" font-family="Times,serif" font-size="14.00">INTEGER</text>
<polygon fill="none" stroke="black" points="387.45,-966 387.45,-988.8 410.95,-988.8 410.95,-966 387.45,-966"/>
<g id="a_node5_2"><a xlink:title="Without trailing slash. The path of the root resource is the empty string">
<polygon fill="none" stroke="black" points="410.95,-966 410.95,-988.8 558.48,-988.8 558.48,-966 410.95,-966"/>
<text xml:space="preserve" text-anchor="start" x="413.95" y="-971.8" font-family="Times,serif" font-size="14.00">path 📝</text>
</a>
</g>
<polygon fill="none" stroke="black" points="558.48,-966 558.48,-988.8 630.57,-988.8 630.57,-966 558.48,-966"/>
<text xml:space="preserve" text-anchor="start" x="561.48" y="-971.8" font-family="Times,serif" font-size="14.00">TEXT</text>
<polygon fill="none" stroke="black" points="387.45,-943.2 387.45,-966 410.95,-966 410.95,-943.2 387.45,-943.2"/>
<g id="a_node5_3"><a xlink:title="The name of the root resource is the empty string">
<polygon fill="none" stroke="black" points="410.95,-943.2 410.95,-966 558.48,-966 558.48,-943.2 410.95,-943.2"/>
<text xml:space="preserve" text-anchor="start" x="413.95" y="-949" font-family="Times,serif" font-size="14.00">name 📝</text>
</a>
</g>
<polygon fill="none" stroke="black" points="558.48,-943.2 558.48,-966 630.57,-966 630.57,-943.2 558.48,-943.2"/>
<text xml:space="preserve" text-anchor="start" x="561.48" y="-949" font-family="Times,serif" font-size="14.00">TEXT</text>
<polygon fill="none" stroke="black" points="387.45,-920.4 387.45,-943.2 410.95,-943.2 410.95,-920.4 387.45,-920.4"/>
<polygon fill="none" stroke="black" points="410.95,-920.4 410.95,-943.2 558.48,-943.2 558.48,-920.4 410.95,-920.4"/>
<text xml:space="preserve" text-anchor="start" x="413.95" y="-926.2" font-family="Times,serif" font-size="14.00">parent_id</text>
<polygon fill="none" stroke="black" points="558.48,-920.4 558.48,-943.2 630.57,-943.2 630.57,-920.4 558.48,-920.4"/>
<text xml:space="preserve" text-anchor="start" x="561.48" y="-926.2" font-family="Times,serif" font-size="14.00">INTEGER?</text>
<polygon fill="none" stroke="black" points="387.45,-897.6 387.45,-920.4 410.95,-920.4 410.95,-897.6 387.45,-897.6"/>
<polygon fill="none" stroke="black" points="410.95,-897.6 410.95,-920.4 558.48,-920.4 558.48,-897.6 410.95,-897.6"/>
<text xml:space="preserve" text-anchor="start" x="413.95" y="-903.4" font-family="Times,serif" font-size="14.00">is_attribution_breakpoint</text>
<polygon fill="none" stroke="black" points="558.48,-897.6 558.48,-920.4 630.57,-920.4 630.57,-897.6 558.48,-897.6"/>
<text xml:space="preserve" text-anchor="start" x="561.48" y="-903.4" font-family="Times,serif" font-size="14.00">INTEGER</text>
<polygon fill="none" stroke="black" points="387.45,-874.8 387.45,-897.6 410.95,-897.6 410.95,-874.8 387.45,-874.8"/>
<polygon fill="none" stroke="black" points="410.95,-874.8 410.95,-897.6 558.48,-897.6 558.48,-874.8 410.95,-874.8"/>
<text xml:space="preserve" text-anchor="start" x="413.95" y="-880.6" font-family="Times,serif" font-size="14.00">is_file</text>
<polygon fill="none" stroke="black" points="558.48,-874.8 558.48,-897.6 630.57,-897.6 630.57,-874.8 558.48,-874.8"/>
<text xml:space="preserve" text-anchor="start" x="561.48" y="-880.6" font-family="Times,serif" font-size="14.00">INTEGER</text>
<polygon fill="none" stroke="black" points="387.45,-852 387.45,-874.8 410.95,-874.8 410.95,-852 387.45,-852"/>
<g id="a_node5_4"><a xlink:title="Is a directory or in files_with_children">
<polygon fill="none" stroke="black" points="410.95,-852 410.95,-874.8 558.48,-874.8 558.48,-852 410.95,-852"/>
<text xml:space="preserve" text-anchor="start" x="413.95" y="-857.8" font-family="Times,serif" font-size="14.00">can_have_children 📝</text>
</a>
</g>
<polygon fill="none" stroke="black" points="558.48,-852 558.48,-874.8 630.57,-874.8 630.57,-852 558.48,-852"/>
<text xml:space="preserve" text-anchor="start" x="561.48" y="-857.8" font-family="Times,serif" font-size="14.00">INTEGER</text>
<polygon fill="none" stroke="black" points="387.45,-829.2 387.45,-852 410.95,-852 410.95,-829.2 387.45,-829.2"/>
<g id="a_node5_5"><a xlink:title="The highest id of a descendant of this resource. As the resources are numbered depth&#45;first, this enables us to identify the children of resource R by checking if child.id is between R.id and R.max_descendant_id, which is very fast. See https://en.wikipedia.org/wiki/Nested_set_model">
<polygon fill="none" stroke="black" points="410.95,-829.2 410.95,-852 558.48,-852 558.48,-829.2 410.95,-829.2"/>
<text xml:space="preserve" text-anchor="start" x="413.95" y="-835" font-family="Times,serif" font-size="14.00">max_descendant_id 📝</text>
</a>
</g>
<polygon fill="none" stroke="black" points="558.48,-829.2 558.48,-852 630.57,-852 630.57,-829.2 558.48,-829.2"/>
<text xml:space="preserve" text-anchor="start" x="561.48" y="-835" font-family="Times,serif" font-size="14.00">INTEGER</text>
<polygon fill="none" stroke="black" points="387.45,-806.4 387.45,-829.2 410.95,-829.2 410.95,-806.4 387.45,-806.4"/>
<polygon fill="none" stroke="black" points="410.95,-806.4 410.95,-829.2 558.48,-829.2 558.48,-806.4 410.95,-806.4"/>
<text xml:space="preserve" text-anchor="start" x="413.95" y="-812.2" font-family="Times,serif" font-size="14.00">base_url</text>
<polygon fill="none" stroke="black" points="558.48,-806.4 558.48,-829.2 630.57,-829.2 630.57,-806.4 558.48,-806.4"/>
<text xml:space="preserve" text-anchor="start" x="561.48" y="-812.2" font-family="Times,serif" font-size="14.00">TEXT?</text>
<polygon fill="none" stroke="black" points="387.45,-783.6 387.45,-806.4 410.95,-806.4 410.95,-783.6 387.45,-783.6"/>
<text xml:space="preserve" text-anchor="start" x="390.45" y="-789.4" font-family="Times,serif" font-size="14.00">🔧 </text>
<polygon fill="none" stroke="black" points="410.95,-783.6 410.95,-806.4 558.48,-806.4 558.48,-783.6 410.95,-783.6"/>
<text xml:space="preserve" text-anchor="start" x="413.95" y="-789.4" font-family="Times,serif" font-size="14.00">sort_key</text>
<polygon fill="none" stroke="black" points="558.48,-783.6 558.48,-806.4 630.57,-806.4 630.57,-783.6 558.48,-783.6"/>
<text xml:space="preserve" text-anchor="start" x="561.48" y="-789.4" font-family="Times,serif" font-size="14.00">TEXT</text>
</g>
<!-- cwa&#45;&gt;resource -->
<g id="edge1" class="edge">
<title>cwa:e&#45;&gt;resource:w</title>
<path fill="none" stroke="black" d="M242.57,-965C304.42,-965 318.94,-996.07 375.06,-999.83"/>
<polygon fill="black" stroke="black" points="374.83,-1003.32 384.94,-1000.15 375.06,-996.33 374.83,-1003.32"/>
</g>
<!-- cwa&#45;&gt;resource -->
<g id="edge2" class="edge">
<title>cwa:e&#45;&gt;resource:w</title>
<path fill="none" stroke="black" d="M242.57,-987.8C302.74,-987.8 320.14,-998.7 374.96,-1000.06"/>
<polygon fill="black" stroke="black" points="374.89,-1003.56 384.94,-1000.18 374.98,-996.56 374.89,-1003.56"/>
</g>
<!-- cwa&#45;&gt;resource -->
<g id="edge3" class="edge">
<title>cwa:e&#45;&gt;resource:w</title>
<path fill="none" stroke="black" d="M242.57,-1010.6C302.68,-1010.6 320.19,-1001.46 374.97,-1000.32"/>
<polygon fill="black" stroke="black" points="374.97,-1003.82 384.94,-1000.22 374.9,-996.82 374.97,-1003.82"/>
</g>
<!-- cwa&#45;&gt;resource -->
<g id="edge4" class="edge">
<title>cwa:e&#45;&gt;resource:w</title>
<path fill="none" stroke="black" d="M242.57,-1056.2C307.17,-1056.2 316.84,-1006.57 375,-1000.75"/>
<polygon fill="black" stroke="black" points="375.12,-1004.25 384.94,-1000.27 374.78,-997.26 375.12,-1004.25"/>
</g>
<!-- external_attribution_source -->
<g id="node3" class="node">
<title>external_attribution_source</title>
<polygon fill="none" stroke="black" points="389.8,-139.2 389.8,-162 628.22,-162 628.22,-139.2 389.8,-139.2"/>
<text xml:space="preserve" text-anchor="start" x="425.41" y="-147.4" font-family="Times,serif" font-weight="bold" font-size="14.00">external_attribution_source</text>
<polygon fill="none" stroke="black" points="389.8,-116.4 389.8,-139.2 413.3,-139.2 413.3,-116.4 389.8,-116.4"/>
<text xml:space="preserve" text-anchor="start" x="392.8" y="-122.2" font-family="Times,serif" font-size="14.00">🔑 </text>
<polygon fill="none" stroke="black" points="413.3,-116.4 413.3,-139.2 562.34,-139.2 562.34,-116.4 413.3,-116.4"/>
<text xml:space="preserve" text-anchor="start" x="416.3" y="-122.2" font-family="Times,serif" font-size="14.00">key</text>
<polygon fill="none" stroke="black" points="562.34,-116.4 562.34,-139.2 628.22,-139.2 628.22,-116.4 562.34,-116.4"/>
<text xml:space="preserve" text-anchor="start" x="565.34" y="-122.2" font-family="Times,serif" font-size="14.00">TEXT</text>
<polygon fill="none" stroke="black" points="389.8,-93.6 389.8,-116.4 413.3,-116.4 413.3,-93.6 389.8,-93.6"/>
<polygon fill="none" stroke="black" points="413.3,-93.6 413.3,-116.4 562.34,-116.4 562.34,-93.6 413.3,-93.6"/>
<text xml:space="preserve" text-anchor="start" x="416.3" y="-99.4" font-family="Times,serif" font-size="14.00">name</text>
<polygon fill="none" stroke="black" points="562.34,-93.6 562.34,-116.4 628.22,-116.4 628.22,-93.6 562.34,-93.6"/>
<text xml:space="preserve" text-anchor="start" x="565.34" y="-99.4" font-family="Times,serif" font-size="14.00">TEXT</text>
<polygon fill="none" stroke="black" points="389.8,-70.8 389.8,-93.6 413.3,-93.6 413.3,-70.8 389.8,-70.8"/>
<polygon fill="none" stroke="black" points="413.3,-70.8 413.3,-93.6 562.34,-93.6 562.34,-70.8 413.3,-70.8"/>
<text xml:space="preserve" text-anchor="start" x="416.3" y="-76.6" font-family="Times,serif" font-size="14.00">priority</text>
<polygon fill="none" stroke="black" points="562.34,-70.8 562.34,-93.6 628.22,-93.6 628.22,-70.8 562.34,-70.8"/>
<text xml:space="preserve" text-anchor="start" x="565.34" y="-76.6" font-family="Times,serif" font-size="14.00">INTEGER</text>
<polygon fill="none" stroke="black" points="389.8,-48 389.8,-70.8 413.3,-70.8 413.3,-48 389.8,-48"/>
<polygon fill="none" stroke="black" points="413.3,-48 413.3,-70.8 562.34,-70.8 562.34,-48 413.3,-48"/>
<text xml:space="preserve" text-anchor="start" x="416.3" y="-53.8" font-family="Times,serif" font-size="14.00">is_relevant_for_preferred</text>
<polygon fill="none" stroke="black" points="562.34,-48 562.34,-70.8 628.22,-70.8 628.22,-48 562.34,-48"/>
<text xml:space="preserve" text-anchor="start" x="565.34" y="-53.8" font-family="Times,serif" font-size="14.00">INTEGER</text>
</g>
<!-- frequent_license -->
<g id="node4" class="node">
<title>frequent_license</title>
<polygon fill="none" stroke="black" points="77.01,-1207.2 77.01,-1230 239.24,-1230 239.24,-1207.2 77.01,-1207.2"/>
<text xml:space="preserve" text-anchor="start" x="109.13" y="-1215.4" font-family="Times,serif" font-weight="bold" font-size="14.00">frequent_license</text>
<polygon fill="none" stroke="black" points="77.01,-1184.4 77.01,-1207.2 100.51,-1207.2 100.51,-1184.4 77.01,-1184.4"/>
<text xml:space="preserve" text-anchor="start" x="80.01" y="-1190.2" font-family="Times,serif" font-size="14.00">🔑 </text>
<polygon fill="none" stroke="black" points="100.51,-1184.4 100.51,-1207.2 173.37,-1207.2 173.37,-1184.4 100.51,-1184.4"/>
<text xml:space="preserve" text-anchor="start" x="103.51" y="-1190.2" font-family="Times,serif" font-size="14.00">id</text>
<polygon fill="none" stroke="black" points="173.37,-1184.4 173.37,-1207.2 239.24,-1207.2 239.24,-1184.4 173.37,-1184.4"/>
<text xml:space="preserve" text-anchor="start" x="176.37" y="-1190.2" font-family="Times,serif" font-size="14.00">INTEGER</text>
<polygon fill="none" stroke="black" points="77.01,-1161.6 77.01,-1184.4 100.51,-1184.4 100.51,-1161.6 77.01,-1161.6"/>
<polygon fill="none" stroke="black" points="100.51,-1161.6 100.51,-1184.4 173.37,-1184.4 173.37,-1161.6 100.51,-1161.6"/>
<text xml:space="preserve" text-anchor="start" x="103.51" y="-1167.4" font-family="Times,serif" font-size="14.00">short_name</text>
<polygon fill="none" stroke="black" points="173.37,-1161.6 173.37,-1184.4 239.24,-1184.4 239.24,-1161.6 173.37,-1161.6"/>
<text xml:space="preserve" text-anchor="start" x="176.37" y="-1167.4" font-family="Times,serif" font-size="14.00">TEXT</text>
<polygon fill="none" stroke="black" points="77.01,-1138.8 77.01,-1161.6 100.51,-1161.6 100.51,-1138.8 77.01,-1138.8"/>
<polygon fill="none" stroke="black" points="100.51,-1138.8 100.51,-1161.6 173.37,-1161.6 173.37,-1138.8 100.51,-1138.8"/>
<text xml:space="preserve" text-anchor="start" x="103.51" y="-1144.6" font-family="Times,serif" font-size="14.00">full_name</text>
<polygon fill="none" stroke="black" points="173.37,-1138.8 173.37,-1161.6 239.24,-1161.6 239.24,-1138.8 173.37,-1138.8"/>
<text xml:space="preserve" text-anchor="start" x="176.37" y="-1144.6" font-family="Times,serif" font-size="14.00">TEXT</text>
<polygon fill="none" stroke="black" points="77.01,-1116 77.01,-1138.8 100.51,-1138.8 100.51,-1116 77.01,-1116"/>
<polygon fill="none" stroke="black" points="100.51,-1116 100.51,-1138.8 173.37,-1138.8 173.37,-1116 100.51,-1116"/>
<text xml:space="preserve" text-anchor="start" x="103.51" y="-1121.8" font-family="Times,serif" font-size="14.00">license_text</text>
<polygon fill="none" stroke="black" points="173.37,-1116 173.37,-1138.8 239.24,-1138.8 239.24,-1116 173.37,-1116"/>
<text xml:space="preserve" text-anchor="start" x="176.37" y="-1121.8" font-family="Times,serif" font-size="14.00">TEXT?</text>
</g>
<!-- resource&#45;&gt;resource -->
<g id="edge7" class="edge">
<title>resource:e&#45;&gt;resource:w</title>
<path fill="none" stroke="black" d="M630.57,-840.6C718.29,-889.73 718.29,-1056.4 509.01,-1056.4 307.9,-1056.4 300.05,-1045.32 377.58,-1005.23"/>
<polygon fill="black" stroke="black" points="378.78,-1008.55 386.1,-1000.89 375.6,-1002.31 378.78,-1008.55"/>
</g>
<!-- resource&#45;&gt;resource -->
<g id="edge8" class="edge">
<title>resource:e&#45;&gt;resource:w</title>
<path fill="none" stroke="black" d="M630.57,-931.8C718.29,-980.93 718.29,-1056.4 509.01,-1056.4 307.9,-1056.4 300.05,-1045.32 377.58,-1005.23"/>
<polygon fill="black" stroke="black" points="378.78,-1008.55 386.1,-1000.89 375.6,-1002.31 378.78,-1008.55"/>
</g>
<!-- resource_to_attribution -->
<g id="node6" class="node">
<title>resource_to_attribution</title>
<polygon fill="none" stroke="black" points="38.31,-830.8 38.31,-853.6 277.94,-853.6 277.94,-830.8 38.31,-830.8"/>
<text xml:space="preserve" text-anchor="start" x="86.97" y="-839" font-family="Times,serif" font-weight="bold" font-size="14.00">resource_to_attribution</text>
<polygon fill="none" stroke="black" points="38.31,-808 38.31,-830.8 61.81,-830.8 61.81,-808 38.31,-808"/>
<text xml:space="preserve" text-anchor="start" x="41.31" y="-813.8" font-family="Times,serif" font-size="14.00">🔑 </text>
<polygon fill="none" stroke="black" points="61.81,-808 61.81,-830.8 212.06,-830.8 212.06,-808 61.81,-808"/>
<text xml:space="preserve" text-anchor="start" x="64.81" y="-813.8" font-family="Times,serif" font-size="14.00">resource_id</text>
<polygon fill="none" stroke="black" points="212.06,-808 212.06,-830.8 277.94,-830.8 277.94,-808 212.06,-808"/>
<text xml:space="preserve" text-anchor="start" x="215.06" y="-813.8" font-family="Times,serif" font-size="14.00">INTEGER</text>
<polygon fill="none" stroke="black" points="38.31,-785.2 38.31,-808 61.81,-808 61.81,-785.2 38.31,-785.2"/>
<text xml:space="preserve" text-anchor="start" x="41.31" y="-791" font-family="Times,serif" font-size="14.00">🔑 </text>
<polygon fill="none" stroke="black" points="61.81,-785.2 61.81,-808 212.06,-808 212.06,-785.2 61.81,-785.2"/>
<text xml:space="preserve" text-anchor="start" x="64.81" y="-791" font-family="Times,serif" font-size="14.00">attribution_uuid</text>
<polygon fill="none" stroke="black" points="212.06,-785.2 212.06,-808 277.94,-808 277.94,-785.2 212.06,-785.2"/>
<text xml:space="preserve" text-anchor="start" x="215.06" y="-791" font-family="Times,serif" font-size="14.00">TEXT</text>
<polygon fill="none" stroke="black" points="38.31,-762.4 38.31,-785.2 61.81,-785.2 61.81,-762.4 38.31,-762.4"/>
<g id="a_node6_6"><a xlink:title="Denormalized data for faster checking if a resource has manual/external attribution">
<polygon fill="none" stroke="black" points="61.81,-762.4 61.81,-785.2 212.06,-785.2 212.06,-762.4 61.81,-762.4"/>
<text xml:space="preserve" text-anchor="start" x="64.81" y="-768.2" font-family="Times,serif" font-size="14.00">attribution_is_external 📝</text>
</a>
</g>
<polygon fill="none" stroke="black" points="212.06,-762.4 212.06,-785.2 277.94,-785.2 277.94,-762.4 212.06,-762.4"/>
<text xml:space="preserve" text-anchor="start" x="215.06" y="-768.2" font-family="Times,serif" font-size="14.00">INTEGER</text>
</g>
<!-- resource_to_attribution&#45;&gt;attribution -->
<g id="edge5" class="edge">
<title>resource_to_attribution:e&#45;&gt;attribution:w</title>
<path fill="none" stroke="black" d="M278.94,-796.6C322.97,-796.6 313.35,-735.77 348.17,-725.32"/>
<polygon fill="black" stroke="black" points="348.32,-728.83 357.75,-724.01 347.37,-721.9 348.32,-728.83"/>
</g>
<!-- resource_to_attribution&#45;&gt;resource -->
<g id="edge6" class="edge">
<title>resource_to_attribution:e&#45;&gt;resource:w</title>
<path fill="none" stroke="black" d="M278.94,-819.4C368.41,-819.4 299.47,-985 375.33,-999.23"/>
<polygon fill="black" stroke="black" points="374.67,-1002.68 384.94,-1000.07 375.28,-995.71 374.67,-1002.68"/>
</g>
<!-- source_for_attribution -->
<g id="node7" class="node">
<title>source_for_attribution</title>
<polygon fill="none" stroke="black" points="8,-437.2 8,-460 308.25,-460 308.25,-437.2 8,-437.2"/>
<text xml:space="preserve" text-anchor="start" x="90.08" y="-445.4" font-family="Times,serif" font-weight="bold" font-size="14.00">source_for_attribution</text>
<polygon fill="none" stroke="black" points="8,-414.4 8,-437.2 31.5,-437.2 31.5,-414.4 8,-414.4"/>
<text xml:space="preserve" text-anchor="start" x="11" y="-420.2" font-family="Times,serif" font-size="14.00">🔑 </text>
<polygon fill="none" stroke="black" points="31.5,-414.4 31.5,-437.2 236.16,-437.2 236.16,-414.4 31.5,-414.4"/>
<text xml:space="preserve" text-anchor="start" x="34.5" y="-420.2" font-family="Times,serif" font-size="14.00">attribution_uuid</text>
<polygon fill="none" stroke="black" points="236.16,-414.4 236.16,-437.2 308.25,-437.2 308.25,-414.4 236.16,-414.4"/>
<text xml:space="preserve" text-anchor="start" x="239.16" y="-420.2" font-family="Times,serif" font-size="14.00">TEXT</text>
<polygon fill="none" stroke="black" points="8,-391.6 8,-414.4 31.5,-414.4 31.5,-391.6 8,-391.6"/>
<g id="a_node7_7"><a xlink:title="Mainly contains keys of external_attribution_source, but can also contain unknown values">
<polygon fill="none" stroke="black" points="31.5,-391.6 31.5,-414.4 236.16,-414.4 236.16,-391.6 31.5,-391.6"/>
<text xml:space="preserve" text-anchor="start" x="34.5" y="-397.4" font-family="Times,serif" font-size="14.00">external_attribution_source_key 📝</text>
</a>
</g>
<polygon fill="none" stroke="black" points="236.16,-391.6 236.16,-414.4 308.25,-414.4 308.25,-391.6 236.16,-391.6"/>
<text xml:space="preserve" text-anchor="start" x="239.16" y="-397.4" font-family="Times,serif" font-size="14.00">TEXT</text>
<polygon fill="none" stroke="black" points="8,-368.8 8,-391.6 31.5,-391.6 31.5,-368.8 8,-368.8"/>
<polygon fill="none" stroke="black" points="31.5,-368.8 31.5,-391.6 236.16,-391.6 236.16,-368.8 31.5,-368.8"/>
<text xml:space="preserve" text-anchor="start" x="34.5" y="-374.6" font-family="Times,serif" font-size="14.00">document_confidence</text>
<polygon fill="none" stroke="black" points="236.16,-368.8 236.16,-391.6 308.25,-391.6 308.25,-368.8 236.16,-368.8"/>
<text xml:space="preserve" text-anchor="start" x="239.16" y="-374.6" font-family="Times,serif" font-size="14.00">INTEGER?</text>
<polygon fill="none" stroke="black" points="8,-346 8,-368.8 31.5,-368.8 31.5,-346 8,-346"/>
<polygon fill="none" stroke="black" points="31.5,-346 31.5,-368.8 236.16,-368.8 236.16,-346 31.5,-346"/>
<text xml:space="preserve" text-anchor="start" x="34.5" y="-351.8" font-family="Times,serif" font-size="14.00">additional_name</text>
<polygon fill="none" stroke="black" points="236.16,-346 236.16,-368.8 308.25,-368.8 308.25,-346 236.16,-346"/>
<text xml:space="preserve" text-anchor="start" x="239.16" y="-351.8" font-family="Times,serif" font-size="14.00">TEXT?</text>
</g>
<!-- source_for_attribution&#45;&gt;attribution -->
<g id="edge9" class="edge">
<title>source_for_attribution:e&#45;&gt;attribution:w</title>
<path fill="none" stroke="black" d="M309.25,-425.8C439.48,-425.8 237.86,-706.03 348,-723"/>
<polygon fill="black" stroke="black" points="347.52,-726.47 357.74,-723.69 348.01,-719.49 347.52,-726.47"/>
</g>
<!-- source_for_attribution&#45;&gt;external_attribution_source -->
<g id="edge10" class="edge">
<title>source_for_attribution:e&#45;&gt;external_attribution_source:w</title>
<path fill="none" stroke="black" stroke-dasharray="5,2" d="M309.25,-403C360.81,-403 331.1,-222.02 352.25,-175 361.35,-154.77 362.24,-135.38 377.78,-129.56"/>
<polygon fill="black" stroke="black" points="377.99,-133.07 387.31,-128.04 376.88,-126.16 377.99,-133.07"/>
</g>
</g>
</svg>
