<?xml version="1.0" encoding="UTF-8" standalone="no"?>
<!DOCTYPE svg PUBLIC "-//W3C//DTD SVG 1.1//EN"
 "http://www.w3.org/Graphics/SVG/1.1/DTD/svg11.dtd">
<!-- Generated by graphviz version 14.1.1 (20251213.1925)
 -->
<!-- Title: g Pages: 1 -->
<svg width="694pt" height="1020pt"
 viewBox="0.00 0.00 694.00 1020.00" xmlns="http://www.w3.org/2000/svg" xmlns:xlink="http://www.w3.org/1999/xlink">
<g id="graph0" class="graph" transform="scale(1 1) rotate(0) translate(4 1016)">
<title>g</title>
<polygon fill="white" stroke="none" points="-4,4 -4,-1016 690.14,-1016 690.14,4 -4,4"/>
<text xml:space="preserve" text-anchor="middle" x="343.07" y="-31" font-family="Times,serif" font-size="10.00">Open the SVG in a browser to see tooltips on comments 📝</text>
<text xml:space="preserve" text-anchor="middle" x="343.07" y="-19" font-family="Times,serif" font-size="10.00">🔑: Primary key</text>
<text xml:space="preserve" text-anchor="middle" x="343.07" y="-7" font-family="Times,serif" font-size="10.00">🔧: Generated column</text>
<!-- frequent_license -->
<g id="node1" class="node">
<title>frequent_license</title>
<polygon fill="none" stroke="black" points="77.01,-285.2 77.01,-308 239.24,-308 239.24,-285.2 77.01,-285.2"/>
<text xml:space="preserve" text-anchor="start" x="109.13" y="-293.4" font-family="Times,serif" font-weight="bold" font-size="14.00">frequent_license</text>
<polygon fill="none" stroke="black" points="77.01,-262.4 77.01,-285.2 100.51,-285.2 100.51,-262.4 77.01,-262.4"/>
<text xml:space="preserve" text-anchor="start" x="80.01" y="-269.6" font-family="Times,serif" font-size="14.00">🔑 </text>
<polygon fill="none" stroke="black" points="100.51,-262.4 100.51,-285.2 173.37,-285.2 173.37,-262.4 100.51,-262.4"/>
<text xml:space="preserve" text-anchor="start" x="103.51" y="-269.6" font-family="Times,serif" font-size="14.00">id</text>
<polygon fill="none" stroke="black" points="173.37,-262.4 173.37,-285.2 239.24,-285.2 239.24,-262.4 173.37,-262.4"/>
<text xml:space="preserve" text-anchor="start" x="176.37" y="-269.6" font-family="Times,serif" font-size="14.00">INTEGER</text>
<polygon fill="none" stroke="black" points="77.01,-239.6 77.01,-262.4 100.51,-262.4 100.51,-239.6 77.01,-239.6"/>
<polygon fill="none" stroke="black" points="100.51,-239.6 100.51,-262.4 173.37,-262.4 173.37,-239.6 100.51,-239.6"/>
<text xml:space="preserve" text-anchor="start" x="103.51" y="-246.8" font-family="Times,serif" font-size="14.00">short_name</text>
<polygon fill="none" stroke="black" points="173.37,-239.6 173.37,-262.4 239.24,-262.4 239.24,-239.6 173.37,-239.6"/>
<text xml:space="preserve" text-anchor="start" x="176.37" y="-246.8" font-family="Times,serif" font-size="14.00">TEXT</text>
<polygon fill="none" stroke="black" points="77.01,-216.8 77.01,-239.6 100.51,-239.6 100.51,-216.8 77.01,-216.8"/>
<polygon fill="none" stroke="black" points="100.51,-216.8 100.51,-239.6 173.37,-239.6 173.37,-216.8 100.51,-216.8"/>
<text xml:space="preserve" text-anchor="start" x="103.51" y="-224" font-family="Times,serif" font-size="14.00">full_name</text>
<polygon fill="none" stroke="black" points="173.37,-216.8 173.37,-239.6 239.24,-239.6 239.24,-216.8 173.37,-216.8"/>
<text xml:space="preserve" text-anchor="start" x="176.37" y="-224" font-family="Times,serif" font-size="14.00">TEXT</text>
<polygon fill="none" stroke="black" points="77.01,-194 77.01,-216.8 100.51,-216.8 100.51,-194 77.01,-194"/>
<polygon fill="none" stroke="black" points="100.51,-194 100.51,-216.8 173.37,-216.8 173.37,-194 100.51,-194"/>
<text xml:space="preserve" text-anchor="start" x="103.51" y="-201.2" font-family="Times,serif" font-size="14.00">license_text</text>
<polygon fill="none" stroke="black" points="173.37,-194 173.37,-216.8 239.24,-216.8 239.24,-194 173.37,-194"/>
<text xml:space="preserve" text-anchor="start" x="176.37" y="-201.2" font-family="Times,serif" font-size="14.00">TEXT?</text>
</g>
<!-- resource_to_attribution -->
<g id="node2" class="node">
<title>resource_to_attribution</title>
<polygon fill="none" stroke="black" points="38.31,-850.8 38.31,-873.6 277.94,-873.6 277.94,-850.8 38.31,-850.8"/>
<text xml:space="preserve" text-anchor="start" x="86.97" y="-859" font-family="Times,serif" font-weight="bold" font-size="14.00">resource_to_attribution</text>
<polygon fill="none" stroke="black" points="38.31,-828 38.31,-850.8 61.81,-850.8 61.81,-828 38.31,-828"/>
<text xml:space="preserve" text-anchor="start" x="41.31" y="-835.2" font-family="Times,serif" font-size="14.00">🔑 </text>
<polygon fill="none" stroke="black" points="61.81,-828 61.81,-850.8 212.06,-850.8 212.06,-828 61.81,-828"/>
<text xml:space="preserve" text-anchor="start" x="64.81" y="-835.2" font-family="Times,serif" font-size="14.00">resource_id</text>
<polygon fill="none" stroke="black" points="212.06,-828 212.06,-850.8 277.94,-850.8 277.94,-828 212.06,-828"/>
<text xml:space="preserve" text-anchor="start" x="215.06" y="-835.2" font-family="Times,serif" font-size="14.00">INTEGER</text>
<polygon fill="none" stroke="black" points="38.31,-805.2 38.31,-828 61.81,-828 61.81,-805.2 38.31,-805.2"/>
<text xml:space="preserve" text-anchor="start" x="41.31" y="-812.4" font-family="Times,serif" font-size="14.00">🔑 </text>
<polygon fill="none" stroke="black" points="61.81,-805.2 61.81,-828 212.06,-828 212.06,-805.2 61.81,-805.2"/>
<text xml:space="preserve" text-anchor="start" x="64.81" y="-812.4" font-family="Times,serif" font-size="14.00">attribution_uuid</text>
<polygon fill="none" stroke="black" points="212.06,-805.2 212.06,-828 277.94,-828 277.94,-805.2 212.06,-805.2"/>
<text xml:space="preserve" text-anchor="start" x="215.06" y="-812.4" font-family="Times,serif" font-size="14.00">TEXT</text>
<polygon fill="none" stroke="black" points="38.31,-782.4 38.31,-805.2 61.81,-805.2 61.81,-782.4 38.31,-782.4"/>
<g id="a_node2_0"><a xlink:title="Denormalized data for faster checking if a resource has manual/external attribution">
<polygon fill="none" stroke="black" points="61.81,-782.4 61.81,-805.2 212.06,-805.2 212.06,-782.4 61.81,-782.4"/>
<text xml:space="preserve" text-anchor="start" x="64.81" y="-789.6" font-family="Times,serif" font-size="14.00">attribution_is_external 📝</text>
</a>
</g>
<polygon fill="none" stroke="black" points="212.06,-782.4 212.06,-805.2 277.94,-805.2 277.94,-782.4 212.06,-782.4"/>
<text xml:space="preserve" text-anchor="start" x="215.06" y="-789.6" font-family="Times,serif" font-size="14.00">INTEGER</text>
</g>
<!-- resource -->
<g id="node5" class="node">
<title>resource</title>
<polygon fill="none" stroke="black" points="387.45,-967.2 387.45,-990 630.57,-990 630.57,-967.2 387.45,-967.2"/>
<text xml:space="preserve" text-anchor="start" x="483.36" y="-975.4" font-family="Times,serif" font-weight="bold" font-size="14.00">resource</text>
<polygon fill="none" stroke="black" points="387.45,-944.4 387.45,-967.2 410.95,-967.2 410.95,-944.4 387.45,-944.4"/>
<text xml:space="preserve" text-anchor="start" x="390.45" y="-951.6" font-family="Times,serif" font-size="14.00">🔑 </text>
<polygon fill="none" stroke="black" points="410.95,-944.4 410.95,-967.2 558.48,-967.2 558.48,-944.4 410.95,-944.4"/>
<text xml:space="preserve" text-anchor="start" x="413.95" y="-951.6" font-family="Times,serif" font-size="14.00">id</text>
<polygon fill="none" stroke="black" points="558.48,-944.4 558.48,-967.2 630.57,-967.2 630.57,-944.4 558.48,-944.4"/>
<text xml:space="preserve" text-anchor="start" x="561.48" y="-951.6" font-family="Times,serif" font-size="14.00">INTEGER</text>
<polygon fill="none" stroke="black" points="387.45,-921.6 387.45,-944.4 410.95,-944.4 410.95,-921.6 387.45,-921.6"/>
<g id="a_node5_1"><a xlink:title="Without trailing slash. The path of the root resource is the empty string">
<polygon fill="none" stroke="black" points="410.95,-921.6 410.95,-944.4 558.48,-944.4 558.48,-921.6 410.95,-921.6"/>
<text xml:space="preserve" text-anchor="start" x="413.95" y="-928.8" font-family="Times,serif" font-size="14.00">path 📝</text>
</a>
</g>
<polygon fill="none" stroke="black" points="558.48,-921.6 558.48,-944.4 630.57,-944.4 630.57,-921.6 558.48,-921.6"/>
<text xml:space="preserve" text-anchor="start" x="561.48" y="-928.8" font-family="Times,serif" font-size="14.00">TEXT</text>
<polygon fill="none" stroke="black" points="387.45,-898.8 387.45,-921.6 410.95,-921.6 410.95,-898.8 387.45,-898.8"/>
<g id="a_node5_2"><a xlink:title="The name of the root resource is the empty string">
<polygon fill="none" stroke="black" points="410.95,-898.8 410.95,-921.6 558.48,-921.6 558.48,-898.8 410.95,-898.8"/>
<text xml:space="preserve" text-anchor="start" x="413.95" y="-906" font-family="Times,serif" font-size="14.00">name 📝</text>
</a>
</g>
<polygon fill="none" stroke="black" points="558.48,-898.8 558.48,-921.6 630.57,-921.6 630.57,-898.8 558.48,-898.8"/>
<text xml:space="preserve" text-anchor="start" x="561.48" y="-906" font-family="Times,serif" font-size="14.00">TEXT</text>
<polygon fill="none" stroke="black" points="387.45,-876 387.45,-898.8 410.95,-898.8 410.95,-876 387.45,-876"/>
<polygon fill="none" stroke="black" points="410.95,-876 410.95,-898.8 558.48,-898.8 558.48,-876 410.95,-876"/>
<text xml:space="preserve" text-anchor="start" x="413.95" y="-883.2" font-family="Times,serif" font-size="14.00">parent_id</text>
<polygon fill="none" stroke="black" points="558.48,-876 558.48,-898.8 630.57,-898.8 630.57,-876 558.48,-876"/>
<text xml:space="preserve" text-anchor="start" x="561.48" y="-883.2" font-family="Times,serif" font-size="14.00">INTEGER?</text>
<polygon fill="none" stroke="black" points="387.45,-853.2 387.45,-876 410.95,-876 410.95,-853.2 387.45,-853.2"/>
<polygon fill="none" stroke="black" points="410.95,-853.2 410.95,-876 558.48,-876 558.48,-853.2 410.95,-853.2"/>
<text xml:space="preserve" text-anchor="start" x="413.95" y="-860.4" font-family="Times,serif" font-size="14.00">is_attribution_breakpoint</text>
<polygon fill="none" stroke="black" points="558.48,-853.2 558.48,-876 630.57,-876 630.57,-853.2 558.48,-853.2"/>
<text xml:space="preserve" text-anchor="start" x="561.48" y="-860.4" font-family="Times,serif" font-size="14.00">INTEGER</text>
<polygon fill="none" stroke="black" points="387.45,-830.4 387.45,-853.2 410.95,-853.2 410.95,-830.4 387.45,-830.4"/>
<polygon fill="none" stroke="black" points="410.95,-830.4 410.95,-853.2 558.48,-853.2 558.48,-830.4 410.95,-830.4"/>
<text xml:space="preserve" text-anchor="start" x="413.95" y="-837.6" font-family="Times,serif" font-size="14.00">is_file</text>
<polygon fill="none" stroke="black" points="558.48,-830.4 558.48,-853.2 630.57,-853.2 630.57,-830.4 558.48,-830.4"/>
<text xml:space="preserve" text-anchor="start" x="561.48" y="-837.6" font-family="Times,serif" font-size="14.00">INTEGER</text>
<polygon fill="none" stroke="black" points="387.45,-807.6 387.45,-830.4 410.95,-830.4 410.95,-807.6 387.45,-807.6"/>
<g id="a_node5_3"><a xlink:title="Is a directory or in files_with_children">
<polygon fill="none" stroke="black" points="410.95,-807.6 410.95,-830.4 558.48,-830.4 558.48,-807.6 410.95,-807.6"/>
<text xml:space="preserve" text-anchor="start" x="413.95" y="-814.8" font-family="Times,serif" font-size="14.00">can_have_children 📝</text>
</a>
</g>
<polygon fill="none" stroke="black" points="558.48,-807.6 558.48,-830.4 630.57,-830.4 630.57,-807.6 558.48,-807.6"/>
<text xml:space="preserve" text-anchor="start" x="561.48" y="-814.8" font-family="Times,serif" font-size="14.00">INTEGER</text>
<polygon fill="none" stroke="black" points="387.45,-784.8 387.45,-807.6 410.95,-807.6 410.95,-784.8 387.45,-784.8"/>
<g id="a_node5_4"><a xlink:title="The highest id of a descendant of this resource. As the resources are numbered depth&#45;first, this enables us to identify the children of resource R by checking if child.id is between R.id and R.max_descendant_id, which is very fast. See https://en.wikipedia.org/wiki/Nested_set_model">
<polygon fill="none" stroke="black" points="410.95,-784.8 410.95,-807.6 558.48,-807.6 558.48,-784.8 410.95,-784.8"/>
<text xml:space="preserve" text-anchor="start" x="413.95" y="-792" font-family="Times,serif" font-size="14.00">max_descendant_id 📝</text>
</a>
</g>
<polygon fill="none" stroke="black" points="558.48,-784.8 558.48,-807.6 630.57,-807.6 630.57,-784.8 558.48,-784.8"/>
<text xml:space="preserve" text-anchor="start" x="561.48" y="-792" font-family="Times,serif" font-size="14.00">INTEGER</text>
<polygon fill="none" stroke="black" points="387.45,-762 387.45,-784.8 410.95,-784.8 410.95,-762 387.45,-762"/>
<text xml:space="preserve" text-anchor="start" x="390.45" y="-769.2" font-family="Times,serif" font-size="14.00">🔧 </text>
<polygon fill="none" stroke="black" points="410.95,-762 410.95,-784.8 558.48,-784.8 558.48,-762 410.95,-762"/>
<text xml:space="preserve" text-anchor="start" x="413.95" y="-769.2" font-family="Times,serif" font-size="14.00">sort_key</text>
<polygon fill="none" stroke="black" points="558.48,-762 558.48,-784.8 630.57,-784.8 630.57,-762 558.48,-762"/>
<text xml:space="preserve" text-anchor="start" x="561.48" y="-769.2" font-family="Times,serif" font-size="14.00">TEXT</text>
</g>
<!-- resource_to_attribution&#45;&gt;resource -->
<g id="edge2" class="edge">
<title>resource_to_attribution:e&#45;&gt;resource:w</title>
<path fill="none" stroke="black" d="M278.94,-839.4C345.23,-839.4 319.57,-942.56 375.1,-954.65"/>
<polygon fill="black" stroke="black" points="374.64,-958.12 384.94,-955.65 375.35,-951.16 374.64,-958.12"/>
</g>
<!-- attribution -->
<g id="node6" class="node">
<title>attribution</title>
<g id="a_node6_5"><a xlink:title="External attributions (UI: &#39;signals&#39;) and manual attributions (UI: &#39;attributions&#39;)">
<polygon fill="none" stroke="black" points="360.25,-712.8 360.25,-735.6 657.77,-735.6 657.77,-712.8 360.25,-712.8"/>
<text xml:space="preserve" text-anchor="start" x="467.59" y="-721" font-family="Times,serif" font-weight="bold" font-size="14.00">attribution 📝</text>
</a>
</g>
<polygon fill="none" stroke="black" points="360.25,-690 360.25,-712.8 383.75,-712.8 383.75,-690 360.25,-690"/>
<text xml:space="preserve" text-anchor="start" x="363.25" y="-697.2" font-family="Times,serif" font-size="14.00">🔑 </text>
<polygon fill="none" stroke="black" points="383.75,-690 383.75,-712.8 585.68,-712.8 585.68,-690 383.75,-690"/>
<text xml:space="preserve" text-anchor="start" x="386.75" y="-697.2" font-family="Times,serif" font-size="14.00">uuid</text>
<polygon fill="none" stroke="black" points="585.68,-690 585.68,-712.8 657.77,-712.8 657.77,-690 585.68,-690"/>
<text xml:space="preserve" text-anchor="start" x="588.68" y="-697.2" font-family="Times,serif" font-size="14.00">TEXT</text>
<polygon fill="none" stroke="black" points="360.25,-667.2 360.25,-690 383.75,-690 383.75,-667.2 360.25,-667.2"/>
<g id="a_node6_6"><a xlink:title="All of the attribution as JSON">
<polygon fill="none" stroke="black" points="383.75,-667.2 383.75,-690 585.68,-690 585.68,-667.2 383.75,-667.2"/>
<text xml:space="preserve" text-anchor="start" x="386.75" y="-674.4" font-family="Times,serif" font-size="14.00">data 📝</text>
</a>
</g>
<polygon fill="none" stroke="black" points="585.68,-667.2 585.68,-690 657.77,-690 657.77,-667.2 585.68,-667.2"/>
<text xml:space="preserve" text-anchor="start" x="588.68" y="-674.4" font-family="Times,serif" font-size="14.00">TEXT</text>
<polygon fill="none" stroke="black" points="360.25,-644.4 360.25,-667.2 383.75,-667.2 383.75,-644.4 360.25,-644.4"/>
<polygon fill="none" stroke="black" points="383.75,-644.4 383.75,-667.2 585.68,-667.2 585.68,-644.4 383.75,-644.4"/>
<text xml:space="preserve" text-anchor="start" x="386.75" y="-651.6" font-family="Times,serif" font-size="14.00">is_external</text>
<polygon fill="none" stroke="black" points="585.68,-644.4 585.68,-667.2 657.77,-667.2 657.77,-644.4 585.68,-644.4"/>
<text xml:space="preserve" text-anchor="start" x="588.68" y="-651.6" font-family="Times,serif" font-size="14.00">INTEGER</text>
<polygon fill="none" stroke="black" points="360.25,-621.6 360.25,-644.4 383.75,-644.4 383.75,-621.6 360.25,-621.6"/>
<polygon fill="none" stroke="black" points="383.75,-621.6 383.75,-644.4 585.68,-644.4 585.68,-621.6 383.75,-621.6"/>
<text xml:space="preserve" text-anchor="start" x="386.75" y="-628.8" font-family="Times,serif" font-size="14.00">is_resolved</text>
<polygon fill="none" stroke="black" points="585.68,-621.6 585.68,-644.4 657.77,-644.4 657.77,-621.6 585.68,-621.6"/>
<text xml:space="preserve" text-anchor="start" x="588.68" y="-628.8" font-family="Times,serif" font-size="14.00">INTEGER</text>
<polygon fill="none" stroke="black" points="360.25,-598.8 360.25,-621.6 383.75,-621.6 383.75,-598.8 360.25,-598.8"/>
<text xml:space="preserve" text-anchor="start" x="363.25" y="-606" font-family="Times,serif" font-size="14.00">🔧 </text>
<polygon fill="none" stroke="black" points="383.75,-598.8 383.75,-621.6 585.68,-621.6 585.68,-598.8 383.75,-598.8"/>
<text xml:space="preserve" text-anchor="start" x="386.75" y="-606" font-family="Times,serif" font-size="14.00">pre_selected</text>
<polygon fill="none" stroke="black" points="585.68,-598.8 585.68,-621.6 657.77,-621.6 657.77,-598.8 585.68,-598.8"/>
<text xml:space="preserve" text-anchor="start" x="588.68" y="-606" font-family="Times,serif" font-size="14.00">INTEGER</text>
<polygon fill="none" stroke="black" points="360.25,-576 360.25,-598.8 383.75,-598.8 383.75,-576 360.25,-576"/>
<text xml:space="preserve" text-anchor="start" x="363.25" y="-583.2" font-family="Times,serif" font-size="14.00">🔧 </text>
<polygon fill="none" stroke="black" points="383.75,-576 383.75,-598.8 585.68,-598.8 585.68,-576 383.75,-576"/>
<text xml:space="preserve" text-anchor="start" x="386.75" y="-583.2" font-family="Times,serif" font-size="14.00">criticality</text>
<polygon fill="none" stroke="black" points="585.68,-576 585.68,-598.8 657.77,-598.8 657.77,-576 585.68,-576"/>
<text xml:space="preserve" text-anchor="start" x="588.68" y="-583.2" font-family="Times,serif" font-size="14.00">INTEGER?</text>
<polygon fill="none" stroke="black" points="360.25,-553.2 360.25,-576 383.75,-576 383.75,-553.2 360.25,-553.2"/>
<text xml:space="preserve" text-anchor="start" x="363.25" y="-560.4" font-family="Times,serif" font-size="14.00">🔧 </text>
<polygon fill="none" stroke="black" points="383.75,-553.2 383.75,-576 585.68,-576 585.68,-553.2 383.75,-553.2"/>
<text xml:space="preserve" text-anchor="start" x="386.75" y="-560.4" font-family="Times,serif" font-size="14.00">classification</text>
<polygon fill="none" stroke="black" points="585.68,-553.2 585.68,-576 657.77,-576 657.77,-553.2 585.68,-553.2"/>
<text xml:space="preserve" text-anchor="start" x="588.68" y="-560.4" font-family="Times,serif" font-size="14.00">INTEGER?</text>
<polygon fill="none" stroke="black" points="360.25,-530.4 360.25,-553.2 383.75,-553.2 383.75,-530.4 360.25,-530.4"/>
<text xml:space="preserve" text-anchor="start" x="363.25" y="-537.6" font-family="Times,serif" font-size="14.00">🔧 </text>
<polygon fill="none" stroke="black" points="383.75,-530.4 383.75,-553.2 585.68,-553.2 585.68,-530.4 383.75,-530.4"/>
<text xml:space="preserve" text-anchor="start" x="386.75" y="-537.6" font-family="Times,serif" font-size="14.00">first_party</text>
<polygon fill="none" stroke="black" points="585.68,-530.4 585.68,-553.2 657.77,-553.2 657.77,-530.4 585.68,-530.4"/>
<text xml:space="preserve" text-anchor="start" x="588.68" y="-537.6" font-family="Times,serif" font-size="14.00">INTEGER</text>
<polygon fill="none" stroke="black" points="360.25,-507.6 360.25,-530.4 383.75,-530.4 383.75,-507.6 360.25,-507.6"/>
<text xml:space="preserve" text-anchor="start" x="363.25" y="-514.8" font-family="Times,serif" font-size="14.00">🔧 </text>
<polygon fill="none" stroke="black" points="383.75,-507.6 383.75,-530.4 585.68,-530.4 585.68,-507.6 383.75,-507.6"/>
<text xml:space="preserve" text-anchor="start" x="386.75" y="-514.8" font-family="Times,serif" font-size="14.00">exclude_from_notice</text>
<polygon fill="none" stroke="black" points="585.68,-507.6 585.68,-530.4 657.77,-530.4 657.77,-507.6 585.68,-507.6"/>
<text xml:space="preserve" text-anchor="start" x="588.68" y="-514.8" font-family="Times,serif" font-size="14.00">INTEGER</text>
<polygon fill="none" stroke="black" points="360.25,-484.8 360.25,-507.6 383.75,-507.6 383.75,-484.8 360.25,-484.8"/>
<text xml:space="preserve" text-anchor="start" x="363.25" y="-492" font-family="Times,serif" font-size="14.00">🔧 </text>
<polygon fill="none" stroke="black" points="383.75,-484.8 383.75,-507.6 585.68,-507.6 585.68,-484.8 383.75,-484.8"/>
<text xml:space="preserve" text-anchor="start" x="386.75" y="-492" font-family="Times,serif" font-size="14.00">was_preferred</text>
<polygon fill="none" stroke="black" points="585.68,-484.8 585.68,-507.6 657.77,-507.6 657.77,-484.8 585.68,-484.8"/>
<text xml:space="preserve" text-anchor="start" x="588.68" y="-492" font-family="Times,serif" font-size="14.00">INTEGER</text>
<polygon fill="none" stroke="black" points="360.25,-462 360.25,-484.8 383.75,-484.8 383.75,-462 360.25,-462"/>
<text xml:space="preserve" text-anchor="start" x="363.25" y="-469.2" font-family="Times,serif" font-size="14.00">🔧 </text>
<polygon fill="none" stroke="black" points="383.75,-462 383.75,-484.8 585.68,-484.8 585.68,-462 383.75,-462"/>
<text xml:space="preserve" text-anchor="start" x="386.75" y="-469.2" font-family="Times,serif" font-size="14.00">copyright</text>
<polygon fill="none" stroke="black" points="585.68,-462 585.68,-484.8 657.77,-484.8 657.77,-462 585.68,-462"/>
<text xml:space="preserve" text-anchor="start" x="588.68" y="-469.2" font-family="Times,serif" font-size="14.00">TEXT?</text>
<polygon fill="none" stroke="black" points="360.25,-439.2 360.25,-462 383.75,-462 383.75,-439.2 360.25,-439.2"/>
<text xml:space="preserve" text-anchor="start" x="363.25" y="-446.4" font-family="Times,serif" font-size="14.00">🔧 </text>
<polygon fill="none" stroke="black" points="383.75,-439.2 383.75,-462 585.68,-462 585.68,-439.2 383.75,-439.2"/>
<text xml:space="preserve" text-anchor="start" x="386.75" y="-446.4" font-family="Times,serif" font-size="14.00">license_name</text>
<polygon fill="none" stroke="black" points="585.68,-439.2 585.68,-462 657.77,-462 657.77,-439.2 585.68,-439.2"/>
<text xml:space="preserve" text-anchor="start" x="588.68" y="-446.4" font-family="Times,serif" font-size="14.00">TEXT?</text>
<polygon fill="none" stroke="black" points="360.25,-416.4 360.25,-439.2 383.75,-439.2 383.75,-416.4 360.25,-416.4"/>
<text xml:space="preserve" text-anchor="start" x="363.25" y="-423.6" font-family="Times,serif" font-size="14.00">🔧 </text>
<polygon fill="none" stroke="black" points="383.75,-416.4 383.75,-439.2 585.68,-439.2 585.68,-416.4 383.75,-416.4"/>
<text xml:space="preserve" text-anchor="start" x="386.75" y="-423.6" font-family="Times,serif" font-size="14.00">url</text>
<polygon fill="none" stroke="black" points="585.68,-416.4 585.68,-439.2 657.77,-439.2 657.77,-416.4 585.68,-416.4"/>
<text xml:space="preserve" text-anchor="start" x="588.68" y="-423.6" font-family="Times,serif" font-size="14.00">TEXT?</text>
<polygon fill="none" stroke="black" points="360.25,-393.6 360.25,-416.4 383.75,-416.4 383.75,-393.6 360.25,-393.6"/>
<text xml:space="preserve" text-anchor="start" x="363.25" y="-400.8" font-family="Times,serif" font-size="14.00">🔧 </text>
<polygon fill="none" stroke="black" points="383.75,-393.6 383.75,-416.4 585.68,-416.4 585.68,-393.6 383.75,-393.6"/>
<text xml:space="preserve" text-anchor="start" x="386.75" y="-400.8" font-family="Times,serif" font-size="14.00">package_name</text>
<polygon fill="none" stroke="black" points="585.68,-393.6 585.68,-416.4 657.77,-416.4 657.77,-393.6 585.68,-393.6"/>
<text xml:space="preserve" text-anchor="start" x="588.68" y="-400.8" font-family="Times,serif" font-size="14.00">TEXT?</text>
<polygon fill="none" stroke="black" points="360.25,-370.8 360.25,-393.6 383.75,-393.6 383.75,-370.8 360.25,-370.8"/>
<text xml:space="preserve" text-anchor="start" x="363.25" y="-378" font-family="Times,serif" font-size="14.00">🔧 </text>
<polygon fill="none" stroke="black" points="383.75,-370.8 383.75,-393.6 585.68,-393.6 585.68,-370.8 383.75,-370.8"/>
<text xml:space="preserve" text-anchor="start" x="386.75" y="-378" font-family="Times,serif" font-size="14.00">package_namespace</text>
<polygon fill="none" stroke="black" points="585.68,-370.8 585.68,-393.6 657.77,-393.6 657.77,-370.8 585.68,-370.8"/>
<text xml:space="preserve" text-anchor="start" x="588.68" y="-378" font-family="Times,serif" font-size="14.00">TEXT?</text>
<polygon fill="none" stroke="black" points="360.25,-348 360.25,-370.8 383.75,-370.8 383.75,-348 360.25,-348"/>
<text xml:space="preserve" text-anchor="start" x="363.25" y="-355.2" font-family="Times,serif" font-size="14.00">🔧 </text>
<polygon fill="none" stroke="black" points="383.75,-348 383.75,-370.8 585.68,-370.8 585.68,-348 383.75,-348"/>
<text xml:space="preserve" text-anchor="start" x="386.75" y="-355.2" font-family="Times,serif" font-size="14.00">package_version</text>
<polygon fill="none" stroke="black" points="585.68,-348 585.68,-370.8 657.77,-370.8 657.77,-348 585.68,-348"/>
<text xml:space="preserve" text-anchor="start" x="588.68" y="-355.2" font-family="Times,serif" font-size="14.00">TEXT?</text>
<polygon fill="none" stroke="black" points="360.25,-325.2 360.25,-348 383.75,-348 383.75,-325.2 360.25,-325.2"/>
<text xml:space="preserve" text-anchor="start" x="363.25" y="-332.4" font-family="Times,serif" font-size="14.00">🔧 </text>
<polygon fill="none" stroke="black" points="383.75,-325.2 383.75,-348 585.68,-348 585.68,-325.2 383.75,-325.2"/>
<text xml:space="preserve" text-anchor="start" x="386.75" y="-332.4" font-family="Times,serif" font-size="14.00">package_type</text>
<polygon fill="none" stroke="black" points="585.68,-325.2 585.68,-348 657.77,-348 657.77,-325.2 585.68,-325.2"/>
<text xml:space="preserve" text-anchor="start" x="588.68" y="-332.4" font-family="Times,serif" font-size="14.00">TEXT?</text>
<polygon fill="none" stroke="black" points="360.25,-302.4 360.25,-325.2 383.75,-325.2 383.75,-302.4 360.25,-302.4"/>
<text xml:space="preserve" text-anchor="start" x="363.25" y="-309.6" font-family="Times,serif" font-size="14.00">🔧 </text>
<polygon fill="none" stroke="black" points="383.75,-302.4 383.75,-325.2 585.68,-325.2 585.68,-302.4 383.75,-302.4"/>
<text xml:space="preserve" text-anchor="start" x="386.75" y="-309.6" font-family="Times,serif" font-size="14.00">attribution_confidence</text>
<polygon fill="none" stroke="black" points="585.68,-302.4 585.68,-325.2 657.77,-325.2 657.77,-302.4 585.68,-302.4"/>
<text xml:space="preserve" text-anchor="start" x="588.68" y="-309.6" font-family="Times,serif" font-size="14.00">INTEGER?</text>
<polygon fill="none" stroke="black" points="360.25,-279.6 360.25,-302.4 383.75,-302.4 383.75,-279.6 360.25,-279.6"/>
<text xml:space="preserve" text-anchor="start" x="363.25" y="-286.8" font-family="Times,serif" font-size="14.00">🔧 </text>
<polygon fill="none" stroke="black" points="383.75,-279.6 383.75,-302.4 585.68,-302.4 585.68,-279.6 383.75,-279.6"/>
<text xml:space="preserve" text-anchor="start" x="386.75" y="-286.8" font-family="Times,serif" font-size="14.00">follow_up</text>
<polygon fill="none" stroke="black" points="585.68,-279.6 585.68,-302.4 657.77,-302.4 657.77,-279.6 585.68,-279.6"/>
<text xml:space="preserve" text-anchor="start" x="588.68" y="-286.8" font-family="Times,serif" font-size="14.00">INTEGER</text>
<polygon fill="none" stroke="black" points="360.25,-256.8 360.25,-279.6 383.75,-279.6 383.75,-256.8 360.25,-256.8"/>
<text xml:space="preserve" text-anchor="start" x="363.25" y="-264" font-family="Times,serif" font-size="14.00">🔧 </text>
<polygon fill="none" stroke="black" points="383.75,-256.8 383.75,-279.6 585.68,-279.6 585.68,-256.8 383.75,-256.8"/>
<text xml:space="preserve" text-anchor="start" x="386.75" y="-264" font-family="Times,serif" font-size="14.00">needs_review</text>
<polygon fill="none" stroke="black" points="585.68,-256.8 585.68,-279.6 657.77,-279.6 657.77,-256.8 585.68,-256.8"/>
<text xml:space="preserve" text-anchor="start" x="588.68" y="-264" font-family="Times,serif" font-size="14.00">INTEGER</text>
<polygon fill="none" stroke="black" points="360.25,-234 360.25,-256.8 383.75,-256.8 383.75,-234 360.25,-234"/>
<text xml:space="preserve" text-anchor="start" x="363.25" y="-241.2" font-family="Times,serif" font-size="14.00">🔧 </text>
<polygon fill="none" stroke="black" points="383.75,-234 383.75,-256.8 585.68,-256.8 585.68,-234 383.75,-234"/>
<text xml:space="preserve" text-anchor="start" x="386.75" y="-241.2" font-family="Times,serif" font-size="14.00">preferred</text>
<polygon fill="none" stroke="black" points="585.68,-234 585.68,-256.8 657.77,-256.8 657.77,-234 585.68,-234"/>
<text xml:space="preserve" text-anchor="start" x="588.68" y="-241.2" font-family="Times,serif" font-size="14.00">INTEGER</text>
<polygon fill="none" stroke="black" points="360.25,-211.2 360.25,-234 383.75,-234 383.75,-211.2 360.25,-211.2"/>
<text xml:space="preserve" text-anchor="start" x="363.25" y="-218.4" font-family="Times,serif" font-size="14.00">🔧 </text>
<polygon fill="none" stroke="black" points="383.75,-211.2 383.75,-234 585.68,-234 585.68,-211.2 383.75,-211.2"/>
<text xml:space="preserve" text-anchor="start" x="386.75" y="-218.4" font-family="Times,serif" font-size="14.00">original_attribution_was_preferred</text>
<polygon fill="none" stroke="black" points="585.68,-211.2 585.68,-234 657.77,-234 657.77,-211.2 585.68,-211.2"/>
<text xml:space="preserve" text-anchor="start" x="588.68" y="-218.4" font-family="Times,serif" font-size="14.00">INTEGER</text>
<polygon fill="none" stroke="black" points="360.25,-188.4 360.25,-211.2 383.75,-211.2 383.75,-188.4 360.25,-188.4"/>
<text xml:space="preserve" text-anchor="start" x="363.25" y="-195.6" font-family="Times,serif" font-size="14.00">🔧 </text>
<polygon fill="none" stroke="black" points="383.75,-188.4 383.75,-211.2 585.68,-211.2 585.68,-188.4 383.75,-188.4"/>
<text xml:space="preserve" text-anchor="start" x="386.75" y="-195.6" font-family="Times,serif" font-size="14.00">comment</text>
<polygon fill="none" stroke="black" points="585.68,-188.4 585.68,-211.2 657.77,-211.2 657.77,-188.4 585.68,-188.4"/>
<text xml:space="preserve" text-anchor="start" x="588.68" y="-195.6" font-family="Times,serif" font-size="14.00">TEXT?</text>
</g>
<!-- resource_to_attribution&#45;&gt;attribution -->
<g id="edge1" class="edge">
<title>resource_to_attribution:e&#45;&gt;attribution:w</title>
<path fill="none" stroke="black" d="M278.94,-816.6C337.08,-816.6 302.42,-716.61 347.88,-702.94"/>
<polygon fill="black" stroke="black" points="348.31,-706.42 357.75,-701.6 347.37,-699.48 348.31,-706.42"/>
</g>
<!-- source_for_attribution -->
<g id="node3" class="node">
<title>source_for_attribution</title>
<polygon fill="none" stroke="black" points="8,-425.2 8,-448 308.25,-448 308.25,-425.2 8,-425.2"/>
<text xml:space="preserve" text-anchor="start" x="90.08" y="-433.4" font-family="Times,serif" font-weight="bold" font-size="14.00">source_for_attribution</text>
<polygon fill="none" stroke="black" points="8,-402.4 8,-425.2 31.5,-425.2 31.5,-402.4 8,-402.4"/>
<text xml:space="preserve" text-anchor="start" x="11" y="-409.6" font-family="Times,serif" font-size="14.00">🔑 </text>
<polygon fill="none" stroke="black" points="31.5,-402.4 31.5,-425.2 236.16,-425.2 236.16,-402.4 31.5,-402.4"/>
<text xml:space="preserve" text-anchor="start" x="34.5" y="-409.6" font-family="Times,serif" font-size="14.00">attribution_uuid</text>
<polygon fill="none" stroke="black" points="236.16,-402.4 236.16,-425.2 308.25,-425.2 308.25,-402.4 236.16,-402.4"/>
<text xml:space="preserve" text-anchor="start" x="239.16" y="-409.6" font-family="Times,serif" font-size="14.00">TEXT</text>
<polygon fill="none" stroke="black" points="8,-379.6 8,-402.4 31.5,-402.4 31.5,-379.6 8,-379.6"/>
<g id="a_node3_7"><a xlink:title="Mainly contains keys of external_attribution_source, but can also contain unknown values">
<polygon fill="none" stroke="black" points="31.5,-379.6 31.5,-402.4 236.16,-402.4 236.16,-379.6 31.5,-379.6"/>
<text xml:space="preserve" text-anchor="start" x="34.5" y="-386.8" font-family="Times,serif" font-size="14.00">external_attribution_source_key 📝</text>
</a>
</g>
<polygon fill="none" stroke="black" points="236.16,-379.6 236.16,-402.4 308.25,-402.4 308.25,-379.6 236.16,-379.6"/>
<text xml:space="preserve" text-anchor="start" x="239.16" y="-386.8" font-family="Times,serif" font-size="14.00">TEXT</text>
<polygon fill="none" stroke="black" points="8,-356.8 8,-379.6 31.5,-379.6 31.5,-356.8 8,-356.8"/>
<polygon fill="none" stroke="black" points="31.5,-356.8 31.5,-379.6 236.16,-379.6 236.16,-356.8 31.5,-356.8"/>
<text xml:space="preserve" text-anchor="start" x="34.5" y="-364" font-family="Times,serif" font-size="14.00">document_confidence</text>
<polygon fill="none" stroke="black" points="236.16,-356.8 236.16,-379.6 308.25,-379.6 308.25,-356.8 236.16,-356.8"/>
<text xml:space="preserve" text-anchor="start" x="239.16" y="-364" font-family="Times,serif" font-size="14.00">INTEGER?</text>
<polygon fill="none" stroke="black" points="8,-334 8,-356.8 31.5,-356.8 31.5,-334 8,-334"/>
<polygon fill="none" stroke="black" points="31.5,-334 31.5,-356.8 236.16,-356.8 236.16,-334 31.5,-334"/>
<text xml:space="preserve" text-anchor="start" x="34.5" y="-341.2" font-family="Times,serif" font-size="14.00">additional_name</text>
<polygon fill="none" stroke="black" points="236.16,-334 236.16,-356.8 308.25,-356.8 308.25,-334 236.16,-334"/>
<text xml:space="preserve" text-anchor="start" x="239.16" y="-341.2" font-family="Times,serif" font-size="14.00">TEXT?</text>
</g>
<!-- external_attribution_source -->
<g id="node4" class="node">
<title>external_attribution_source</title>
<polygon fill="none" stroke="black" points="389.8,-139.2 389.8,-162 628.22,-162 628.22,-139.2 389.8,-139.2"/>
<text xml:space="preserve" text-anchor="start" x="425.41" y="-147.4" font-family="Times,serif" font-weight="bold" font-size="14.00">external_attribution_source</text>
<polygon fill="none" stroke="black" points="389.8,-116.4 389.8,-139.2 413.3,-139.2 413.3,-116.4 389.8,-116.4"/>
<text xml:space="preserve" text-anchor="start" x="392.8" y="-123.6" font-family="Times,serif" font-size="14.00">🔑 </text>
<polygon fill="none" stroke="black" points="413.3,-116.4 413.3,-139.2 562.34,-139.2 562.34,-116.4 413.3,-116.4"/>
<text xml:space="preserve" text-anchor="start" x="416.3" y="-123.6" font-family="Times,serif" font-size="14.00">key</text>
<polygon fill="none" stroke="black" points="562.34,-116.4 562.34,-139.2 628.22,-139.2 628.22,-116.4 562.34,-116.4"/>
<text xml:space="preserve" text-anchor="start" x="565.34" y="-123.6" font-family="Times,serif" font-size="14.00">TEXT</text>
<polygon fill="none" stroke="black" points="389.8,-93.6 389.8,-116.4 413.3,-116.4 413.3,-93.6 389.8,-93.6"/>
<polygon fill="none" stroke="black" points="413.3,-93.6 413.3,-116.4 562.34,-116.4 562.34,-93.6 413.3,-93.6"/>
<text xml:space="preserve" text-anchor="start" x="416.3" y="-100.8" font-family="Times,serif" font-size="14.00">name</text>
<polygon fill="none" stroke="black" points="562.34,-93.6 562.34,-116.4 628.22,-116.4 628.22,-93.6 562.34,-93.6"/>
<text xml:space="preserve" text-anchor="start" x="565.34" y="-100.8" font-family="Times,serif" font-size="14.00">TEXT</text>
<polygon fill="none" stroke="black" points="389.8,-70.8 389.8,-93.6 413.3,-93.6 413.3,-70.8 389.8,-70.8"/>
<polygon fill="none" stroke="black" points="413.3,-70.8 413.3,-93.6 562.34,-93.6 562.34,-70.8 413.3,-70.8"/>
<text xml:space="preserve" text-anchor="start" x="416.3" y="-78" font-family="Times,serif" font-size="14.00">priority</text>
<polygon fill="none" stroke="black" points="562.34,-70.8 562.34,-93.6 628.22,-93.6 628.22,-70.8 562.34,-70.8"/>
<text xml:space="preserve" text-anchor="start" x="565.34" y="-78" font-family="Times,serif" font-size="14.00">INTEGER</text>
<polygon fill="none" stroke="black" points="389.8,-48 389.8,-70.8 413.3,-70.8 413.3,-48 389.8,-48"/>
<polygon fill="none" stroke="black" points="413.3,-48 413.3,-70.8 562.34,-70.8 562.34,-48 413.3,-48"/>
<text xml:space="preserve" text-anchor="start" x="416.3" y="-55.2" font-family="Times,serif" font-size="14.00">is_relevant_for_preferred</text>
<polygon fill="none" stroke="black" points="562.34,-48 562.34,-70.8 628.22,-70.8 628.22,-48 562.34,-48"/>
<text xml:space="preserve" text-anchor="start" x="565.34" y="-55.2" font-family="Times,serif" font-size="14.00">INTEGER</text>
</g>
<!-- source_for_attribution&#45;&gt;external_attribution_source -->
<g id="edge5" class="edge">
<title>source_for_attribution:e&#45;&gt;external_attribution_source:w</title>
<path fill="none" stroke="black" stroke-dasharray="5,2" d="M307.7,-330.2C310.71,-327.27 313.57,-324.21 316.25,-321 378.63,-246.44 294.78,-115.98 377.55,-105.65"/>
<polygon fill="black" stroke="black" points="377.51,-109.16 387.29,-105.09 377.11,-102.17 377.51,-109.16"/>
</g>
<!-- source_for_attribution&#45;&gt;attribution -->
<g id="edge3" class="edge">
<title>source_for_attribution:e&#45;&gt;attribution:w</title>
<path fill="none" stroke="black" d="M309.25,-413.8C434.93,-413.8 242.27,-683.71 348.06,-700.57"/>
<polygon fill="black" stroke="black" points="347.51,-704.04 357.74,-701.29 348.02,-697.06 347.51,-704.04"/>
</g>
<!-- resource&#45;&gt;resource -->
<g id="edge4" class="edge">
<title>resource:e&#45;&gt;resource:w</title>
<path fill="none" stroke="black" d="M630.57,-887.4C718.29,-932.73 718.29,-1012 509.01,-1012 307.9,-1012 300.05,-1000.92 377.58,-960.83"/>
<polygon fill="black" stroke="black" points="378.78,-964.15 386.1,-956.49 375.6,-957.91 378.78,-964.15"/>
</g>
</g>
</svg>
