<?xml version="1.0" encoding="UTF-8" standalone="no"?>
<!DOCTYPE svg PUBLIC "-//W3C//DTD SVG 1.1//EN"
 "http://www.w3.org/Graphics/SVG/1.1/DTD/svg11.dtd">
<!-- Generated by graphviz version 14.1.3 (20260303.0454)
 -->
<!-- Title: g Pages: 1 -->
<svg width="694pt" height="1220pt"
 viewBox="0.00 0.00 694.00 1220.00" xmlns="http://www.w3.org/2000/svg" xmlns:xlink="http://www.w3.org/1999/xlink">
<g id="graph0" class="graph" transform="scale(1 1) rotate(0) translate(4 1216)">
<title>g</title>
<polygon fill="white" stroke="none" points="-4,4 -4,-1216 690.14,-1216 690.14,4 -4,4"/>
<text xml:space="preserve" text-anchor="middle" x="343.07" y="-31" font-family="Times,serif" font-size="10.00">Open the SVG in a browser to see tooltips on comments 📝</text>
<text xml:space="preserve" text-anchor="middle" x="343.07" y="-19" font-family="Times,serif" font-size="10.00">🔑: Primary key</text>
<text xml:space="preserve" text-anchor="middle" x="343.07" y="-7" font-family="Times,serif" font-size="10.00">🔧: Generated column</text>
<!-- attribution -->
<g id="node1" class="node">
<title>attribution</title>
<g id="a_node1_0"><a xlink:title="External attributions (UI: &#39;signals&#39;) and manual attributions (UI: &#39;attributions&#39;)">
<polygon fill="none" stroke="black" points="360.25,-735.2 360.25,-758 657.77,-758 657.77,-735.2 360.25,-735.2"/>
<text xml:space="preserve" text-anchor="start" x="467.59" y="-743.4" font-family="Times,serif" font-weight="bold" font-size="14.00">attribution 📝</text>
</a>
</g>
<polygon fill="none" stroke="black" points="360.25,-712.4 360.25,-735.2 383.75,-735.2 383.75,-712.4 360.25,-712.4"/>
<text xml:space="preserve" text-anchor="start" x="363.25" y="-718.2" font-family="Times,serif" font-size="14.00">🔑 </text>
<polygon fill="none" stroke="black" points="383.75,-712.4 383.75,-735.2 585.68,-735.2 585.68,-712.4 383.75,-712.4"/>
<text xml:space="preserve" text-anchor="start" x="386.75" y="-718.2" font-family="Times,serif" font-size="14.00">uuid</text>
<polygon fill="none" stroke="black" points="585.68,-712.4 585.68,-735.2 657.77,-735.2 657.77,-712.4 585.68,-712.4"/>
<text xml:space="preserve" text-anchor="start" x="588.68" y="-718.2" font-family="Times,serif" font-size="14.00">TEXT</text>
<polygon fill="none" stroke="black" points="360.25,-689.6 360.25,-712.4 383.75,-712.4 383.75,-689.6 360.25,-689.6"/>
<g id="a_node1_1"><a xlink:title="All of the attribution as JSON">
<polygon fill="none" stroke="black" points="383.75,-689.6 383.75,-712.4 585.68,-712.4 585.68,-689.6 383.75,-689.6"/>
<text xml:space="preserve" text-anchor="start" x="386.75" y="-695.4" font-family="Times,serif" font-size="14.00">data 📝</text>
</a>
</g>
<polygon fill="none" stroke="black" points="585.68,-689.6 585.68,-712.4 657.77,-712.4 657.77,-689.6 585.68,-689.6"/>
<text xml:space="preserve" text-anchor="start" x="588.68" y="-695.4" font-family="Times,serif" font-size="14.00">TEXT</text>
<polygon fill="none" stroke="black" points="360.25,-666.8 360.25,-689.6 383.75,-689.6 383.75,-666.8 360.25,-666.8"/>
<polygon fill="none" stroke="black" points="383.75,-666.8 383.75,-689.6 585.68,-689.6 585.68,-666.8 383.75,-666.8"/>
<text xml:space="preserve" text-anchor="start" x="386.75" y="-672.6" font-family="Times,serif" font-size="14.00">is_external</text>
<polygon fill="none" stroke="black" points="585.68,-666.8 585.68,-689.6 657.77,-689.6 657.77,-666.8 585.68,-666.8"/>
<text xml:space="preserve" text-anchor="start" x="588.68" y="-672.6" font-family="Times,serif" font-size="14.00">INTEGER</text>
<polygon fill="none" stroke="black" points="360.25,-644 360.25,-666.8 383.75,-666.8 383.75,-644 360.25,-644"/>
<polygon fill="none" stroke="black" points="383.75,-644 383.75,-666.8 585.68,-666.8 585.68,-644 383.75,-644"/>
<text xml:space="preserve" text-anchor="start" x="386.75" y="-649.8" font-family="Times,serif" font-size="14.00">is_resolved</text>
<polygon fill="none" stroke="black" points="585.68,-644 585.68,-666.8 657.77,-666.8 657.77,-644 585.68,-644"/>
<text xml:space="preserve" text-anchor="start" x="588.68" y="-649.8" font-family="Times,serif" font-size="14.00">INTEGER</text>
<polygon fill="none" stroke="black" points="360.25,-621.2 360.25,-644 383.75,-644 383.75,-621.2 360.25,-621.2"/>
<text xml:space="preserve" text-anchor="start" x="363.25" y="-627" font-family="Times,serif" font-size="14.00">🔧 </text>
<polygon fill="none" stroke="black" points="383.75,-621.2 383.75,-644 585.68,-644 585.68,-621.2 383.75,-621.2"/>
<text xml:space="preserve" text-anchor="start" x="386.75" y="-627" font-family="Times,serif" font-size="14.00">pre_selected</text>
<polygon fill="none" stroke="black" points="585.68,-621.2 585.68,-644 657.77,-644 657.77,-621.2 585.68,-621.2"/>
<text xml:space="preserve" text-anchor="start" x="588.68" y="-627" font-family="Times,serif" font-size="14.00">INTEGER</text>
<polygon fill="none" stroke="black" points="360.25,-598.4 360.25,-621.2 383.75,-621.2 383.75,-598.4 360.25,-598.4"/>
<text xml:space="preserve" text-anchor="start" x="363.25" y="-604.2" font-family="Times,serif" font-size="14.00">🔧 </text>
<polygon fill="none" stroke="black" points="383.75,-598.4 383.75,-621.2 585.68,-621.2 585.68,-598.4 383.75,-598.4"/>
<text xml:space="preserve" text-anchor="start" x="386.75" y="-604.2" font-family="Times,serif" font-size="14.00">criticality</text>
<polygon fill="none" stroke="black" points="585.68,-598.4 585.68,-621.2 657.77,-621.2 657.77,-598.4 585.68,-598.4"/>
<text xml:space="preserve" text-anchor="start" x="588.68" y="-604.2" font-family="Times,serif" font-size="14.00">INTEGER?</text>
<polygon fill="none" stroke="black" points="360.25,-575.6 360.25,-598.4 383.75,-598.4 383.75,-575.6 360.25,-575.6"/>
<text xml:space="preserve" text-anchor="start" x="363.25" y="-581.4" font-family="Times,serif" font-size="14.00">🔧 </text>
<polygon fill="none" stroke="black" points="383.75,-575.6 383.75,-598.4 585.68,-598.4 585.68,-575.6 383.75,-575.6"/>
<text xml:space="preserve" text-anchor="start" x="386.75" y="-581.4" font-family="Times,serif" font-size="14.00">classification</text>
<polygon fill="none" stroke="black" points="585.68,-575.6 585.68,-598.4 657.77,-598.4 657.77,-575.6 585.68,-575.6"/>
<text xml:space="preserve" text-anchor="start" x="588.68" y="-581.4" font-family="Times,serif" font-size="14.00">INTEGER?</text>
<polygon fill="none" stroke="black" points="360.25,-552.8 360.25,-575.6 383.75,-575.6 383.75,-552.8 360.25,-552.8"/>
<text xml:space="preserve" text-anchor="start" x="363.25" y="-558.6" font-family="Times,serif" font-size="14.00">🔧 </text>
<polygon fill="none" stroke="black" points="383.75,-552.8 383.75,-575.6 585.68,-575.6 585.68,-552.8 383.75,-552.8"/>
<text xml:space="preserve" text-anchor="start" x="386.75" y="-558.6" font-family="Times,serif" font-size="14.00">first_party</text>
<polygon fill="none" stroke="black" points="585.68,-552.8 585.68,-575.6 657.77,-575.6 657.77,-552.8 585.68,-552.8"/>
<text xml:space="preserve" text-anchor="start" x="588.68" y="-558.6" font-family="Times,serif" font-size="14.00">INTEGER</text>
<polygon fill="none" stroke="black" points="360.25,-530 360.25,-552.8 383.75,-552.8 383.75,-530 360.25,-530"/>
<text xml:space="preserve" text-anchor="start" x="363.25" y="-535.8" font-family="Times,serif" font-size="14.00">🔧 </text>
<polygon fill="none" stroke="black" points="383.75,-530 383.75,-552.8 585.68,-552.8 585.68,-530 383.75,-530"/>
<text xml:space="preserve" text-anchor="start" x="386.75" y="-535.8" font-family="Times,serif" font-size="14.00">exclude_from_notice</text>
<polygon fill="none" stroke="black" points="585.68,-530 585.68,-552.8 657.77,-552.8 657.77,-530 585.68,-530"/>
<text xml:space="preserve" text-anchor="start" x="588.68" y="-535.8" font-family="Times,serif" font-size="14.00">INTEGER</text>
<polygon fill="none" stroke="black" points="360.25,-507.2 360.25,-530 383.75,-530 383.75,-507.2 360.25,-507.2"/>
<text xml:space="preserve" text-anchor="start" x="363.25" y="-513" font-family="Times,serif" font-size="14.00">🔧 </text>
<polygon fill="none" stroke="black" points="383.75,-507.2 383.75,-530 585.68,-530 585.68,-507.2 383.75,-507.2"/>
<text xml:space="preserve" text-anchor="start" x="386.75" y="-513" font-family="Times,serif" font-size="14.00">was_preferred</text>
<polygon fill="none" stroke="black" points="585.68,-507.2 585.68,-530 657.77,-530 657.77,-507.2 585.68,-507.2"/>
<text xml:space="preserve" text-anchor="start" x="588.68" y="-513" font-family="Times,serif" font-size="14.00">INTEGER</text>
<polygon fill="none" stroke="black" points="360.25,-484.4 360.25,-507.2 383.75,-507.2 383.75,-484.4 360.25,-484.4"/>
<text xml:space="preserve" text-anchor="start" x="363.25" y="-490.2" font-family="Times,serif" font-size="14.00">🔧 </text>
<polygon fill="none" stroke="black" points="383.75,-484.4 383.75,-507.2 585.68,-507.2 585.68,-484.4 383.75,-484.4"/>
<text xml:space="preserve" text-anchor="start" x="386.75" y="-490.2" font-family="Times,serif" font-size="14.00">copyright</text>
<polygon fill="none" stroke="black" points="585.68,-484.4 585.68,-507.2 657.77,-507.2 657.77,-484.4 585.68,-484.4"/>
<text xml:space="preserve" text-anchor="start" x="588.68" y="-490.2" font-family="Times,serif" font-size="14.00">TEXT?</text>
<polygon fill="none" stroke="black" points="360.25,-461.6 360.25,-484.4 383.75,-484.4 383.75,-461.6 360.25,-461.6"/>
<text xml:space="preserve" text-anchor="start" x="363.25" y="-467.4" font-family="Times,serif" font-size="14.00">🔧 </text>
<polygon fill="none" stroke="black" points="383.75,-461.6 383.75,-484.4 585.68,-484.4 585.68,-461.6 383.75,-461.6"/>
<text xml:space="preserve" text-anchor="start" x="386.75" y="-467.4" font-family="Times,serif" font-size="14.00">license_name</text>
<polygon fill="none" stroke="black" points="585.68,-461.6 585.68,-484.4 657.77,-484.4 657.77,-461.6 585.68,-461.6"/>
<text xml:space="preserve" text-anchor="start" x="588.68" y="-467.4" font-family="Times,serif" font-size="14.00">TEXT?</text>
<polygon fill="none" stroke="black" points="360.25,-438.8 360.25,-461.6 383.75,-461.6 383.75,-438.8 360.25,-438.8"/>
<text xml:space="preserve" text-anchor="start" x="363.25" y="-444.6" font-family="Times,serif" font-size="14.00">🔧 </text>
<polygon fill="none" stroke="black" points="383.75,-438.8 383.75,-461.6 585.68,-461.6 585.68,-438.8 383.75,-438.8"/>
<text xml:space="preserve" text-anchor="start" x="386.75" y="-444.6" font-family="Times,serif" font-size="14.00">url</text>
<polygon fill="none" stroke="black" points="585.68,-438.8 585.68,-461.6 657.77,-461.6 657.77,-438.8 585.68,-438.8"/>
<text xml:space="preserve" text-anchor="start" x="588.68" y="-444.6" font-family="Times,serif" font-size="14.00">TEXT?</text>
<polygon fill="none" stroke="black" points="360.25,-416 360.25,-438.8 383.75,-438.8 383.75,-416 360.25,-416"/>
<text xml:space="preserve" text-anchor="start" x="363.25" y="-421.8" font-family="Times,serif" font-size="14.00">🔧 </text>
<polygon fill="none" stroke="black" points="383.75,-416 383.75,-438.8 585.68,-438.8 585.68,-416 383.75,-416"/>
<text xml:space="preserve" text-anchor="start" x="386.75" y="-421.8" font-family="Times,serif" font-size="14.00">package_name</text>
<polygon fill="none" stroke="black" points="585.68,-416 585.68,-438.8 657.77,-438.8 657.77,-416 585.68,-416"/>
<text xml:space="preserve" text-anchor="start" x="588.68" y="-421.8" font-family="Times,serif" font-size="14.00">TEXT?</text>
<polygon fill="none" stroke="black" points="360.25,-393.2 360.25,-416 383.75,-416 383.75,-393.2 360.25,-393.2"/>
<text xml:space="preserve" text-anchor="start" x="363.25" y="-399" font-family="Times,serif" font-size="14.00">🔧 </text>
<polygon fill="none" stroke="black" points="383.75,-393.2 383.75,-416 585.68,-416 585.68,-393.2 383.75,-393.2"/>
<text xml:space="preserve" text-anchor="start" x="386.75" y="-399" font-family="Times,serif" font-size="14.00">package_namespace</text>
<polygon fill="none" stroke="black" points="585.68,-393.2 585.68,-416 657.77,-416 657.77,-393.2 585.68,-393.2"/>
<text xml:space="preserve" text-anchor="start" x="588.68" y="-399" font-family="Times,serif" font-size="14.00">TEXT?</text>
<polygon fill="none" stroke="black" points="360.25,-370.4 360.25,-393.2 383.75,-393.2 383.75,-370.4 360.25,-370.4"/>
<text xml:space="preserve" text-anchor="start" x="363.25" y="-376.2" font-family="Times,serif" font-size="14.00">🔧 </text>
<polygon fill="none" stroke="black" points="383.75,-370.4 383.75,-393.2 585.68,-393.2 585.68,-370.4 383.75,-370.4"/>
<text xml:space="preserve" text-anchor="start" x="386.75" y="-376.2" font-family="Times,serif" font-size="14.00">package_version</text>
<polygon fill="none" stroke="black" points="585.68,-370.4 585.68,-393.2 657.77,-393.2 657.77,-370.4 585.68,-370.4"/>
<text xml:space="preserve" text-anchor="start" x="588.68" y="-376.2" font-family="Times,serif" font-size="14.00">TEXT?</text>
<polygon fill="none" stroke="black" points="360.25,-347.6 360.25,-370.4 383.75,-370.4 383.75,-347.6 360.25,-347.6"/>
<text xml:space="preserve" text-anchor="start" x="363.25" y="-353.4" font-family="Times,serif" font-size="14.00">🔧 </text>
<polygon fill="none" stroke="black" points="383.75,-347.6 383.75,-370.4 585.68,-370.4 585.68,-347.6 383.75,-347.6"/>
<text xml:space="preserve" text-anchor="start" x="386.75" y="-353.4" font-family="Times,serif" font-size="14.00">package_type</text>
<polygon fill="none" stroke="black" points="585.68,-347.6 585.68,-370.4 657.77,-370.4 657.77,-347.6 585.68,-347.6"/>
<text xml:space="preserve" text-anchor="start" x="588.68" y="-353.4" font-family="Times,serif" font-size="14.00">TEXT?</text>
<polygon fill="none" stroke="black" points="360.25,-324.8 360.25,-347.6 383.75,-347.6 383.75,-324.8 360.25,-324.8"/>
<text xml:space="preserve" text-anchor="start" x="363.25" y="-330.6" font-family="Times,serif" font-size="14.00">🔧 </text>
<polygon fill="none" stroke="black" points="383.75,-324.8 383.75,-347.6 585.68,-347.6 585.68,-324.8 383.75,-324.8"/>
<text xml:space="preserve" text-anchor="start" x="386.75" y="-330.6" font-family="Times,serif" font-size="14.00">attribution_confidence</text>
<polygon fill="none" stroke="black" points="585.68,-324.8 585.68,-347.6 657.77,-347.6 657.77,-324.8 585.68,-324.8"/>
<text xml:space="preserve" text-anchor="start" x="588.68" y="-330.6" font-family="Times,serif" font-size="14.00">INTEGER?</text>
<polygon fill="none" stroke="black" points="360.25,-302 360.25,-324.8 383.75,-324.8 383.75,-302 360.25,-302"/>
<text xml:space="preserve" text-anchor="start" x="363.25" y="-307.8" font-family="Times,serif" font-size="14.00">🔧 </text>
<polygon fill="none" stroke="black" points="383.75,-302 383.75,-324.8 585.68,-324.8 585.68,-302 383.75,-302"/>
<text xml:space="preserve" text-anchor="start" x="386.75" y="-307.8" font-family="Times,serif" font-size="14.00">follow_up</text>
<polygon fill="none" stroke="black" points="585.68,-302 585.68,-324.8 657.77,-324.8 657.77,-302 585.68,-302"/>
<text xml:space="preserve" text-anchor="start" x="588.68" y="-307.8" font-family="Times,serif" font-size="14.00">INTEGER</text>
<polygon fill="none" stroke="black" points="360.25,-279.2 360.25,-302 383.75,-302 383.75,-279.2 360.25,-279.2"/>
<text xml:space="preserve" text-anchor="start" x="363.25" y="-285" font-family="Times,serif" font-size="14.00">🔧 </text>
<polygon fill="none" stroke="black" points="383.75,-279.2 383.75,-302 585.68,-302 585.68,-279.2 383.75,-279.2"/>
<text xml:space="preserve" text-anchor="start" x="386.75" y="-285" font-family="Times,serif" font-size="14.00">needs_review</text>
<polygon fill="none" stroke="black" points="585.68,-279.2 585.68,-302 657.77,-302 657.77,-279.2 585.68,-279.2"/>
<text xml:space="preserve" text-anchor="start" x="588.68" y="-285" font-family="Times,serif" font-size="14.00">INTEGER</text>
<polygon fill="none" stroke="black" points="360.25,-256.4 360.25,-279.2 383.75,-279.2 383.75,-256.4 360.25,-256.4"/>
<text xml:space="preserve" text-anchor="start" x="363.25" y="-262.2" font-family="Times,serif" font-size="14.00">🔧 </text>
<polygon fill="none" stroke="black" points="383.75,-256.4 383.75,-279.2 585.68,-279.2 585.68,-256.4 383.75,-256.4"/>
<text xml:space="preserve" text-anchor="start" x="386.75" y="-262.2" font-family="Times,serif" font-size="14.00">preferred</text>
<polygon fill="none" stroke="black" points="585.68,-256.4 585.68,-279.2 657.77,-279.2 657.77,-256.4 585.68,-256.4"/>
<text xml:space="preserve" text-anchor="start" x="588.68" y="-262.2" font-family="Times,serif" font-size="14.00">INTEGER</text>
<polygon fill="none" stroke="black" points="360.25,-233.6 360.25,-256.4 383.75,-256.4 383.75,-233.6 360.25,-233.6"/>
<text xml:space="preserve" text-anchor="start" x="363.25" y="-239.4" font-family="Times,serif" font-size="14.00">🔧 </text>
<polygon fill="none" stroke="black" points="383.75,-233.6 383.75,-256.4 585.68,-256.4 585.68,-233.6 383.75,-233.6"/>
<text xml:space="preserve" text-anchor="start" x="386.75" y="-239.4" font-family="Times,serif" font-size="14.00">original_attribution_was_preferred</text>
<polygon fill="none" stroke="black" points="585.68,-233.6 585.68,-256.4 657.77,-256.4 657.77,-233.6 585.68,-233.6"/>
<text xml:space="preserve" text-anchor="start" x="588.68" y="-239.4" font-family="Times,serif" font-size="14.00">INTEGER</text>
<polygon fill="none" stroke="black" points="360.25,-210.8 360.25,-233.6 383.75,-233.6 383.75,-210.8 360.25,-210.8"/>
<text xml:space="preserve" text-anchor="start" x="363.25" y="-216.6" font-family="Times,serif" font-size="14.00">🔧 </text>
<polygon fill="none" stroke="black" points="383.75,-210.8 383.75,-233.6 585.68,-233.6 585.68,-210.8 383.75,-210.8"/>
<text xml:space="preserve" text-anchor="start" x="386.75" y="-216.6" font-family="Times,serif" font-size="14.00">comment</text>
<polygon fill="none" stroke="black" points="585.68,-210.8 585.68,-233.6 657.77,-233.6 657.77,-210.8 585.68,-210.8"/>
<text xml:space="preserve" text-anchor="start" x="588.68" y="-216.6" font-family="Times,serif" font-size="14.00">TEXT?</text>
<polygon fill="none" stroke="black" points="360.25,-188 360.25,-210.8 383.75,-210.8 383.75,-188 360.25,-188"/>
<text xml:space="preserve" text-anchor="start" x="363.25" y="-193.8" font-family="Times,serif" font-size="14.00">🔧 </text>
<polygon fill="none" stroke="black" points="383.75,-188 383.75,-210.8 585.68,-210.8 585.68,-188 383.75,-188"/>
<text xml:space="preserve" text-anchor="start" x="386.75" y="-193.8" font-family="Times,serif" font-size="14.00">canonical_license_name</text>
<polygon fill="none" stroke="black" points="585.68,-188 585.68,-210.8 657.77,-210.8 657.77,-188 585.68,-188"/>
<text xml:space="preserve" text-anchor="start" x="588.68" y="-193.8" font-family="Times,serif" font-size="14.00">TEXT?</text>
</g>
<!-- closest_attributed_ancestors -->
<g id="node2" class="node">
<title>closest_attributed_ancestors</title>
<polygon fill="none" stroke="black" points="70.36,-1045.6 70.36,-1068.4 245.89,-1068.4 245.89,-1045.6 70.36,-1045.6"/>
<text xml:space="preserve" text-anchor="start" x="73.36" y="-1053.8" font-family="Times,serif" font-weight="bold" font-size="14.00">closest_attributed_ancestors</text>
<polygon fill="none" stroke="black" points="70.36,-1022.8 70.36,-1045.6 96.74,-1045.6 96.74,-1022.8 70.36,-1022.8"/>
<text xml:space="preserve" text-anchor="start" x="74.8" y="-1028.6" font-family="Times,serif" font-size="14.00">🔑 </text>
<polygon fill="none" stroke="black" points="96.74,-1022.8 96.74,-1045.6 170.92,-1045.6 170.92,-1022.8 96.74,-1022.8"/>
<text xml:space="preserve" text-anchor="start" x="99.74" y="-1028.6" font-family="Times,serif" font-size="14.00">resource_id</text>
<polygon fill="none" stroke="black" points="170.92,-1022.8 170.92,-1045.6 245.89,-1045.6 245.89,-1022.8 170.92,-1022.8"/>
<text xml:space="preserve" text-anchor="start" x="173.92" y="-1028.6" font-family="Times,serif" font-size="14.00">INTEGER</text>
<polygon fill="none" stroke="black" points="70.36,-1000 70.36,-1022.8 96.74,-1022.8 96.74,-1000 70.36,-1000"/>
<polygon fill="none" stroke="black" points="96.74,-1000 96.74,-1022.8 170.92,-1022.8 170.92,-1000 96.74,-1000"/>
<text xml:space="preserve" text-anchor="start" x="99.74" y="-1005.8" font-family="Times,serif" font-size="14.00">is_file</text>
<polygon fill="none" stroke="black" points="170.92,-1000 170.92,-1022.8 245.89,-1022.8 245.89,-1000 170.92,-1000"/>
<text xml:space="preserve" text-anchor="start" x="173.92" y="-1005.8" font-family="Times,serif" font-size="14.00">INTEGER</text>
<polygon fill="none" stroke="black" points="70.36,-977.2 70.36,-1000 96.74,-1000 96.74,-977.2 70.36,-977.2"/>
<polygon fill="none" stroke="black" points="96.74,-977.2 96.74,-1000 170.92,-1000 170.92,-977.2 96.74,-977.2"/>
<text xml:space="preserve" text-anchor="start" x="99.74" y="-983" font-family="Times,serif" font-size="14.00">breakpoint</text>
<polygon fill="none" stroke="black" points="170.92,-977.2 170.92,-1000 245.89,-1000 245.89,-977.2 170.92,-977.2"/>
<text xml:space="preserve" text-anchor="start" x="173.92" y="-983" font-family="Times,serif" font-size="14.00">INTEGER</text>
<polygon fill="none" stroke="black" points="70.36,-954.4 70.36,-977.2 96.74,-977.2 96.74,-954.4 70.36,-954.4"/>
<polygon fill="none" stroke="black" points="96.74,-954.4 96.74,-977.2 170.92,-977.2 170.92,-954.4 96.74,-954.4"/>
<text xml:space="preserve" text-anchor="start" x="99.74" y="-960.2" font-family="Times,serif" font-size="14.00">manual</text>
<polygon fill="none" stroke="black" points="170.92,-954.4 170.92,-977.2 245.89,-977.2 245.89,-954.4 170.92,-954.4"/>
<text xml:space="preserve" text-anchor="start" x="173.92" y="-960.2" font-family="Times,serif" font-size="14.00">INTEGER?</text>
<polygon fill="none" stroke="black" points="70.36,-931.6 70.36,-954.4 96.74,-954.4 96.74,-931.6 70.36,-931.6"/>
<polygon fill="none" stroke="black" points="96.74,-931.6 96.74,-954.4 170.92,-954.4 170.92,-931.6 96.74,-931.6"/>
<text xml:space="preserve" text-anchor="start" x="99.74" y="-937.4" font-family="Times,serif" font-size="14.00">external</text>
<polygon fill="none" stroke="black" points="170.92,-931.6 170.92,-954.4 245.89,-954.4 245.89,-931.6 170.92,-931.6"/>
<text xml:space="preserve" text-anchor="start" x="173.92" y="-937.4" font-family="Times,serif" font-size="14.00">INTEGER?</text>
</g>
<!-- resource -->
<g id="node5" class="node">
<title>resource</title>
<polygon fill="none" stroke="black" points="387.45,-989.2 387.45,-1012 630.57,-1012 630.57,-989.2 387.45,-989.2"/>
<text xml:space="preserve" text-anchor="start" x="483.36" y="-997.4" font-family="Times,serif" font-weight="bold" font-size="14.00">resource</text>
<polygon fill="none" stroke="black" points="387.45,-966.4 387.45,-989.2 410.95,-989.2 410.95,-966.4 387.45,-966.4"/>
<text xml:space="preserve" text-anchor="start" x="390.45" y="-972.2" font-family="Times,serif" font-size="14.00">🔑 </text>
<polygon fill="none" stroke="black" points="410.95,-966.4 410.95,-989.2 558.48,-989.2 558.48,-966.4 410.95,-966.4"/>
<text xml:space="preserve" text-anchor="start" x="413.95" y="-972.2" font-family="Times,serif" font-size="14.00">id</text>
<polygon fill="none" stroke="black" points="558.48,-966.4 558.48,-989.2 630.57,-989.2 630.57,-966.4 558.48,-966.4"/>
<text xml:space="preserve" text-anchor="start" x="561.48" y="-972.2" font-family="Times,serif" font-size="14.00">INTEGER</text>
<polygon fill="none" stroke="black" points="387.45,-943.6 387.45,-966.4 410.95,-966.4 410.95,-943.6 387.45,-943.6"/>
<g id="a_node5_2"><a xlink:title="Without trailing slash. The path of the root resource is the empty string">
<polygon fill="none" stroke="black" points="410.95,-943.6 410.95,-966.4 558.48,-966.4 558.48,-943.6 410.95,-943.6"/>
<text xml:space="preserve" text-anchor="start" x="413.95" y="-949.4" font-family="Times,serif" font-size="14.00">path 📝</text>
</a>
</g>
<polygon fill="none" stroke="black" points="558.48,-943.6 558.48,-966.4 630.57,-966.4 630.57,-943.6 558.48,-943.6"/>
<text xml:space="preserve" text-anchor="start" x="561.48" y="-949.4" font-family="Times,serif" font-size="14.00">TEXT</text>
<polygon fill="none" stroke="black" points="387.45,-920.8 387.45,-943.6 410.95,-943.6 410.95,-920.8 387.45,-920.8"/>
<g id="a_node5_3"><a xlink:title="The name of the root resource is the empty string">
<polygon fill="none" stroke="black" points="410.95,-920.8 410.95,-943.6 558.48,-943.6 558.48,-920.8 410.95,-920.8"/>
<text xml:space="preserve" text-anchor="start" x="413.95" y="-926.6" font-family="Times,serif" font-size="14.00">name 📝</text>
</a>
</g>
<polygon fill="none" stroke="black" points="558.48,-920.8 558.48,-943.6 630.57,-943.6 630.57,-920.8 558.48,-920.8"/>
<text xml:space="preserve" text-anchor="start" x="561.48" y="-926.6" font-family="Times,serif" font-size="14.00">TEXT</text>
<polygon fill="none" stroke="black" points="387.45,-898 387.45,-920.8 410.95,-920.8 410.95,-898 387.45,-898"/>
<polygon fill="none" stroke="black" points="410.95,-898 410.95,-920.8 558.48,-920.8 558.48,-898 410.95,-898"/>
<text xml:space="preserve" text-anchor="start" x="413.95" y="-903.8" font-family="Times,serif" font-size="14.00">parent_id</text>
<polygon fill="none" stroke="black" points="558.48,-898 558.48,-920.8 630.57,-920.8 630.57,-898 558.48,-898"/>
<text xml:space="preserve" text-anchor="start" x="561.48" y="-903.8" font-family="Times,serif" font-size="14.00">INTEGER?</text>
<polygon fill="none" stroke="black" points="387.45,-875.2 387.45,-898 410.95,-898 410.95,-875.2 387.45,-875.2"/>
<polygon fill="none" stroke="black" points="410.95,-875.2 410.95,-898 558.48,-898 558.48,-875.2 410.95,-875.2"/>
<text xml:space="preserve" text-anchor="start" x="413.95" y="-881" font-family="Times,serif" font-size="14.00">is_attribution_breakpoint</text>
<polygon fill="none" stroke="black" points="558.48,-875.2 558.48,-898 630.57,-898 630.57,-875.2 558.48,-875.2"/>
<text xml:space="preserve" text-anchor="start" x="561.48" y="-881" font-family="Times,serif" font-size="14.00">INTEGER</text>
<polygon fill="none" stroke="black" points="387.45,-852.4 387.45,-875.2 410.95,-875.2 410.95,-852.4 387.45,-852.4"/>
<polygon fill="none" stroke="black" points="410.95,-852.4 410.95,-875.2 558.48,-875.2 558.48,-852.4 410.95,-852.4"/>
<text xml:space="preserve" text-anchor="start" x="413.95" y="-858.2" font-family="Times,serif" font-size="14.00">is_file</text>
<polygon fill="none" stroke="black" points="558.48,-852.4 558.48,-875.2 630.57,-875.2 630.57,-852.4 558.48,-852.4"/>
<text xml:space="preserve" text-anchor="start" x="561.48" y="-858.2" font-family="Times,serif" font-size="14.00">INTEGER</text>
<polygon fill="none" stroke="black" points="387.45,-829.6 387.45,-852.4 410.95,-852.4 410.95,-829.6 387.45,-829.6"/>
<g id="a_node5_4"><a xlink:title="Is a directory or in files_with_children">
<polygon fill="none" stroke="black" points="410.95,-829.6 410.95,-852.4 558.48,-852.4 558.48,-829.6 410.95,-829.6"/>
<text xml:space="preserve" text-anchor="start" x="413.95" y="-835.4" font-family="Times,serif" font-size="14.00">can_have_children 📝</text>
</a>
</g>
<polygon fill="none" stroke="black" points="558.48,-829.6 558.48,-852.4 630.57,-852.4 630.57,-829.6 558.48,-829.6"/>
<text xml:space="preserve" text-anchor="start" x="561.48" y="-835.4" font-family="Times,serif" font-size="14.00">INTEGER</text>
<polygon fill="none" stroke="black" points="387.45,-806.8 387.45,-829.6 410.95,-829.6 410.95,-806.8 387.45,-806.8"/>
<g id="a_node5_5"><a xlink:title="The highest id of a descendant of this resource. As the resources are numbered depth&#45;first, this enables us to identify the children of resource R by checking if child.id is between R.id and R.max_descendant_id, which is very fast. See https://en.wikipedia.org/wiki/Nested_set_model">
<polygon fill="none" stroke="black" points="410.95,-806.8 410.95,-829.6 558.48,-829.6 558.48,-806.8 410.95,-806.8"/>
<text xml:space="preserve" text-anchor="start" x="413.95" y="-812.6" font-family="Times,serif" font-size="14.00">max_descendant_id 📝</text>
</a>
</g>
<polygon fill="none" stroke="black" points="558.48,-806.8 558.48,-829.6 630.57,-829.6 630.57,-806.8 558.48,-806.8"/>
<text xml:space="preserve" text-anchor="start" x="561.48" y="-812.6" font-family="Times,serif" font-size="14.00">INTEGER</text>
<polygon fill="none" stroke="black" points="387.45,-784 387.45,-806.8 410.95,-806.8 410.95,-784 387.45,-784"/>
<polygon fill="none" stroke="black" points="410.95,-784 410.95,-806.8 558.48,-806.8 558.48,-784 410.95,-784"/>
<text xml:space="preserve" text-anchor="start" x="413.95" y="-789.8" font-family="Times,serif" font-size="14.00">base_url</text>
<polygon fill="none" stroke="black" points="558.48,-784 558.48,-806.8 630.57,-806.8 630.57,-784 558.48,-784"/>
<text xml:space="preserve" text-anchor="start" x="561.48" y="-789.8" font-family="Times,serif" font-size="14.00">TEXT?</text>
</g>
<!-- closest_attributed_ancestors&#45;&gt;resource -->
<g id="edge1" class="edge">
<title>closest_attributed_ancestors:e&#45;&gt;resource:w</title>
<path fill="none" stroke="black" d="M246.89,-988.6C305.09,-988.6 322.09,-979.15 374.98,-977.93"/>
<polygon fill="black" stroke="black" points="374.98,-981.43 384.94,-977.82 374.9,-974.43 374.98,-981.43"/>
</g>
<!-- closest_attributed_ancestors&#45;&gt;resource -->
<g id="edge2" class="edge">
<title>closest_attributed_ancestors:e&#45;&gt;resource:w</title>
<path fill="none" stroke="black" d="M246.89,-943C306.82,-943 320.85,-973.59 375.05,-977.41"/>
<polygon fill="black" stroke="black" points="374.82,-980.9 384.94,-977.75 375.06,-973.91 374.82,-980.9"/>
</g>
<!-- closest_attributed_ancestors&#45;&gt;resource -->
<g id="edge3" class="edge">
<title>closest_attributed_ancestors:e&#45;&gt;resource:w</title>
<path fill="none" stroke="black" d="M246.89,-965.8C305.13,-965.8 322.06,-976.3 374.97,-977.66"/>
<polygon fill="black" stroke="black" points="374.89,-981.16 384.94,-977.78 374.98,-974.16 374.89,-981.16"/>
</g>
<!-- closest_attributed_ancestors&#45;&gt;resource -->
<g id="edge4" class="edge">
<title>closest_attributed_ancestors:e&#45;&gt;resource:w</title>
<path fill="none" stroke="black" d="M246.89,-1034.2C309.87,-1034.2 318.66,-984.22 375.29,-978.36"/>
<polygon fill="black" stroke="black" points="375.13,-981.87 384.94,-977.88 374.78,-974.88 375.13,-981.87"/>
</g>
<!-- external_attribution_source -->
<g id="node3" class="node">
<title>external_attribution_source</title>
<polygon fill="none" stroke="black" points="389.8,-139.2 389.8,-162 628.22,-162 628.22,-139.2 389.8,-139.2"/>
<text xml:space="preserve" text-anchor="start" x="425.41" y="-147.4" font-family="Times,serif" font-weight="bold" font-size="14.00">external_attribution_source</text>
<polygon fill="none" stroke="black" points="389.8,-116.4 389.8,-139.2 413.3,-139.2 413.3,-116.4 389.8,-116.4"/>
<text xml:space="preserve" text-anchor="start" x="392.8" y="-122.2" font-family="Times,serif" font-size="14.00">🔑 </text>
<polygon fill="none" stroke="black" points="413.3,-116.4 413.3,-139.2 562.34,-139.2 562.34,-116.4 413.3,-116.4"/>
<text xml:space="preserve" text-anchor="start" x="416.3" y="-122.2" font-family="Times,serif" font-size="14.00">key</text>
<polygon fill="none" stroke="black" points="562.34,-116.4 562.34,-139.2 628.22,-139.2 628.22,-116.4 562.34,-116.4"/>
<text xml:space="preserve" text-anchor="start" x="565.34" y="-122.2" font-family="Times,serif" font-size="14.00">TEXT</text>
<polygon fill="none" stroke="black" points="389.8,-93.6 389.8,-116.4 413.3,-116.4 413.3,-93.6 389.8,-93.6"/>
<polygon fill="none" stroke="black" points="413.3,-93.6 413.3,-116.4 562.34,-116.4 562.34,-93.6 413.3,-93.6"/>
<text xml:space="preserve" text-anchor="start" x="416.3" y="-99.4" font-family="Times,serif" font-size="14.00">name</text>
<polygon fill="none" stroke="black" points="562.34,-93.6 562.34,-116.4 628.22,-116.4 628.22,-93.6 562.34,-93.6"/>
<text xml:space="preserve" text-anchor="start" x="565.34" y="-99.4" font-family="Times,serif" font-size="14.00">TEXT</text>
<polygon fill="none" stroke="black" points="389.8,-70.8 389.8,-93.6 413.3,-93.6 413.3,-70.8 389.8,-70.8"/>
<polygon fill="none" stroke="black" points="413.3,-70.8 413.3,-93.6 562.34,-93.6 562.34,-70.8 413.3,-70.8"/>
<text xml:space="preserve" text-anchor="start" x="416.3" y="-76.6" font-family="Times,serif" font-size="14.00">priority</text>
<polygon fill="none" stroke="black" points="562.34,-70.8 562.34,-93.6 628.22,-93.6 628.22,-70.8 562.34,-70.8"/>
<text xml:space="preserve" text-anchor="start" x="565.34" y="-76.6" font-family="Times,serif" font-size="14.00">INTEGER</text>
<polygon fill="none" stroke="black" points="389.8,-48 389.8,-70.8 413.3,-70.8 413.3,-48 389.8,-48"/>
<polygon fill="none" stroke="black" points="413.3,-48 413.3,-70.8 562.34,-70.8 562.34,-48 413.3,-48"/>
<text xml:space="preserve" text-anchor="start" x="416.3" y="-53.8" font-family="Times,serif" font-size="14.00">is_relevant_for_preferred</text>
<polygon fill="none" stroke="black" points="562.34,-48 562.34,-70.8 628.22,-70.8 628.22,-48 562.34,-48"/>
<text xml:space="preserve" text-anchor="start" x="565.34" y="-53.8" font-family="Times,serif" font-size="14.00">INTEGER</text>
</g>
<!-- frequent_license -->
<g id="node4" class="node">
<title>frequent_license</title>
<polygon fill="none" stroke="black" points="77.01,-1185.2 77.01,-1208 239.24,-1208 239.24,-1185.2 77.01,-1185.2"/>
<text xml:space="preserve" text-anchor="start" x="109.13" y="-1193.4" font-family="Times,serif" font-weight="bold" font-size="14.00">frequent_license</text>
<polygon fill="none" stroke="black" points="77.01,-1162.4 77.01,-1185.2 100.51,-1185.2 100.51,-1162.4 77.01,-1162.4"/>
<text xml:space="preserve" text-anchor="start" x="80.01" y="-1168.2" font-family="Times,serif" font-size="14.00">🔑 </text>
<polygon fill="none" stroke="black" points="100.51,-1162.4 100.51,-1185.2 173.37,-1185.2 173.37,-1162.4 100.51,-1162.4"/>
<text xml:space="preserve" text-anchor="start" x="103.51" y="-1168.2" font-family="Times,serif" font-size="14.00">id</text>
<polygon fill="none" stroke="black" points="173.37,-1162.4 173.37,-1185.2 239.24,-1185.2 239.24,-1162.4 173.37,-1162.4"/>
<text xml:space="preserve" text-anchor="start" x="176.37" y="-1168.2" font-family="Times,serif" font-size="14.00">INTEGER</text>
<polygon fill="none" stroke="black" points="77.01,-1139.6 77.01,-1162.4 100.51,-1162.4 100.51,-1139.6 77.01,-1139.6"/>
<polygon fill="none" stroke="black" points="100.51,-1139.6 100.51,-1162.4 173.37,-1162.4 173.37,-1139.6 100.51,-1139.6"/>
<text xml:space="preserve" text-anchor="start" x="103.51" y="-1145.4" font-family="Times,serif" font-size="14.00">short_name</text>
<polygon fill="none" stroke="black" points="173.37,-1139.6 173.37,-1162.4 239.24,-1162.4 239.24,-1139.6 173.37,-1139.6"/>
<text xml:space="preserve" text-anchor="start" x="176.37" y="-1145.4" font-family="Times,serif" font-size="14.00">TEXT</text>
<polygon fill="none" stroke="black" points="77.01,-1116.8 77.01,-1139.6 100.51,-1139.6 100.51,-1116.8 77.01,-1116.8"/>
<polygon fill="none" stroke="black" points="100.51,-1116.8 100.51,-1139.6 173.37,-1139.6 173.37,-1116.8 100.51,-1116.8"/>
<text xml:space="preserve" text-anchor="start" x="103.51" y="-1122.6" font-family="Times,serif" font-size="14.00">full_name</text>
<polygon fill="none" stroke="black" points="173.37,-1116.8 173.37,-1139.6 239.24,-1139.6 239.24,-1116.8 173.37,-1116.8"/>
<text xml:space="preserve" text-anchor="start" x="176.37" y="-1122.6" font-family="Times,serif" font-size="14.00">TEXT</text>
<polygon fill="none" stroke="black" points="77.01,-1094 77.01,-1116.8 100.51,-1116.8 100.51,-1094 77.01,-1094"/>
<polygon fill="none" stroke="black" points="100.51,-1094 100.51,-1116.8 173.37,-1116.8 173.37,-1094 100.51,-1094"/>
<text xml:space="preserve" text-anchor="start" x="103.51" y="-1099.8" font-family="Times,serif" font-size="14.00">license_text</text>
<polygon fill="none" stroke="black" points="173.37,-1094 173.37,-1116.8 239.24,-1116.8 239.24,-1094 173.37,-1094"/>
<text xml:space="preserve" text-anchor="start" x="176.37" y="-1099.8" font-family="Times,serif" font-size="14.00">TEXT?</text>
</g>
<!-- resource&#45;&gt;resource -->
<g id="edge7" class="edge">
<title>resource:e&#45;&gt;resource:w</title>
<path fill="none" stroke="black" d="M630.57,-909.4C718.29,-954.73 718.29,-1034 509.01,-1034 307.9,-1034 300.05,-1022.92 377.58,-982.83"/>
<polygon fill="black" stroke="black" points="378.78,-986.15 386.1,-978.49 375.6,-979.91 378.78,-986.15"/>
</g>
<!-- resource_to_attribution -->
<g id="node6" class="node">
<title>resource_to_attribution</title>
<polygon fill="none" stroke="black" points="38.31,-814.8 38.31,-837.6 277.94,-837.6 277.94,-814.8 38.31,-814.8"/>
<text xml:space="preserve" text-anchor="start" x="86.97" y="-823" font-family="Times,serif" font-weight="bold" font-size="14.00">resource_to_attribution</text>
<polygon fill="none" stroke="black" points="38.31,-792 38.31,-814.8 61.81,-814.8 61.81,-792 38.31,-792"/>
<text xml:space="preserve" text-anchor="start" x="41.31" y="-797.8" font-family="Times,serif" font-size="14.00">🔑 </text>
<polygon fill="none" stroke="black" points="61.81,-792 61.81,-814.8 212.06,-814.8 212.06,-792 61.81,-792"/>
<text xml:space="preserve" text-anchor="start" x="64.81" y="-797.8" font-family="Times,serif" font-size="14.00">resource_id</text>
<polygon fill="none" stroke="black" points="212.06,-792 212.06,-814.8 277.94,-814.8 277.94,-792 212.06,-792"/>
<text xml:space="preserve" text-anchor="start" x="215.06" y="-797.8" font-family="Times,serif" font-size="14.00">INTEGER</text>
<polygon fill="none" stroke="black" points="38.31,-769.2 38.31,-792 61.81,-792 61.81,-769.2 38.31,-769.2"/>
<text xml:space="preserve" text-anchor="start" x="41.31" y="-775" font-family="Times,serif" font-size="14.00">🔑 </text>
<polygon fill="none" stroke="black" points="61.81,-769.2 61.81,-792 212.06,-792 212.06,-769.2 61.81,-769.2"/>
<text xml:space="preserve" text-anchor="start" x="64.81" y="-775" font-family="Times,serif" font-size="14.00">attribution_uuid</text>
<polygon fill="none" stroke="black" points="212.06,-769.2 212.06,-792 277.94,-792 277.94,-769.2 212.06,-769.2"/>
<text xml:space="preserve" text-anchor="start" x="215.06" y="-775" font-family="Times,serif" font-size="14.00">TEXT</text>
<polygon fill="none" stroke="black" points="38.31,-746.4 38.31,-769.2 61.81,-769.2 61.81,-746.4 38.31,-746.4"/>
<g id="a_node6_6"><a xlink:title="Denormalized data for faster checking if a resource has manual/external attribution">
<polygon fill="none" stroke="black" points="61.81,-746.4 61.81,-769.2 212.06,-769.2 212.06,-746.4 61.81,-746.4"/>
<text xml:space="preserve" text-anchor="start" x="64.81" y="-752.2" font-family="Times,serif" font-size="14.00">attribution_is_external 📝</text>
</a>
</g>
<polygon fill="none" stroke="black" points="212.06,-746.4 212.06,-769.2 277.94,-769.2 277.94,-746.4 212.06,-746.4"/>
<text xml:space="preserve" text-anchor="start" x="215.06" y="-752.2" font-family="Times,serif" font-size="14.00">INTEGER</text>
</g>
<!-- resource_to_attribution&#45;&gt;attribution -->
<g id="edge5" class="edge">
<title>resource_to_attribution:e&#45;&gt;attribution:w</title>
<path fill="none" stroke="black" d="M278.94,-780.6C318.56,-780.6 316.42,-733.95 348.21,-725.2"/>
<polygon fill="black" stroke="black" points="348.27,-728.72 357.75,-723.99 347.39,-721.78 348.27,-728.72"/>
</g>
<!-- resource_to_attribution&#45;&gt;resource -->
<g id="edge6" class="edge">
<title>resource_to_attribution:e&#45;&gt;resource:w</title>
<path fill="none" stroke="black" d="M278.94,-803.4C365.9,-803.4 301.76,-962.48 375.15,-976.78"/>
<polygon fill="black" stroke="black" points="374.67,-980.25 384.94,-977.66 375.3,-973.27 374.67,-980.25"/>
</g>
<!-- source_for_attribution -->
<g id="node7" class="node">
<title>source_for_attribution</title>
<polygon fill="none" stroke="black" points="8,-429.2 8,-452 308.25,-452 308.25,-429.2 8,-429.2"/>
<text xml:space="preserve" text-anchor="start" x="90.08" y="-437.4" font-family="Times,serif" font-weight="bold" font-size="14.00">source_for_attribution</text>
<polygon fill="none" stroke="black" points="8,-406.4 8,-429.2 31.5,-429.2 31.5,-406.4 8,-406.4"/>
<text xml:space="preserve" text-anchor="start" x="11" y="-412.2" font-family="Times,serif" font-size="14.00">🔑 </text>
<polygon fill="none" stroke="black" points="31.5,-406.4 31.5,-429.2 236.16,-429.2 236.16,-406.4 31.5,-406.4"/>
<text xml:space="preserve" text-anchor="start" x="34.5" y="-412.2" font-family="Times,serif" font-size="14.00">attribution_uuid</text>
<polygon fill="none" stroke="black" points="236.16,-406.4 236.16,-429.2 308.25,-429.2 308.25,-406.4 236.16,-406.4"/>
<text xml:space="preserve" text-anchor="start" x="239.16" y="-412.2" font-family="Times,serif" font-size="14.00">TEXT</text>
<polygon fill="none" stroke="black" points="8,-383.6 8,-406.4 31.5,-406.4 31.5,-383.6 8,-383.6"/>
<g id="a_node7_7"><a xlink:title="Mainly contains keys of external_attribution_source, but can also contain unknown values">
<polygon fill="none" stroke="black" points="31.5,-383.6 31.5,-406.4 236.16,-406.4 236.16,-383.6 31.5,-383.6"/>
<text xml:space="preserve" text-anchor="start" x="34.5" y="-389.4" font-family="Times,serif" font-size="14.00">external_attribution_source_key 📝</text>
</a>
</g>
<polygon fill="none" stroke="black" points="236.16,-383.6 236.16,-406.4 308.25,-406.4 308.25,-383.6 236.16,-383.6"/>
<text xml:space="preserve" text-anchor="start" x="239.16" y="-389.4" font-family="Times,serif" font-size="14.00">TEXT</text>
<polygon fill="none" stroke="black" points="8,-360.8 8,-383.6 31.5,-383.6 31.5,-360.8 8,-360.8"/>
<polygon fill="none" stroke="black" points="31.5,-360.8 31.5,-383.6 236.16,-383.6 236.16,-360.8 31.5,-360.8"/>
<text xml:space="preserve" text-anchor="start" x="34.5" y="-366.6" font-family="Times,serif" font-size="14.00">document_confidence</text>
<polygon fill="none" stroke="black" points="236.16,-360.8 236.16,-383.6 308.25,-383.6 308.25,-360.8 236.16,-360.8"/>
<text xml:space="preserve" text-anchor="start" x="239.16" y="-366.6" font-family="Times,serif" font-size="14.00">INTEGER?</text>
<polygon fill="none" stroke="black" points="8,-338 8,-360.8 31.5,-360.8 31.5,-338 8,-338"/>
<polygon fill="none" stroke="black" points="31.5,-338 31.5,-360.8 236.16,-360.8 236.16,-338 31.5,-338"/>
<text xml:space="preserve" text-anchor="start" x="34.5" y="-343.8" font-family="Times,serif" font-size="14.00">additional_name</text>
<polygon fill="none" stroke="black" points="236.16,-338 236.16,-360.8 308.25,-360.8 308.25,-338 236.16,-338"/>
<text xml:space="preserve" text-anchor="start" x="239.16" y="-343.8" font-family="Times,serif" font-size="14.00">TEXT?</text>
</g>
<!-- source_for_attribution&#45;&gt;attribution -->
<g id="edge8" class="edge">
<title>source_for_attribution:e&#45;&gt;attribution:w</title>
<path fill="none" stroke="black" d="M309.25,-417.8C443.02,-417.8 234.35,-706.13 348.05,-723.03"/>
<polygon fill="black" stroke="black" points="347.52,-726.5 357.74,-723.7 348,-719.52 347.52,-726.5"/>
</g>
<!-- source_for_attribution&#45;&gt;external_attribution_source -->
<g id="edge9" class="edge">
<title>source_for_attribution:e&#45;&gt;external_attribution_source:w</title>
<path fill="none" stroke="black" stroke-dasharray="5,2" d="M309.25,-395C359.06,-395 331.66,-220.36 352.25,-175 361.41,-154.8 362.26,-135.39 377.79,-129.56"/>
<polygon fill="black" stroke="black" points="377.99,-133.08 387.31,-128.04 376.88,-126.16 377.99,-133.08"/>
</g>
</g>
</svg>
