<?xml version="1.0" encoding="UTF-8" standalone="no"?>
<!DOCTYPE svg PUBLIC "-//W3C//DTD SVG 1.1//EN"
 "http://www.w3.org/Graphics/SVG/1.1/DTD/svg11.dtd">
<!-- Generated by graphviz version 14.1.1 (20251213.1925)
 -->
<!-- Title: g Pages: 1 -->
<svg width="705pt" height="997pt"
 viewBox="0.00 0.00 705.00 997.00" xmlns="http://www.w3.org/2000/svg" xmlns:xlink="http://www.w3.org/1999/xlink">
<g id="graph0" class="graph" transform="scale(1 1) rotate(0) translate(4 992.6)">
<title>g</title>
<polygon fill="white" stroke="none" points="-4,4 -4,-992.6 701.15,-992.6 701.15,4 -4,4"/>
<text xml:space="preserve" text-anchor="middle" x="348.58" y="-31" font-family="Times,serif" font-size="10.00">Open the SVG in a browser to see tooltips on comments 📝</text>
<text xml:space="preserve" text-anchor="middle" x="348.58" y="-19" font-family="Times,serif" font-size="10.00">🔑: Primary key</text>
<text xml:space="preserve" text-anchor="middle" x="348.58" y="-7" font-family="Times,serif" font-size="10.00">🔧: Generated column</text>
<!-- frequent_license -->
<g id="node1" class="node">
<title>frequent_license</title>
<polygon fill="none" stroke="black" points="82.06,-273.8 82.06,-296.6 244.3,-296.6 244.3,-273.8 82.06,-273.8"/>
<text xml:space="preserve" text-anchor="start" x="114.19" y="-282" font-family="Times,serif" font-weight="bold" font-size="14.00">frequent_license</text>
<polygon fill="none" stroke="black" points="82.06,-251 82.06,-273.8 105.56,-273.8 105.56,-251 82.06,-251"/>
<text xml:space="preserve" text-anchor="start" x="85.06" y="-258.2" font-family="Times,serif" font-size="14.00">🔑 </text>
<polygon fill="none" stroke="black" points="105.56,-251 105.56,-273.8 178.42,-273.8 178.42,-251 105.56,-251"/>
<text xml:space="preserve" text-anchor="start" x="108.56" y="-258.2" font-family="Times,serif" font-size="14.00">id</text>
<polygon fill="none" stroke="black" points="178.42,-251 178.42,-273.8 244.3,-273.8 244.3,-251 178.42,-251"/>
<text xml:space="preserve" text-anchor="start" x="181.42" y="-258.2" font-family="Times,serif" font-size="14.00">INTEGER</text>
<polygon fill="none" stroke="black" points="82.06,-228.2 82.06,-251 105.56,-251 105.56,-228.2 82.06,-228.2"/>
<polygon fill="none" stroke="black" points="105.56,-228.2 105.56,-251 178.42,-251 178.42,-228.2 105.56,-228.2"/>
<text xml:space="preserve" text-anchor="start" x="108.56" y="-235.4" font-family="Times,serif" font-size="14.00">short_name</text>
<polygon fill="none" stroke="black" points="178.42,-228.2 178.42,-251 244.3,-251 244.3,-228.2 178.42,-228.2"/>
<text xml:space="preserve" text-anchor="start" x="181.42" y="-235.4" font-family="Times,serif" font-size="14.00">TEXT</text>
<polygon fill="none" stroke="black" points="82.06,-205.4 82.06,-228.2 105.56,-228.2 105.56,-205.4 82.06,-205.4"/>
<polygon fill="none" stroke="black" points="105.56,-205.4 105.56,-228.2 178.42,-228.2 178.42,-205.4 105.56,-205.4"/>
<text xml:space="preserve" text-anchor="start" x="108.56" y="-212.6" font-family="Times,serif" font-size="14.00">full_name</text>
<polygon fill="none" stroke="black" points="178.42,-205.4 178.42,-228.2 244.3,-228.2 244.3,-205.4 178.42,-205.4"/>
<text xml:space="preserve" text-anchor="start" x="181.42" y="-212.6" font-family="Times,serif" font-size="14.00">TEXT</text>
<polygon fill="none" stroke="black" points="82.06,-182.6 82.06,-205.4 105.56,-205.4 105.56,-182.6 82.06,-182.6"/>
<polygon fill="none" stroke="black" points="105.56,-182.6 105.56,-205.4 178.42,-205.4 178.42,-182.6 105.56,-182.6"/>
<text xml:space="preserve" text-anchor="start" x="108.56" y="-189.8" font-family="Times,serif" font-size="14.00">license_text</text>
<polygon fill="none" stroke="black" points="178.42,-182.6 178.42,-205.4 244.3,-205.4 244.3,-182.6 178.42,-182.6"/>
<text xml:space="preserve" text-anchor="start" x="181.42" y="-189.8" font-family="Times,serif" font-size="14.00">TEXT?</text>
</g>
<!-- resource_to_attribution -->
<g id="node2" class="node">
<title>resource_to_attribution</title>
<polygon fill="none" stroke="black" points="43.37,-827.4 43.37,-850.2 282.99,-850.2 282.99,-827.4 43.37,-827.4"/>
<text xml:space="preserve" text-anchor="start" x="92.02" y="-835.6" font-family="Times,serif" font-weight="bold" font-size="14.00">resource_to_attribution</text>
<polygon fill="none" stroke="black" points="43.37,-804.6 43.37,-827.4 66.87,-827.4 66.87,-804.6 43.37,-804.6"/>
<text xml:space="preserve" text-anchor="start" x="46.37" y="-811.8" font-family="Times,serif" font-size="14.00">🔑 </text>
<polygon fill="none" stroke="black" points="66.87,-804.6 66.87,-827.4 217.11,-827.4 217.11,-804.6 66.87,-804.6"/>
<text xml:space="preserve" text-anchor="start" x="69.87" y="-811.8" font-family="Times,serif" font-size="14.00">resource_id</text>
<polygon fill="none" stroke="black" points="217.11,-804.6 217.11,-827.4 282.99,-827.4 282.99,-804.6 217.11,-804.6"/>
<text xml:space="preserve" text-anchor="start" x="220.11" y="-811.8" font-family="Times,serif" font-size="14.00">INTEGER</text>
<polygon fill="none" stroke="black" points="43.37,-781.8 43.37,-804.6 66.87,-804.6 66.87,-781.8 43.37,-781.8"/>
<text xml:space="preserve" text-anchor="start" x="46.37" y="-789" font-family="Times,serif" font-size="14.00">🔑 </text>
<polygon fill="none" stroke="black" points="66.87,-781.8 66.87,-804.6 217.11,-804.6 217.11,-781.8 66.87,-781.8"/>
<text xml:space="preserve" text-anchor="start" x="69.87" y="-789" font-family="Times,serif" font-size="14.00">attribution_uuid</text>
<polygon fill="none" stroke="black" points="217.11,-781.8 217.11,-804.6 282.99,-804.6 282.99,-781.8 217.11,-781.8"/>
<text xml:space="preserve" text-anchor="start" x="220.11" y="-789" font-family="Times,serif" font-size="14.00">TEXT</text>
<polygon fill="none" stroke="black" points="43.37,-759 43.37,-781.8 66.87,-781.8 66.87,-759 43.37,-759"/>
<g id="a_node2_0"><a xlink:title="Denormalized data for faster checking if a resource has manual/external attribution">
<polygon fill="none" stroke="black" points="66.87,-759 66.87,-781.8 217.11,-781.8 217.11,-759 66.87,-759"/>
<text xml:space="preserve" text-anchor="start" x="69.87" y="-766.2" font-family="Times,serif" font-size="14.00">attribution_is_external 📝</text>
</a>
</g>
<polygon fill="none" stroke="black" points="217.11,-759 217.11,-781.8 282.99,-781.8 282.99,-759 217.11,-759"/>
<text xml:space="preserve" text-anchor="start" x="220.11" y="-766.2" font-family="Times,serif" font-size="14.00">INTEGER</text>
</g>
<!-- resource -->
<g id="node5" class="node">
<title>resource</title>
<polygon fill="none" stroke="black" points="397.55,-943.8 397.55,-966.6 640.67,-966.6 640.67,-943.8 397.55,-943.8"/>
<text xml:space="preserve" text-anchor="start" x="493.46" y="-952" font-family="Times,serif" font-weight="bold" font-size="14.00">resource</text>
<polygon fill="none" stroke="black" points="397.55,-921 397.55,-943.8 421.05,-943.8 421.05,-921 397.55,-921"/>
<text xml:space="preserve" text-anchor="start" x="400.55" y="-928.2" font-family="Times,serif" font-size="14.00">🔑 </text>
<polygon fill="none" stroke="black" points="421.05,-921 421.05,-943.8 568.58,-943.8 568.58,-921 421.05,-921"/>
<text xml:space="preserve" text-anchor="start" x="424.05" y="-928.2" font-family="Times,serif" font-size="14.00">id</text>
<polygon fill="none" stroke="black" points="568.58,-921 568.58,-943.8 640.67,-943.8 640.67,-921 568.58,-921"/>
<text xml:space="preserve" text-anchor="start" x="571.58" y="-928.2" font-family="Times,serif" font-size="14.00">INTEGER</text>
<polygon fill="none" stroke="black" points="397.55,-898.2 397.55,-921 421.05,-921 421.05,-898.2 397.55,-898.2"/>
<g id="a_node5_1"><a xlink:title="Without trailing slash. The path of the root resource is the empty string">
<polygon fill="none" stroke="black" points="421.05,-898.2 421.05,-921 568.58,-921 568.58,-898.2 421.05,-898.2"/>
<text xml:space="preserve" text-anchor="start" x="424.05" y="-905.4" font-family="Times,serif" font-size="14.00">path 📝</text>
</a>
</g>
<polygon fill="none" stroke="black" points="568.58,-898.2 568.58,-921 640.67,-921 640.67,-898.2 568.58,-898.2"/>
<text xml:space="preserve" text-anchor="start" x="571.58" y="-905.4" font-family="Times,serif" font-size="14.00">TEXT</text>
<polygon fill="none" stroke="black" points="397.55,-875.4 397.55,-898.2 421.05,-898.2 421.05,-875.4 397.55,-875.4"/>
<g id="a_node5_2"><a xlink:title="The name of the root resource is the empty string">
<polygon fill="none" stroke="black" points="421.05,-875.4 421.05,-898.2 568.58,-898.2 568.58,-875.4 421.05,-875.4"/>
<text xml:space="preserve" text-anchor="start" x="424.05" y="-882.6" font-family="Times,serif" font-size="14.00">name 📝</text>
</a>
</g>
<polygon fill="none" stroke="black" points="568.58,-875.4 568.58,-898.2 640.67,-898.2 640.67,-875.4 568.58,-875.4"/>
<text xml:space="preserve" text-anchor="start" x="571.58" y="-882.6" font-family="Times,serif" font-size="14.00">TEXT</text>
<polygon fill="none" stroke="black" points="397.55,-852.6 397.55,-875.4 421.05,-875.4 421.05,-852.6 397.55,-852.6"/>
<polygon fill="none" stroke="black" points="421.05,-852.6 421.05,-875.4 568.58,-875.4 568.58,-852.6 421.05,-852.6"/>
<text xml:space="preserve" text-anchor="start" x="424.05" y="-859.8" font-family="Times,serif" font-size="14.00">parent_id</text>
<polygon fill="none" stroke="black" points="568.58,-852.6 568.58,-875.4 640.67,-875.4 640.67,-852.6 568.58,-852.6"/>
<text xml:space="preserve" text-anchor="start" x="571.58" y="-859.8" font-family="Times,serif" font-size="14.00">INTEGER?</text>
<polygon fill="none" stroke="black" points="397.55,-829.8 397.55,-852.6 421.05,-852.6 421.05,-829.8 397.55,-829.8"/>
<polygon fill="none" stroke="black" points="421.05,-829.8 421.05,-852.6 568.58,-852.6 568.58,-829.8 421.05,-829.8"/>
<text xml:space="preserve" text-anchor="start" x="424.05" y="-837" font-family="Times,serif" font-size="14.00">is_attribution_breakpoint</text>
<polygon fill="none" stroke="black" points="568.58,-829.8 568.58,-852.6 640.67,-852.6 640.67,-829.8 568.58,-829.8"/>
<text xml:space="preserve" text-anchor="start" x="571.58" y="-837" font-family="Times,serif" font-size="14.00">INTEGER</text>
<polygon fill="none" stroke="black" points="397.55,-807 397.55,-829.8 421.05,-829.8 421.05,-807 397.55,-807"/>
<polygon fill="none" stroke="black" points="421.05,-807 421.05,-829.8 568.58,-829.8 568.58,-807 421.05,-807"/>
<text xml:space="preserve" text-anchor="start" x="424.05" y="-814.2" font-family="Times,serif" font-size="14.00">is_file</text>
<polygon fill="none" stroke="black" points="568.58,-807 568.58,-829.8 640.67,-829.8 640.67,-807 568.58,-807"/>
<text xml:space="preserve" text-anchor="start" x="571.58" y="-814.2" font-family="Times,serif" font-size="14.00">INTEGER</text>
<polygon fill="none" stroke="black" points="397.55,-784.2 397.55,-807 421.05,-807 421.05,-784.2 397.55,-784.2"/>
<g id="a_node5_3"><a xlink:title="Is a directory or in files_with_children">
<polygon fill="none" stroke="black" points="421.05,-784.2 421.05,-807 568.58,-807 568.58,-784.2 421.05,-784.2"/>
<text xml:space="preserve" text-anchor="start" x="424.05" y="-791.4" font-family="Times,serif" font-size="14.00">can_have_children 📝</text>
</a>
</g>
<polygon fill="none" stroke="black" points="568.58,-784.2 568.58,-807 640.67,-807 640.67,-784.2 568.58,-784.2"/>
<text xml:space="preserve" text-anchor="start" x="571.58" y="-791.4" font-family="Times,serif" font-size="14.00">INTEGER</text>
<polygon fill="none" stroke="black" points="397.55,-761.4 397.55,-784.2 421.05,-784.2 421.05,-761.4 397.55,-761.4"/>
<g id="a_node5_4"><a xlink:title="The highest id of a descendant of this resource. As the resources are numbered depth&#45;first, this enables us to identify the children of resource R by checking if child.id is between R.id and R.max_descendant_id, which is very fast. See https://en.wikipedia.org/wiki/Nested_set_model">
<polygon fill="none" stroke="black" points="421.05,-761.4 421.05,-784.2 568.58,-784.2 568.58,-761.4 421.05,-761.4"/>
<text xml:space="preserve" text-anchor="start" x="424.05" y="-768.6" font-family="Times,serif" font-size="14.00">max_descendant_id 📝</text>
</a>
</g>
<polygon fill="none" stroke="black" points="568.58,-761.4 568.58,-784.2 640.67,-784.2 640.67,-761.4 568.58,-761.4"/>
<text xml:space="preserve" text-anchor="start" x="571.58" y="-768.6" font-family="Times,serif" font-size="14.00">INTEGER</text>
<polygon fill="none" stroke="black" points="397.55,-738.6 397.55,-761.4 421.05,-761.4 421.05,-738.6 397.55,-738.6"/>
<text xml:space="preserve" text-anchor="start" x="400.55" y="-745.8" font-family="Times,serif" font-size="14.00">🔧 </text>
<polygon fill="none" stroke="black" points="421.05,-738.6 421.05,-761.4 568.58,-761.4 568.58,-738.6 421.05,-738.6"/>
<text xml:space="preserve" text-anchor="start" x="424.05" y="-745.8" font-family="Times,serif" font-size="14.00">sort_key</text>
<polygon fill="none" stroke="black" points="568.58,-738.6 568.58,-761.4 640.67,-761.4 640.67,-738.6 568.58,-738.6"/>
<text xml:space="preserve" text-anchor="start" x="571.58" y="-745.8" font-family="Times,serif" font-size="14.00">TEXT</text>
</g>
<!-- resource_to_attribution&#45;&gt;resource -->
<g id="edge2" class="edge">
<title>resource_to_attribution:e&#45;&gt;resource:w</title>
<path fill="none" stroke="black" d="M283.99,-816C351.88,-816 327.81,-919.59 385.28,-931.32"/>
<polygon fill="black" stroke="black" points="384.76,-934.79 395.05,-932.26 385.42,-927.82 384.76,-934.79"/>
</g>
<!-- attribution -->
<g id="node6" class="node">
<title>attribution</title>
<g id="a_node6_5"><a xlink:title="External attributions (UI: &#39;signals&#39;) and manual attributions (UI: &#39;attributions&#39;)">
<polygon fill="none" stroke="black" points="370.35,-689.4 370.35,-712.2 667.87,-712.2 667.87,-689.4 370.35,-689.4"/>
<text xml:space="preserve" text-anchor="start" x="477.69" y="-697.6" font-family="Times,serif" font-weight="bold" font-size="14.00">attribution 📝</text>
</a>
</g>
<polygon fill="none" stroke="black" points="370.35,-666.6 370.35,-689.4 393.85,-689.4 393.85,-666.6 370.35,-666.6"/>
<text xml:space="preserve" text-anchor="start" x="373.35" y="-673.8" font-family="Times,serif" font-size="14.00">🔑 </text>
<polygon fill="none" stroke="black" points="393.85,-666.6 393.85,-689.4 595.78,-689.4 595.78,-666.6 393.85,-666.6"/>
<text xml:space="preserve" text-anchor="start" x="396.85" y="-673.8" font-family="Times,serif" font-size="14.00">uuid</text>
<polygon fill="none" stroke="black" points="595.78,-666.6 595.78,-689.4 667.87,-689.4 667.87,-666.6 595.78,-666.6"/>
<text xml:space="preserve" text-anchor="start" x="598.78" y="-673.8" font-family="Times,serif" font-size="14.00">TEXT</text>
<polygon fill="none" stroke="black" points="370.35,-643.8 370.35,-666.6 393.85,-666.6 393.85,-643.8 370.35,-643.8"/>
<g id="a_node6_6"><a xlink:title="All of the attribution as JSON">
<polygon fill="none" stroke="black" points="393.85,-643.8 393.85,-666.6 595.78,-666.6 595.78,-643.8 393.85,-643.8"/>
<text xml:space="preserve" text-anchor="start" x="396.85" y="-651" font-family="Times,serif" font-size="14.00">data 📝</text>
</a>
</g>
<polygon fill="none" stroke="black" points="595.78,-643.8 595.78,-666.6 667.87,-666.6 667.87,-643.8 595.78,-643.8"/>
<text xml:space="preserve" text-anchor="start" x="598.78" y="-651" font-family="Times,serif" font-size="14.00">TEXT</text>
<polygon fill="none" stroke="black" points="370.35,-621 370.35,-643.8 393.85,-643.8 393.85,-621 370.35,-621"/>
<polygon fill="none" stroke="black" points="393.85,-621 393.85,-643.8 595.78,-643.8 595.78,-621 393.85,-621"/>
<text xml:space="preserve" text-anchor="start" x="396.85" y="-628.2" font-family="Times,serif" font-size="14.00">is_external</text>
<polygon fill="none" stroke="black" points="595.78,-621 595.78,-643.8 667.87,-643.8 667.87,-621 595.78,-621"/>
<text xml:space="preserve" text-anchor="start" x="598.78" y="-628.2" font-family="Times,serif" font-size="14.00">INTEGER</text>
<polygon fill="none" stroke="black" points="370.35,-598.2 370.35,-621 393.85,-621 393.85,-598.2 370.35,-598.2"/>
<polygon fill="none" stroke="black" points="393.85,-598.2 393.85,-621 595.78,-621 595.78,-598.2 393.85,-598.2"/>
<text xml:space="preserve" text-anchor="start" x="396.85" y="-605.4" font-family="Times,serif" font-size="14.00">is_resolved</text>
<polygon fill="none" stroke="black" points="595.78,-598.2 595.78,-621 667.87,-621 667.87,-598.2 595.78,-598.2"/>
<text xml:space="preserve" text-anchor="start" x="598.78" y="-605.4" font-family="Times,serif" font-size="14.00">INTEGER</text>
<polygon fill="none" stroke="black" points="370.35,-575.4 370.35,-598.2 393.85,-598.2 393.85,-575.4 370.35,-575.4"/>
<text xml:space="preserve" text-anchor="start" x="373.35" y="-582.6" font-family="Times,serif" font-size="14.00">🔧 </text>
<polygon fill="none" stroke="black" points="393.85,-575.4 393.85,-598.2 595.78,-598.2 595.78,-575.4 393.85,-575.4"/>
<text xml:space="preserve" text-anchor="start" x="396.85" y="-582.6" font-family="Times,serif" font-size="14.00">pre_selected</text>
<polygon fill="none" stroke="black" points="595.78,-575.4 595.78,-598.2 667.87,-598.2 667.87,-575.4 595.78,-575.4"/>
<text xml:space="preserve" text-anchor="start" x="598.78" y="-582.6" font-family="Times,serif" font-size="14.00">INTEGER</text>
<polygon fill="none" stroke="black" points="370.35,-552.6 370.35,-575.4 393.85,-575.4 393.85,-552.6 370.35,-552.6"/>
<text xml:space="preserve" text-anchor="start" x="373.35" y="-559.8" font-family="Times,serif" font-size="14.00">🔧 </text>
<polygon fill="none" stroke="black" points="393.85,-552.6 393.85,-575.4 595.78,-575.4 595.78,-552.6 393.85,-552.6"/>
<text xml:space="preserve" text-anchor="start" x="396.85" y="-559.8" font-family="Times,serif" font-size="14.00">criticality</text>
<polygon fill="none" stroke="black" points="595.78,-552.6 595.78,-575.4 667.87,-575.4 667.87,-552.6 595.78,-552.6"/>
<text xml:space="preserve" text-anchor="start" x="598.78" y="-559.8" font-family="Times,serif" font-size="14.00">INTEGER?</text>
<polygon fill="none" stroke="black" points="370.35,-529.8 370.35,-552.6 393.85,-552.6 393.85,-529.8 370.35,-529.8"/>
<text xml:space="preserve" text-anchor="start" x="373.35" y="-537" font-family="Times,serif" font-size="14.00">🔧 </text>
<polygon fill="none" stroke="black" points="393.85,-529.8 393.85,-552.6 595.78,-552.6 595.78,-529.8 393.85,-529.8"/>
<text xml:space="preserve" text-anchor="start" x="396.85" y="-537" font-family="Times,serif" font-size="14.00">classification</text>
<polygon fill="none" stroke="black" points="595.78,-529.8 595.78,-552.6 667.87,-552.6 667.87,-529.8 595.78,-529.8"/>
<text xml:space="preserve" text-anchor="start" x="598.78" y="-537" font-family="Times,serif" font-size="14.00">INTEGER?</text>
<polygon fill="none" stroke="black" points="370.35,-507 370.35,-529.8 393.85,-529.8 393.85,-507 370.35,-507"/>
<text xml:space="preserve" text-anchor="start" x="373.35" y="-514.2" font-family="Times,serif" font-size="14.00">🔧 </text>
<polygon fill="none" stroke="black" points="393.85,-507 393.85,-529.8 595.78,-529.8 595.78,-507 393.85,-507"/>
<text xml:space="preserve" text-anchor="start" x="396.85" y="-514.2" font-family="Times,serif" font-size="14.00">first_party</text>
<polygon fill="none" stroke="black" points="595.78,-507 595.78,-529.8 667.87,-529.8 667.87,-507 595.78,-507"/>
<text xml:space="preserve" text-anchor="start" x="598.78" y="-514.2" font-family="Times,serif" font-size="14.00">INTEGER</text>
<polygon fill="none" stroke="black" points="370.35,-484.2 370.35,-507 393.85,-507 393.85,-484.2 370.35,-484.2"/>
<text xml:space="preserve" text-anchor="start" x="373.35" y="-491.4" font-family="Times,serif" font-size="14.00">🔧 </text>
<polygon fill="none" stroke="black" points="393.85,-484.2 393.85,-507 595.78,-507 595.78,-484.2 393.85,-484.2"/>
<text xml:space="preserve" text-anchor="start" x="396.85" y="-491.4" font-family="Times,serif" font-size="14.00">exclude_from_notice</text>
<polygon fill="none" stroke="black" points="595.78,-484.2 595.78,-507 667.87,-507 667.87,-484.2 595.78,-484.2"/>
<text xml:space="preserve" text-anchor="start" x="598.78" y="-491.4" font-family="Times,serif" font-size="14.00">INTEGER</text>
<polygon fill="none" stroke="black" points="370.35,-461.4 370.35,-484.2 393.85,-484.2 393.85,-461.4 370.35,-461.4"/>
<text xml:space="preserve" text-anchor="start" x="373.35" y="-468.6" font-family="Times,serif" font-size="14.00">🔧 </text>
<polygon fill="none" stroke="black" points="393.85,-461.4 393.85,-484.2 595.78,-484.2 595.78,-461.4 393.85,-461.4"/>
<text xml:space="preserve" text-anchor="start" x="396.85" y="-468.6" font-family="Times,serif" font-size="14.00">was_preferred</text>
<polygon fill="none" stroke="black" points="595.78,-461.4 595.78,-484.2 667.87,-484.2 667.87,-461.4 595.78,-461.4"/>
<text xml:space="preserve" text-anchor="start" x="598.78" y="-468.6" font-family="Times,serif" font-size="14.00">INTEGER</text>
<polygon fill="none" stroke="black" points="370.35,-438.6 370.35,-461.4 393.85,-461.4 393.85,-438.6 370.35,-438.6"/>
<text xml:space="preserve" text-anchor="start" x="373.35" y="-445.8" font-family="Times,serif" font-size="14.00">🔧 </text>
<polygon fill="none" stroke="black" points="393.85,-438.6 393.85,-461.4 595.78,-461.4 595.78,-438.6 393.85,-438.6"/>
<text xml:space="preserve" text-anchor="start" x="396.85" y="-445.8" font-family="Times,serif" font-size="14.00">copyright</text>
<polygon fill="none" stroke="black" points="595.78,-438.6 595.78,-461.4 667.87,-461.4 667.87,-438.6 595.78,-438.6"/>
<text xml:space="preserve" text-anchor="start" x="598.78" y="-445.8" font-family="Times,serif" font-size="14.00">TEXT?</text>
<polygon fill="none" stroke="black" points="370.35,-415.8 370.35,-438.6 393.85,-438.6 393.85,-415.8 370.35,-415.8"/>
<text xml:space="preserve" text-anchor="start" x="373.35" y="-423" font-family="Times,serif" font-size="14.00">🔧 </text>
<polygon fill="none" stroke="black" points="393.85,-415.8 393.85,-438.6 595.78,-438.6 595.78,-415.8 393.85,-415.8"/>
<text xml:space="preserve" text-anchor="start" x="396.85" y="-423" font-family="Times,serif" font-size="14.00">license_name</text>
<polygon fill="none" stroke="black" points="595.78,-415.8 595.78,-438.6 667.87,-438.6 667.87,-415.8 595.78,-415.8"/>
<text xml:space="preserve" text-anchor="start" x="598.78" y="-423" font-family="Times,serif" font-size="14.00">TEXT?</text>
<polygon fill="none" stroke="black" points="370.35,-393 370.35,-415.8 393.85,-415.8 393.85,-393 370.35,-393"/>
<text xml:space="preserve" text-anchor="start" x="373.35" y="-400.2" font-family="Times,serif" font-size="14.00">🔧 </text>
<polygon fill="none" stroke="black" points="393.85,-393 393.85,-415.8 595.78,-415.8 595.78,-393 393.85,-393"/>
<text xml:space="preserve" text-anchor="start" x="396.85" y="-400.2" font-family="Times,serif" font-size="14.00">url</text>
<polygon fill="none" stroke="black" points="595.78,-393 595.78,-415.8 667.87,-415.8 667.87,-393 595.78,-393"/>
<text xml:space="preserve" text-anchor="start" x="598.78" y="-400.2" font-family="Times,serif" font-size="14.00">TEXT?</text>
<polygon fill="none" stroke="black" points="370.35,-370.2 370.35,-393 393.85,-393 393.85,-370.2 370.35,-370.2"/>
<text xml:space="preserve" text-anchor="start" x="373.35" y="-377.4" font-family="Times,serif" font-size="14.00">🔧 </text>
<polygon fill="none" stroke="black" points="393.85,-370.2 393.85,-393 595.78,-393 595.78,-370.2 393.85,-370.2"/>
<text xml:space="preserve" text-anchor="start" x="396.85" y="-377.4" font-family="Times,serif" font-size="14.00">package_name</text>
<polygon fill="none" stroke="black" points="595.78,-370.2 595.78,-393 667.87,-393 667.87,-370.2 595.78,-370.2"/>
<text xml:space="preserve" text-anchor="start" x="598.78" y="-377.4" font-family="Times,serif" font-size="14.00">TEXT?</text>
<polygon fill="none" stroke="black" points="370.35,-347.4 370.35,-370.2 393.85,-370.2 393.85,-347.4 370.35,-347.4"/>
<text xml:space="preserve" text-anchor="start" x="373.35" y="-354.6" font-family="Times,serif" font-size="14.00">🔧 </text>
<polygon fill="none" stroke="black" points="393.85,-347.4 393.85,-370.2 595.78,-370.2 595.78,-347.4 393.85,-347.4"/>
<text xml:space="preserve" text-anchor="start" x="396.85" y="-354.6" font-family="Times,serif" font-size="14.00">package_namespace</text>
<polygon fill="none" stroke="black" points="595.78,-347.4 595.78,-370.2 667.87,-370.2 667.87,-347.4 595.78,-347.4"/>
<text xml:space="preserve" text-anchor="start" x="598.78" y="-354.6" font-family="Times,serif" font-size="14.00">TEXT?</text>
<polygon fill="none" stroke="black" points="370.35,-324.6 370.35,-347.4 393.85,-347.4 393.85,-324.6 370.35,-324.6"/>
<text xml:space="preserve" text-anchor="start" x="373.35" y="-331.8" font-family="Times,serif" font-size="14.00">🔧 </text>
<polygon fill="none" stroke="black" points="393.85,-324.6 393.85,-347.4 595.78,-347.4 595.78,-324.6 393.85,-324.6"/>
<text xml:space="preserve" text-anchor="start" x="396.85" y="-331.8" font-family="Times,serif" font-size="14.00">package_version</text>
<polygon fill="none" stroke="black" points="595.78,-324.6 595.78,-347.4 667.87,-347.4 667.87,-324.6 595.78,-324.6"/>
<text xml:space="preserve" text-anchor="start" x="598.78" y="-331.8" font-family="Times,serif" font-size="14.00">TEXT?</text>
<polygon fill="none" stroke="black" points="370.35,-301.8 370.35,-324.6 393.85,-324.6 393.85,-301.8 370.35,-301.8"/>
<text xml:space="preserve" text-anchor="start" x="373.35" y="-309" font-family="Times,serif" font-size="14.00">🔧 </text>
<polygon fill="none" stroke="black" points="393.85,-301.8 393.85,-324.6 595.78,-324.6 595.78,-301.8 393.85,-301.8"/>
<text xml:space="preserve" text-anchor="start" x="396.85" y="-309" font-family="Times,serif" font-size="14.00">package_type</text>
<polygon fill="none" stroke="black" points="595.78,-301.8 595.78,-324.6 667.87,-324.6 667.87,-301.8 595.78,-301.8"/>
<text xml:space="preserve" text-anchor="start" x="598.78" y="-309" font-family="Times,serif" font-size="14.00">TEXT?</text>
<polygon fill="none" stroke="black" points="370.35,-279 370.35,-301.8 393.85,-301.8 393.85,-279 370.35,-279"/>
<text xml:space="preserve" text-anchor="start" x="373.35" y="-286.2" font-family="Times,serif" font-size="14.00">🔧 </text>
<polygon fill="none" stroke="black" points="393.85,-279 393.85,-301.8 595.78,-301.8 595.78,-279 393.85,-279"/>
<text xml:space="preserve" text-anchor="start" x="396.85" y="-286.2" font-family="Times,serif" font-size="14.00">attribution_confidence</text>
<polygon fill="none" stroke="black" points="595.78,-279 595.78,-301.8 667.87,-301.8 667.87,-279 595.78,-279"/>
<text xml:space="preserve" text-anchor="start" x="598.78" y="-286.2" font-family="Times,serif" font-size="14.00">INTEGER?</text>
<polygon fill="none" stroke="black" points="370.35,-256.2 370.35,-279 393.85,-279 393.85,-256.2 370.35,-256.2"/>
<text xml:space="preserve" text-anchor="start" x="373.35" y="-263.4" font-family="Times,serif" font-size="14.00">🔧 </text>
<polygon fill="none" stroke="black" points="393.85,-256.2 393.85,-279 595.78,-279 595.78,-256.2 393.85,-256.2"/>
<text xml:space="preserve" text-anchor="start" x="396.85" y="-263.4" font-family="Times,serif" font-size="14.00">follow_up</text>
<polygon fill="none" stroke="black" points="595.78,-256.2 595.78,-279 667.87,-279 667.87,-256.2 595.78,-256.2"/>
<text xml:space="preserve" text-anchor="start" x="598.78" y="-263.4" font-family="Times,serif" font-size="14.00">INTEGER</text>
<polygon fill="none" stroke="black" points="370.35,-233.4 370.35,-256.2 393.85,-256.2 393.85,-233.4 370.35,-233.4"/>
<text xml:space="preserve" text-anchor="start" x="373.35" y="-240.6" font-family="Times,serif" font-size="14.00">🔧 </text>
<polygon fill="none" stroke="black" points="393.85,-233.4 393.85,-256.2 595.78,-256.2 595.78,-233.4 393.85,-233.4"/>
<text xml:space="preserve" text-anchor="start" x="396.85" y="-240.6" font-family="Times,serif" font-size="14.00">needs_review</text>
<polygon fill="none" stroke="black" points="595.78,-233.4 595.78,-256.2 667.87,-256.2 667.87,-233.4 595.78,-233.4"/>
<text xml:space="preserve" text-anchor="start" x="598.78" y="-240.6" font-family="Times,serif" font-size="14.00">INTEGER</text>
<polygon fill="none" stroke="black" points="370.35,-210.6 370.35,-233.4 393.85,-233.4 393.85,-210.6 370.35,-210.6"/>
<text xml:space="preserve" text-anchor="start" x="373.35" y="-217.8" font-family="Times,serif" font-size="14.00">🔧 </text>
<polygon fill="none" stroke="black" points="393.85,-210.6 393.85,-233.4 595.78,-233.4 595.78,-210.6 393.85,-210.6"/>
<text xml:space="preserve" text-anchor="start" x="396.85" y="-217.8" font-family="Times,serif" font-size="14.00">preferred</text>
<polygon fill="none" stroke="black" points="595.78,-210.6 595.78,-233.4 667.87,-233.4 667.87,-210.6 595.78,-210.6"/>
<text xml:space="preserve" text-anchor="start" x="598.78" y="-217.8" font-family="Times,serif" font-size="14.00">INTEGER</text>
<polygon fill="none" stroke="black" points="370.35,-187.8 370.35,-210.6 393.85,-210.6 393.85,-187.8 370.35,-187.8"/>
<text xml:space="preserve" text-anchor="start" x="373.35" y="-195" font-family="Times,serif" font-size="14.00">🔧 </text>
<polygon fill="none" stroke="black" points="393.85,-187.8 393.85,-210.6 595.78,-210.6 595.78,-187.8 393.85,-187.8"/>
<text xml:space="preserve" text-anchor="start" x="396.85" y="-195" font-family="Times,serif" font-size="14.00">original_attribution_was_preferred</text>
<polygon fill="none" stroke="black" points="595.78,-187.8 595.78,-210.6 667.87,-210.6 667.87,-187.8 595.78,-187.8"/>
<text xml:space="preserve" text-anchor="start" x="598.78" y="-195" font-family="Times,serif" font-size="14.00">INTEGER</text>
<polygon fill="none" stroke="black" points="370.35,-165 370.35,-187.8 393.85,-187.8 393.85,-165 370.35,-165"/>
<text xml:space="preserve" text-anchor="start" x="373.35" y="-172.2" font-family="Times,serif" font-size="14.00">🔧 </text>
<polygon fill="none" stroke="black" points="393.85,-165 393.85,-187.8 595.78,-187.8 595.78,-165 393.85,-165"/>
<text xml:space="preserve" text-anchor="start" x="396.85" y="-172.2" font-family="Times,serif" font-size="14.00">comment</text>
<polygon fill="none" stroke="black" points="595.78,-165 595.78,-187.8 667.87,-187.8 667.87,-165 595.78,-165"/>
<text xml:space="preserve" text-anchor="start" x="598.78" y="-172.2" font-family="Times,serif" font-size="14.00">TEXT?</text>
</g>
<!-- resource_to_attribution&#45;&gt;attribution -->
<g id="edge1" class="edge">
<title>resource_to_attribution:e&#45;&gt;attribution:w</title>
<path fill="none" stroke="black" d="M283.99,-793.2C343.48,-793.2 310.75,-692.79 358,-679.46"/>
<polygon fill="black" stroke="black" points="358.38,-682.94 367.85,-678.19 357.49,-675.99 358.38,-682.94"/>
</g>
<!-- source_for_attribution -->
<g id="node3" class="node">
<title>source_for_attribution</title>
<polygon fill="none" stroke="black" points="8,-413.8 8,-436.6 318.35,-436.6 318.35,-413.8 8,-413.8"/>
<text xml:space="preserve" text-anchor="start" x="95.13" y="-422" font-family="Times,serif" font-weight="bold" font-size="14.00">source_for_attribution</text>
<polygon fill="none" stroke="black" points="8,-391 8,-413.8 31.5,-413.8 31.5,-391 8,-391"/>
<text xml:space="preserve" text-anchor="start" x="11" y="-398.2" font-family="Times,serif" font-size="14.00">🔑 </text>
<polygon fill="none" stroke="black" points="31.5,-391 31.5,-413.8 246.26,-413.8 246.26,-391 31.5,-391"/>
<text xml:space="preserve" text-anchor="start" x="34.5" y="-398.2" font-family="Times,serif" font-size="14.00">attribution_uuid</text>
<polygon fill="none" stroke="black" points="246.26,-391 246.26,-413.8 318.35,-413.8 318.35,-391 246.26,-391"/>
<text xml:space="preserve" text-anchor="start" x="249.26" y="-398.2" font-family="Times,serif" font-size="14.00">TEXT</text>
<polygon fill="none" stroke="black" points="8,-368.2 8,-391 31.5,-391 31.5,-368.2 8,-368.2"/>
<g id="a_node3_7"><a xlink:title="Mainly contains names of external_attribution_source, but can also contain unknown names">
<polygon fill="none" stroke="black" points="31.5,-368.2 31.5,-391 246.26,-391 246.26,-368.2 31.5,-368.2"/>
<text xml:space="preserve" text-anchor="start" x="34.5" y="-375.4" font-family="Times,serif" font-size="14.00">external_attribution_source_name 📝</text>
</a>
</g>
<polygon fill="none" stroke="black" points="246.26,-368.2 246.26,-391 318.35,-391 318.35,-368.2 246.26,-368.2"/>
<text xml:space="preserve" text-anchor="start" x="249.26" y="-375.4" font-family="Times,serif" font-size="14.00">TEXT</text>
<polygon fill="none" stroke="black" points="8,-345.4 8,-368.2 31.5,-368.2 31.5,-345.4 8,-345.4"/>
<polygon fill="none" stroke="black" points="31.5,-345.4 31.5,-368.2 246.26,-368.2 246.26,-345.4 31.5,-345.4"/>
<text xml:space="preserve" text-anchor="start" x="34.5" y="-352.6" font-family="Times,serif" font-size="14.00">document_confidence</text>
<polygon fill="none" stroke="black" points="246.26,-345.4 246.26,-368.2 318.35,-368.2 318.35,-345.4 246.26,-345.4"/>
<text xml:space="preserve" text-anchor="start" x="249.26" y="-352.6" font-family="Times,serif" font-size="14.00">INTEGER?</text>
<polygon fill="none" stroke="black" points="8,-322.6 8,-345.4 31.5,-345.4 31.5,-322.6 8,-322.6"/>
<polygon fill="none" stroke="black" points="31.5,-322.6 31.5,-345.4 246.26,-345.4 246.26,-322.6 31.5,-322.6"/>
<text xml:space="preserve" text-anchor="start" x="34.5" y="-329.8" font-family="Times,serif" font-size="14.00">additional_name</text>
<polygon fill="none" stroke="black" points="246.26,-322.6 246.26,-345.4 318.35,-345.4 318.35,-322.6 246.26,-322.6"/>
<text xml:space="preserve" text-anchor="start" x="249.26" y="-329.8" font-family="Times,serif" font-size="14.00">TEXT?</text>
</g>
<!-- external_attribution_source -->
<g id="node4" class="node">
<title>external_attribution_source</title>
<polygon fill="none" stroke="black" points="399.91,-116.4 399.91,-139.2 638.32,-139.2 638.32,-116.4 399.91,-116.4"/>
<text xml:space="preserve" text-anchor="start" x="435.52" y="-124.6" font-family="Times,serif" font-weight="bold" font-size="14.00">external_attribution_source</text>
<polygon fill="none" stroke="black" points="399.91,-93.6 399.91,-116.4 423.41,-116.4 423.41,-93.6 399.91,-93.6"/>
<text xml:space="preserve" text-anchor="start" x="402.91" y="-100.8" font-family="Times,serif" font-size="14.00">🔑 </text>
<polygon fill="none" stroke="black" points="423.41,-93.6 423.41,-116.4 572.44,-116.4 572.44,-93.6 423.41,-93.6"/>
<text xml:space="preserve" text-anchor="start" x="426.41" y="-100.8" font-family="Times,serif" font-size="14.00">name</text>
<polygon fill="none" stroke="black" points="572.44,-93.6 572.44,-116.4 638.32,-116.4 638.32,-93.6 572.44,-93.6"/>
<text xml:space="preserve" text-anchor="start" x="575.44" y="-100.8" font-family="Times,serif" font-size="14.00">TEXT</text>
<polygon fill="none" stroke="black" points="399.91,-70.8 399.91,-93.6 423.41,-93.6 423.41,-70.8 399.91,-70.8"/>
<polygon fill="none" stroke="black" points="423.41,-70.8 423.41,-93.6 572.44,-93.6 572.44,-70.8 423.41,-70.8"/>
<text xml:space="preserve" text-anchor="start" x="426.41" y="-78" font-family="Times,serif" font-size="14.00">priority</text>
<polygon fill="none" stroke="black" points="572.44,-70.8 572.44,-93.6 638.32,-93.6 638.32,-70.8 572.44,-70.8"/>
<text xml:space="preserve" text-anchor="start" x="575.44" y="-78" font-family="Times,serif" font-size="14.00">INTEGER</text>
<polygon fill="none" stroke="black" points="399.91,-48 399.91,-70.8 423.41,-70.8 423.41,-48 399.91,-48"/>
<polygon fill="none" stroke="black" points="423.41,-48 423.41,-70.8 572.44,-70.8 572.44,-48 423.41,-48"/>
<text xml:space="preserve" text-anchor="start" x="426.41" y="-55.2" font-family="Times,serif" font-size="14.00">is_relevant_for_preferred</text>
<polygon fill="none" stroke="black" points="572.44,-48 572.44,-70.8 638.32,-70.8 638.32,-48 572.44,-48"/>
<text xml:space="preserve" text-anchor="start" x="575.44" y="-55.2" font-family="Times,serif" font-size="14.00">INTEGER</text>
</g>
<!-- source_for_attribution&#45;&gt;external_attribution_source -->
<g id="edge5" class="edge">
<title>source_for_attribution:e&#45;&gt;external_attribution_source:w</title>
<path fill="none" stroke="black" stroke-dasharray="5,2" d="M319.35,-379.6C370.91,-379.6 341.06,-198.56 362.35,-151.6 371.44,-131.56 372.48,-112.46 387.96,-106.73"/>
<polygon fill="black" stroke="black" points="388.08,-110.26 397.41,-105.24 386.99,-103.34 388.08,-110.26"/>
</g>
<!-- source_for_attribution&#45;&gt;attribution -->
<g id="edge3" class="edge">
<title>source_for_attribution:e&#45;&gt;attribution:w</title>
<path fill="none" stroke="black" d="M319.35,-402.4C439.71,-402.4 257.72,-660 358,-677.11"/>
<polygon fill="black" stroke="black" points="357.6,-680.59 367.84,-677.88 358.15,-673.61 357.6,-680.59"/>
</g>
<!-- resource&#45;&gt;resource -->
<g id="edge4" class="edge">
<title>resource:e&#45;&gt;resource:w</title>
<path fill="none" stroke="black" d="M640.67,-864C729.66,-909.33 729.66,-988.6 519.11,-988.6 316.79,-988.6 308.89,-977.52 387.54,-937.43"/>
<polygon fill="black" stroke="black" points="388.84,-940.7 396.2,-933.08 385.69,-934.44 388.84,-940.7"/>
</g>
</g>
</svg>
