<?xml version="1.0" encoding="UTF-8" standalone="no"?>
<!DOCTYPE svg PUBLIC "-//W3C//DTD SVG 1.1//EN"
 "http://www.w3.org/Graphics/SVG/1.1/DTD/svg11.dtd">
<!-- Generated by graphviz version 14.1.3 (20260303.0454)
 -->
<!-- Title: g Pages: 1 -->
<svg width="705pt" height="1020pt"
 viewBox="0.00 0.00 705.00 1020.00" xmlns="http://www.w3.org/2000/svg" xmlns:xlink="http://www.w3.org/1999/xlink">
<g id="graph0" class="graph" transform="scale(1 1) rotate(0) translate(4 1015.6)">
<title>g</title>
<polygon fill="white" stroke="none" points="-4,4 -4,-1015.6 701.15,-1015.6 701.15,4 -4,4"/>
<text xml:space="preserve" text-anchor="middle" x="348.58" y="-31" font-family="Times,serif" font-size="10.00">Open the SVG in a browser to see tooltips on comments 📝</text>
<text xml:space="preserve" text-anchor="middle" x="348.58" y="-19" font-family="Times,serif" font-size="10.00">🔑: Primary key</text>
<text xml:space="preserve" text-anchor="middle" x="348.58" y="-7" font-family="Times,serif" font-size="10.00">🔧: Generated column</text>
<!-- frequent_license -->
<g id="node1" class="node">
<title>frequent_license</title>
<polygon fill="none" stroke="black" points="82.06,-285.8 82.06,-308.6 244.3,-308.6 244.3,-285.8 82.06,-285.8"/>
<text xml:space="preserve" text-anchor="start" x="114.19" y="-294" font-family="Times,serif" font-weight="bold" font-size="14.00">frequent_license</text>
<polygon fill="none" stroke="black" points="82.06,-263 82.06,-285.8 105.56,-285.8 105.56,-263 82.06,-263"/>
<text xml:space="preserve" text-anchor="start" x="85.06" y="-268.8" font-family="Times,serif" font-size="14.00">🔑 </text>
<polygon fill="none" stroke="black" points="105.56,-263 105.56,-285.8 178.42,-285.8 178.42,-263 105.56,-263"/>
<text xml:space="preserve" text-anchor="start" x="108.56" y="-268.8" font-family="Times,serif" font-size="14.00">id</text>
<polygon fill="none" stroke="black" points="178.42,-263 178.42,-285.8 244.3,-285.8 244.3,-263 178.42,-263"/>
<text xml:space="preserve" text-anchor="start" x="181.42" y="-268.8" font-family="Times,serif" font-size="14.00">INTEGER</text>
<polygon fill="none" stroke="black" points="82.06,-240.2 82.06,-263 105.56,-263 105.56,-240.2 82.06,-240.2"/>
<polygon fill="none" stroke="black" points="105.56,-240.2 105.56,-263 178.42,-263 178.42,-240.2 105.56,-240.2"/>
<text xml:space="preserve" text-anchor="start" x="108.56" y="-246" font-family="Times,serif" font-size="14.00">short_name</text>
<polygon fill="none" stroke="black" points="178.42,-240.2 178.42,-263 244.3,-263 244.3,-240.2 178.42,-240.2"/>
<text xml:space="preserve" text-anchor="start" x="181.42" y="-246" font-family="Times,serif" font-size="14.00">TEXT</text>
<polygon fill="none" stroke="black" points="82.06,-217.4 82.06,-240.2 105.56,-240.2 105.56,-217.4 82.06,-217.4"/>
<polygon fill="none" stroke="black" points="105.56,-217.4 105.56,-240.2 178.42,-240.2 178.42,-217.4 105.56,-217.4"/>
<text xml:space="preserve" text-anchor="start" x="108.56" y="-223.2" font-family="Times,serif" font-size="14.00">full_name</text>
<polygon fill="none" stroke="black" points="178.42,-217.4 178.42,-240.2 244.3,-240.2 244.3,-217.4 178.42,-217.4"/>
<text xml:space="preserve" text-anchor="start" x="181.42" y="-223.2" font-family="Times,serif" font-size="14.00">TEXT</text>
<polygon fill="none" stroke="black" points="82.06,-194.6 82.06,-217.4 105.56,-217.4 105.56,-194.6 82.06,-194.6"/>
<polygon fill="none" stroke="black" points="105.56,-194.6 105.56,-217.4 178.42,-217.4 178.42,-194.6 105.56,-194.6"/>
<text xml:space="preserve" text-anchor="start" x="108.56" y="-200.4" font-family="Times,serif" font-size="14.00">license_text</text>
<polygon fill="none" stroke="black" points="178.42,-194.6 178.42,-217.4 244.3,-217.4 244.3,-194.6 178.42,-194.6"/>
<text xml:space="preserve" text-anchor="start" x="181.42" y="-200.4" font-family="Times,serif" font-size="14.00">TEXT?</text>
</g>
<!-- resource_to_attribution -->
<g id="node2" class="node">
<title>resource_to_attribution</title>
<polygon fill="none" stroke="black" points="43.37,-850.4 43.37,-873.2 282.99,-873.2 282.99,-850.4 43.37,-850.4"/>
<text xml:space="preserve" text-anchor="start" x="92.02" y="-858.6" font-family="Times,serif" font-weight="bold" font-size="14.00">resource_to_attribution</text>
<polygon fill="none" stroke="black" points="43.37,-827.6 43.37,-850.4 66.87,-850.4 66.87,-827.6 43.37,-827.6"/>
<text xml:space="preserve" text-anchor="start" x="46.37" y="-833.4" font-family="Times,serif" font-size="14.00">🔑 </text>
<polygon fill="none" stroke="black" points="66.87,-827.6 66.87,-850.4 217.11,-850.4 217.11,-827.6 66.87,-827.6"/>
<text xml:space="preserve" text-anchor="start" x="69.87" y="-833.4" font-family="Times,serif" font-size="14.00">resource_id</text>
<polygon fill="none" stroke="black" points="217.11,-827.6 217.11,-850.4 282.99,-850.4 282.99,-827.6 217.11,-827.6"/>
<text xml:space="preserve" text-anchor="start" x="220.11" y="-833.4" font-family="Times,serif" font-size="14.00">INTEGER</text>
<polygon fill="none" stroke="black" points="43.37,-804.8 43.37,-827.6 66.87,-827.6 66.87,-804.8 43.37,-804.8"/>
<text xml:space="preserve" text-anchor="start" x="46.37" y="-810.6" font-family="Times,serif" font-size="14.00">🔑 </text>
<polygon fill="none" stroke="black" points="66.87,-804.8 66.87,-827.6 217.11,-827.6 217.11,-804.8 66.87,-804.8"/>
<text xml:space="preserve" text-anchor="start" x="69.87" y="-810.6" font-family="Times,serif" font-size="14.00">attribution_uuid</text>
<polygon fill="none" stroke="black" points="217.11,-804.8 217.11,-827.6 282.99,-827.6 282.99,-804.8 217.11,-804.8"/>
<text xml:space="preserve" text-anchor="start" x="220.11" y="-810.6" font-family="Times,serif" font-size="14.00">TEXT</text>
<polygon fill="none" stroke="black" points="43.37,-782 43.37,-804.8 66.87,-804.8 66.87,-782 43.37,-782"/>
<g id="a_node2_0"><a xlink:title="Denormalized data for faster checking if a resource has manual/external attribution">
<polygon fill="none" stroke="black" points="66.87,-782 66.87,-804.8 217.11,-804.8 217.11,-782 66.87,-782"/>
<text xml:space="preserve" text-anchor="start" x="69.87" y="-787.8" font-family="Times,serif" font-size="14.00">attribution_is_external 📝</text>
</a>
</g>
<polygon fill="none" stroke="black" points="217.11,-782 217.11,-804.8 282.99,-804.8 282.99,-782 217.11,-782"/>
<text xml:space="preserve" text-anchor="start" x="220.11" y="-787.8" font-family="Times,serif" font-size="14.00">INTEGER</text>
</g>
<!-- resource -->
<g id="node5" class="node">
<title>resource</title>
<polygon fill="none" stroke="black" points="397.55,-966.8 397.55,-989.6 640.67,-989.6 640.67,-966.8 397.55,-966.8"/>
<text xml:space="preserve" text-anchor="start" x="493.46" y="-975" font-family="Times,serif" font-weight="bold" font-size="14.00">resource</text>
<polygon fill="none" stroke="black" points="397.55,-944 397.55,-966.8 421.05,-966.8 421.05,-944 397.55,-944"/>
<text xml:space="preserve" text-anchor="start" x="400.55" y="-949.8" font-family="Times,serif" font-size="14.00">🔑 </text>
<polygon fill="none" stroke="black" points="421.05,-944 421.05,-966.8 568.58,-966.8 568.58,-944 421.05,-944"/>
<text xml:space="preserve" text-anchor="start" x="424.05" y="-949.8" font-family="Times,serif" font-size="14.00">id</text>
<polygon fill="none" stroke="black" points="568.58,-944 568.58,-966.8 640.67,-966.8 640.67,-944 568.58,-944"/>
<text xml:space="preserve" text-anchor="start" x="571.58" y="-949.8" font-family="Times,serif" font-size="14.00">INTEGER</text>
<polygon fill="none" stroke="black" points="397.55,-921.2 397.55,-944 421.05,-944 421.05,-921.2 397.55,-921.2"/>
<g id="a_node5_1"><a xlink:title="Without trailing slash. The path of the root resource is the empty string">
<polygon fill="none" stroke="black" points="421.05,-921.2 421.05,-944 568.58,-944 568.58,-921.2 421.05,-921.2"/>
<text xml:space="preserve" text-anchor="start" x="424.05" y="-927" font-family="Times,serif" font-size="14.00">path 📝</text>
</a>
</g>
<polygon fill="none" stroke="black" points="568.58,-921.2 568.58,-944 640.67,-944 640.67,-921.2 568.58,-921.2"/>
<text xml:space="preserve" text-anchor="start" x="571.58" y="-927" font-family="Times,serif" font-size="14.00">TEXT</text>
<polygon fill="none" stroke="black" points="397.55,-898.4 397.55,-921.2 421.05,-921.2 421.05,-898.4 397.55,-898.4"/>
<g id="a_node5_2"><a xlink:title="The name of the root resource is the empty string">
<polygon fill="none" stroke="black" points="421.05,-898.4 421.05,-921.2 568.58,-921.2 568.58,-898.4 421.05,-898.4"/>
<text xml:space="preserve" text-anchor="start" x="424.05" y="-904.2" font-family="Times,serif" font-size="14.00">name 📝</text>
</a>
</g>
<polygon fill="none" stroke="black" points="568.58,-898.4 568.58,-921.2 640.67,-921.2 640.67,-898.4 568.58,-898.4"/>
<text xml:space="preserve" text-anchor="start" x="571.58" y="-904.2" font-family="Times,serif" font-size="14.00">TEXT</text>
<polygon fill="none" stroke="black" points="397.55,-875.6 397.55,-898.4 421.05,-898.4 421.05,-875.6 397.55,-875.6"/>
<polygon fill="none" stroke="black" points="421.05,-875.6 421.05,-898.4 568.58,-898.4 568.58,-875.6 421.05,-875.6"/>
<text xml:space="preserve" text-anchor="start" x="424.05" y="-881.4" font-family="Times,serif" font-size="14.00">parent_id</text>
<polygon fill="none" stroke="black" points="568.58,-875.6 568.58,-898.4 640.67,-898.4 640.67,-875.6 568.58,-875.6"/>
<text xml:space="preserve" text-anchor="start" x="571.58" y="-881.4" font-family="Times,serif" font-size="14.00">INTEGER?</text>
<polygon fill="none" stroke="black" points="397.55,-852.8 397.55,-875.6 421.05,-875.6 421.05,-852.8 397.55,-852.8"/>
<polygon fill="none" stroke="black" points="421.05,-852.8 421.05,-875.6 568.58,-875.6 568.58,-852.8 421.05,-852.8"/>
<text xml:space="preserve" text-anchor="start" x="424.05" y="-858.6" font-family="Times,serif" font-size="14.00">is_attribution_breakpoint</text>
<polygon fill="none" stroke="black" points="568.58,-852.8 568.58,-875.6 640.67,-875.6 640.67,-852.8 568.58,-852.8"/>
<text xml:space="preserve" text-anchor="start" x="571.58" y="-858.6" font-family="Times,serif" font-size="14.00">INTEGER</text>
<polygon fill="none" stroke="black" points="397.55,-830 397.55,-852.8 421.05,-852.8 421.05,-830 397.55,-830"/>
<polygon fill="none" stroke="black" points="421.05,-830 421.05,-852.8 568.58,-852.8 568.58,-830 421.05,-830"/>
<text xml:space="preserve" text-anchor="start" x="424.05" y="-835.8" font-family="Times,serif" font-size="14.00">is_file</text>
<polygon fill="none" stroke="black" points="568.58,-830 568.58,-852.8 640.67,-852.8 640.67,-830 568.58,-830"/>
<text xml:space="preserve" text-anchor="start" x="571.58" y="-835.8" font-family="Times,serif" font-size="14.00">INTEGER</text>
<polygon fill="none" stroke="black" points="397.55,-807.2 397.55,-830 421.05,-830 421.05,-807.2 397.55,-807.2"/>
<g id="a_node5_3"><a xlink:title="Is a directory or in files_with_children">
<polygon fill="none" stroke="black" points="421.05,-807.2 421.05,-830 568.58,-830 568.58,-807.2 421.05,-807.2"/>
<text xml:space="preserve" text-anchor="start" x="424.05" y="-813" font-family="Times,serif" font-size="14.00">can_have_children 📝</text>
</a>
</g>
<polygon fill="none" stroke="black" points="568.58,-807.2 568.58,-830 640.67,-830 640.67,-807.2 568.58,-807.2"/>
<text xml:space="preserve" text-anchor="start" x="571.58" y="-813" font-family="Times,serif" font-size="14.00">INTEGER</text>
<polygon fill="none" stroke="black" points="397.55,-784.4 397.55,-807.2 421.05,-807.2 421.05,-784.4 397.55,-784.4"/>
<g id="a_node5_4"><a xlink:title="The highest id of a descendant of this resource. As the resources are numbered depth&#45;first, this enables us to identify the children of resource R by checking if child.id is between R.id and R.max_descendant_id, which is very fast. See https://en.wikipedia.org/wiki/Nested_set_model">
<polygon fill="none" stroke="black" points="421.05,-784.4 421.05,-807.2 568.58,-807.2 568.58,-784.4 421.05,-784.4"/>
<text xml:space="preserve" text-anchor="start" x="424.05" y="-790.2" font-family="Times,serif" font-size="14.00">max_descendant_id 📝</text>
</a>
</g>
<polygon fill="none" stroke="black" points="568.58,-784.4 568.58,-807.2 640.67,-807.2 640.67,-784.4 568.58,-784.4"/>
<text xml:space="preserve" text-anchor="start" x="571.58" y="-790.2" font-family="Times,serif" font-size="14.00">INTEGER</text>
<polygon fill="none" stroke="black" points="397.55,-761.6 397.55,-784.4 421.05,-784.4 421.05,-761.6 397.55,-761.6"/>
<text xml:space="preserve" text-anchor="start" x="400.55" y="-767.4" font-family="Times,serif" font-size="14.00">🔧 </text>
<polygon fill="none" stroke="black" points="421.05,-761.6 421.05,-784.4 568.58,-784.4 568.58,-761.6 421.05,-761.6"/>
<text xml:space="preserve" text-anchor="start" x="424.05" y="-767.4" font-family="Times,serif" font-size="14.00">sort_key</text>
<polygon fill="none" stroke="black" points="568.58,-761.6 568.58,-784.4 640.67,-784.4 640.67,-761.6 568.58,-761.6"/>
<text xml:space="preserve" text-anchor="start" x="571.58" y="-767.4" font-family="Times,serif" font-size="14.00">TEXT</text>
</g>
<!-- resource_to_attribution&#45;&gt;resource -->
<g id="edge2" class="edge">
<title>resource_to_attribution:e&#45;&gt;resource:w</title>
<path fill="none" stroke="black" d="M283.99,-839C351.88,-839 327.81,-942.59 385.28,-954.32"/>
<polygon fill="black" stroke="black" points="384.76,-957.79 395.05,-955.26 385.42,-950.82 384.76,-957.79"/>
</g>
<!-- attribution -->
<g id="node6" class="node">
<title>attribution</title>
<g id="a_node6_5"><a xlink:title="External attributions (UI: &#39;signals&#39;) and manual attributions (UI: &#39;attributions&#39;)">
<polygon fill="none" stroke="black" points="370.35,-712.8 370.35,-735.6 667.87,-735.6 667.87,-712.8 370.35,-712.8"/>
<text xml:space="preserve" text-anchor="start" x="477.69" y="-721" font-family="Times,serif" font-weight="bold" font-size="14.00">attribution 📝</text>
</a>
</g>
<polygon fill="none" stroke="black" points="370.35,-690 370.35,-712.8 393.85,-712.8 393.85,-690 370.35,-690"/>
<text xml:space="preserve" text-anchor="start" x="373.35" y="-695.8" font-family="Times,serif" font-size="14.00">🔑 </text>
<polygon fill="none" stroke="black" points="393.85,-690 393.85,-712.8 595.78,-712.8 595.78,-690 393.85,-690"/>
<text xml:space="preserve" text-anchor="start" x="396.85" y="-695.8" font-family="Times,serif" font-size="14.00">uuid</text>
<polygon fill="none" stroke="black" points="595.78,-690 595.78,-712.8 667.87,-712.8 667.87,-690 595.78,-690"/>
<text xml:space="preserve" text-anchor="start" x="598.78" y="-695.8" font-family="Times,serif" font-size="14.00">TEXT</text>
<polygon fill="none" stroke="black" points="370.35,-667.2 370.35,-690 393.85,-690 393.85,-667.2 370.35,-667.2"/>
<g id="a_node6_6"><a xlink:title="All of the attribution as JSON">
<polygon fill="none" stroke="black" points="393.85,-667.2 393.85,-690 595.78,-690 595.78,-667.2 393.85,-667.2"/>
<text xml:space="preserve" text-anchor="start" x="396.85" y="-673" font-family="Times,serif" font-size="14.00">data 📝</text>
</a>
</g>
<polygon fill="none" stroke="black" points="595.78,-667.2 595.78,-690 667.87,-690 667.87,-667.2 595.78,-667.2"/>
<text xml:space="preserve" text-anchor="start" x="598.78" y="-673" font-family="Times,serif" font-size="14.00">TEXT</text>
<polygon fill="none" stroke="black" points="370.35,-644.4 370.35,-667.2 393.85,-667.2 393.85,-644.4 370.35,-644.4"/>
<polygon fill="none" stroke="black" points="393.85,-644.4 393.85,-667.2 595.78,-667.2 595.78,-644.4 393.85,-644.4"/>
<text xml:space="preserve" text-anchor="start" x="396.85" y="-650.2" font-family="Times,serif" font-size="14.00">is_external</text>
<polygon fill="none" stroke="black" points="595.78,-644.4 595.78,-667.2 667.87,-667.2 667.87,-644.4 595.78,-644.4"/>
<text xml:space="preserve" text-anchor="start" x="598.78" y="-650.2" font-family="Times,serif" font-size="14.00">INTEGER</text>
<polygon fill="none" stroke="black" points="370.35,-621.6 370.35,-644.4 393.85,-644.4 393.85,-621.6 370.35,-621.6"/>
<polygon fill="none" stroke="black" points="393.85,-621.6 393.85,-644.4 595.78,-644.4 595.78,-621.6 393.85,-621.6"/>
<text xml:space="preserve" text-anchor="start" x="396.85" y="-627.4" font-family="Times,serif" font-size="14.00">is_resolved</text>
<polygon fill="none" stroke="black" points="595.78,-621.6 595.78,-644.4 667.87,-644.4 667.87,-621.6 595.78,-621.6"/>
<text xml:space="preserve" text-anchor="start" x="598.78" y="-627.4" font-family="Times,serif" font-size="14.00">INTEGER</text>
<polygon fill="none" stroke="black" points="370.35,-598.8 370.35,-621.6 393.85,-621.6 393.85,-598.8 370.35,-598.8"/>
<text xml:space="preserve" text-anchor="start" x="373.35" y="-604.6" font-family="Times,serif" font-size="14.00">🔧 </text>
<polygon fill="none" stroke="black" points="393.85,-598.8 393.85,-621.6 595.78,-621.6 595.78,-598.8 393.85,-598.8"/>
<text xml:space="preserve" text-anchor="start" x="396.85" y="-604.6" font-family="Times,serif" font-size="14.00">pre_selected</text>
<polygon fill="none" stroke="black" points="595.78,-598.8 595.78,-621.6 667.87,-621.6 667.87,-598.8 595.78,-598.8"/>
<text xml:space="preserve" text-anchor="start" x="598.78" y="-604.6" font-family="Times,serif" font-size="14.00">INTEGER</text>
<polygon fill="none" stroke="black" points="370.35,-576 370.35,-598.8 393.85,-598.8 393.85,-576 370.35,-576"/>
<text xml:space="preserve" text-anchor="start" x="373.35" y="-581.8" font-family="Times,serif" font-size="14.00">🔧 </text>
<polygon fill="none" stroke="black" points="393.85,-576 393.85,-598.8 595.78,-598.8 595.78,-576 393.85,-576"/>
<text xml:space="preserve" text-anchor="start" x="396.85" y="-581.8" font-family="Times,serif" font-size="14.00">criticality</text>
<polygon fill="none" stroke="black" points="595.78,-576 595.78,-598.8 667.87,-598.8 667.87,-576 595.78,-576"/>
<text xml:space="preserve" text-anchor="start" x="598.78" y="-581.8" font-family="Times,serif" font-size="14.00">INTEGER?</text>
<polygon fill="none" stroke="black" points="370.35,-553.2 370.35,-576 393.85,-576 393.85,-553.2 370.35,-553.2"/>
<text xml:space="preserve" text-anchor="start" x="373.35" y="-559" font-family="Times,serif" font-size="14.00">🔧 </text>
<polygon fill="none" stroke="black" points="393.85,-553.2 393.85,-576 595.78,-576 595.78,-553.2 393.85,-553.2"/>
<text xml:space="preserve" text-anchor="start" x="396.85" y="-559" font-family="Times,serif" font-size="14.00">classification</text>
<polygon fill="none" stroke="black" points="595.78,-553.2 595.78,-576 667.87,-576 667.87,-553.2 595.78,-553.2"/>
<text xml:space="preserve" text-anchor="start" x="598.78" y="-559" font-family="Times,serif" font-size="14.00">INTEGER?</text>
<polygon fill="none" stroke="black" points="370.35,-530.4 370.35,-553.2 393.85,-553.2 393.85,-530.4 370.35,-530.4"/>
<text xml:space="preserve" text-anchor="start" x="373.35" y="-536.2" font-family="Times,serif" font-size="14.00">🔧 </text>
<polygon fill="none" stroke="black" points="393.85,-530.4 393.85,-553.2 595.78,-553.2 595.78,-530.4 393.85,-530.4"/>
<text xml:space="preserve" text-anchor="start" x="396.85" y="-536.2" font-family="Times,serif" font-size="14.00">first_party</text>
<polygon fill="none" stroke="black" points="595.78,-530.4 595.78,-553.2 667.87,-553.2 667.87,-530.4 595.78,-530.4"/>
<text xml:space="preserve" text-anchor="start" x="598.78" y="-536.2" font-family="Times,serif" font-size="14.00">INTEGER</text>
<polygon fill="none" stroke="black" points="370.35,-507.6 370.35,-530.4 393.85,-530.4 393.85,-507.6 370.35,-507.6"/>
<text xml:space="preserve" text-anchor="start" x="373.35" y="-513.4" font-family="Times,serif" font-size="14.00">🔧 </text>
<polygon fill="none" stroke="black" points="393.85,-507.6 393.85,-530.4 595.78,-530.4 595.78,-507.6 393.85,-507.6"/>
<text xml:space="preserve" text-anchor="start" x="396.85" y="-513.4" font-family="Times,serif" font-size="14.00">exclude_from_notice</text>
<polygon fill="none" stroke="black" points="595.78,-507.6 595.78,-530.4 667.87,-530.4 667.87,-507.6 595.78,-507.6"/>
<text xml:space="preserve" text-anchor="start" x="598.78" y="-513.4" font-family="Times,serif" font-size="14.00">INTEGER</text>
<polygon fill="none" stroke="black" points="370.35,-484.8 370.35,-507.6 393.85,-507.6 393.85,-484.8 370.35,-484.8"/>
<text xml:space="preserve" text-anchor="start" x="373.35" y="-490.6" font-family="Times,serif" font-size="14.00">🔧 </text>
<polygon fill="none" stroke="black" points="393.85,-484.8 393.85,-507.6 595.78,-507.6 595.78,-484.8 393.85,-484.8"/>
<text xml:space="preserve" text-anchor="start" x="396.85" y="-490.6" font-family="Times,serif" font-size="14.00">was_preferred</text>
<polygon fill="none" stroke="black" points="595.78,-484.8 595.78,-507.6 667.87,-507.6 667.87,-484.8 595.78,-484.8"/>
<text xml:space="preserve" text-anchor="start" x="598.78" y="-490.6" font-family="Times,serif" font-size="14.00">INTEGER</text>
<polygon fill="none" stroke="black" points="370.35,-462 370.35,-484.8 393.85,-484.8 393.85,-462 370.35,-462"/>
<text xml:space="preserve" text-anchor="start" x="373.35" y="-467.8" font-family="Times,serif" font-size="14.00">🔧 </text>
<polygon fill="none" stroke="black" points="393.85,-462 393.85,-484.8 595.78,-484.8 595.78,-462 393.85,-462"/>
<text xml:space="preserve" text-anchor="start" x="396.85" y="-467.8" font-family="Times,serif" font-size="14.00">copyright</text>
<polygon fill="none" stroke="black" points="595.78,-462 595.78,-484.8 667.87,-484.8 667.87,-462 595.78,-462"/>
<text xml:space="preserve" text-anchor="start" x="598.78" y="-467.8" font-family="Times,serif" font-size="14.00">TEXT?</text>
<polygon fill="none" stroke="black" points="370.35,-439.2 370.35,-462 393.85,-462 393.85,-439.2 370.35,-439.2"/>
<text xml:space="preserve" text-anchor="start" x="373.35" y="-445" font-family="Times,serif" font-size="14.00">🔧 </text>
<polygon fill="none" stroke="black" points="393.85,-439.2 393.85,-462 595.78,-462 595.78,-439.2 393.85,-439.2"/>
<text xml:space="preserve" text-anchor="start" x="396.85" y="-445" font-family="Times,serif" font-size="14.00">license_name</text>
<polygon fill="none" stroke="black" points="595.78,-439.2 595.78,-462 667.87,-462 667.87,-439.2 595.78,-439.2"/>
<text xml:space="preserve" text-anchor="start" x="598.78" y="-445" font-family="Times,serif" font-size="14.00">TEXT?</text>
<polygon fill="none" stroke="black" points="370.35,-416.4 370.35,-439.2 393.85,-439.2 393.85,-416.4 370.35,-416.4"/>
<text xml:space="preserve" text-anchor="start" x="373.35" y="-422.2" font-family="Times,serif" font-size="14.00">🔧 </text>
<polygon fill="none" stroke="black" points="393.85,-416.4 393.85,-439.2 595.78,-439.2 595.78,-416.4 393.85,-416.4"/>
<text xml:space="preserve" text-anchor="start" x="396.85" y="-422.2" font-family="Times,serif" font-size="14.00">url</text>
<polygon fill="none" stroke="black" points="595.78,-416.4 595.78,-439.2 667.87,-439.2 667.87,-416.4 595.78,-416.4"/>
<text xml:space="preserve" text-anchor="start" x="598.78" y="-422.2" font-family="Times,serif" font-size="14.00">TEXT?</text>
<polygon fill="none" stroke="black" points="370.35,-393.6 370.35,-416.4 393.85,-416.4 393.85,-393.6 370.35,-393.6"/>
<text xml:space="preserve" text-anchor="start" x="373.35" y="-399.4" font-family="Times,serif" font-size="14.00">🔧 </text>
<polygon fill="none" stroke="black" points="393.85,-393.6 393.85,-416.4 595.78,-416.4 595.78,-393.6 393.85,-393.6"/>
<text xml:space="preserve" text-anchor="start" x="396.85" y="-399.4" font-family="Times,serif" font-size="14.00">package_name</text>
<polygon fill="none" stroke="black" points="595.78,-393.6 595.78,-416.4 667.87,-416.4 667.87,-393.6 595.78,-393.6"/>
<text xml:space="preserve" text-anchor="start" x="598.78" y="-399.4" font-family="Times,serif" font-size="14.00">TEXT?</text>
<polygon fill="none" stroke="black" points="370.35,-370.8 370.35,-393.6 393.85,-393.6 393.85,-370.8 370.35,-370.8"/>
<text xml:space="preserve" text-anchor="start" x="373.35" y="-376.6" font-family="Times,serif" font-size="14.00">🔧 </text>
<polygon fill="none" stroke="black" points="393.85,-370.8 393.85,-393.6 595.78,-393.6 595.78,-370.8 393.85,-370.8"/>
<text xml:space="preserve" text-anchor="start" x="396.85" y="-376.6" font-family="Times,serif" font-size="14.00">package_namespace</text>
<polygon fill="none" stroke="black" points="595.78,-370.8 595.78,-393.6 667.87,-393.6 667.87,-370.8 595.78,-370.8"/>
<text xml:space="preserve" text-anchor="start" x="598.78" y="-376.6" font-family="Times,serif" font-size="14.00">TEXT?</text>
<polygon fill="none" stroke="black" points="370.35,-348 370.35,-370.8 393.85,-370.8 393.85,-348 370.35,-348"/>
<text xml:space="preserve" text-anchor="start" x="373.35" y="-353.8" font-family="Times,serif" font-size="14.00">🔧 </text>
<polygon fill="none" stroke="black" points="393.85,-348 393.85,-370.8 595.78,-370.8 595.78,-348 393.85,-348"/>
<text xml:space="preserve" text-anchor="start" x="396.85" y="-353.8" font-family="Times,serif" font-size="14.00">package_version</text>
<polygon fill="none" stroke="black" points="595.78,-348 595.78,-370.8 667.87,-370.8 667.87,-348 595.78,-348"/>
<text xml:space="preserve" text-anchor="start" x="598.78" y="-353.8" font-family="Times,serif" font-size="14.00">TEXT?</text>
<polygon fill="none" stroke="black" points="370.35,-325.2 370.35,-348 393.85,-348 393.85,-325.2 370.35,-325.2"/>
<text xml:space="preserve" text-anchor="start" x="373.35" y="-331" font-family="Times,serif" font-size="14.00">🔧 </text>
<polygon fill="none" stroke="black" points="393.85,-325.2 393.85,-348 595.78,-348 595.78,-325.2 393.85,-325.2"/>
<text xml:space="preserve" text-anchor="start" x="396.85" y="-331" font-family="Times,serif" font-size="14.00">package_type</text>
<polygon fill="none" stroke="black" points="595.78,-325.2 595.78,-348 667.87,-348 667.87,-325.2 595.78,-325.2"/>
<text xml:space="preserve" text-anchor="start" x="598.78" y="-331" font-family="Times,serif" font-size="14.00">TEXT?</text>
<polygon fill="none" stroke="black" points="370.35,-302.4 370.35,-325.2 393.85,-325.2 393.85,-302.4 370.35,-302.4"/>
<text xml:space="preserve" text-anchor="start" x="373.35" y="-308.2" font-family="Times,serif" font-size="14.00">🔧 </text>
<polygon fill="none" stroke="black" points="393.85,-302.4 393.85,-325.2 595.78,-325.2 595.78,-302.4 393.85,-302.4"/>
<text xml:space="preserve" text-anchor="start" x="396.85" y="-308.2" font-family="Times,serif" font-size="14.00">attribution_confidence</text>
<polygon fill="none" stroke="black" points="595.78,-302.4 595.78,-325.2 667.87,-325.2 667.87,-302.4 595.78,-302.4"/>
<text xml:space="preserve" text-anchor="start" x="598.78" y="-308.2" font-family="Times,serif" font-size="14.00">INTEGER?</text>
<polygon fill="none" stroke="black" points="370.35,-279.6 370.35,-302.4 393.85,-302.4 393.85,-279.6 370.35,-279.6"/>
<text xml:space="preserve" text-anchor="start" x="373.35" y="-285.4" font-family="Times,serif" font-size="14.00">🔧 </text>
<polygon fill="none" stroke="black" points="393.85,-279.6 393.85,-302.4 595.78,-302.4 595.78,-279.6 393.85,-279.6"/>
<text xml:space="preserve" text-anchor="start" x="396.85" y="-285.4" font-family="Times,serif" font-size="14.00">follow_up</text>
<polygon fill="none" stroke="black" points="595.78,-279.6 595.78,-302.4 667.87,-302.4 667.87,-279.6 595.78,-279.6"/>
<text xml:space="preserve" text-anchor="start" x="598.78" y="-285.4" font-family="Times,serif" font-size="14.00">INTEGER</text>
<polygon fill="none" stroke="black" points="370.35,-256.8 370.35,-279.6 393.85,-279.6 393.85,-256.8 370.35,-256.8"/>
<text xml:space="preserve" text-anchor="start" x="373.35" y="-262.6" font-family="Times,serif" font-size="14.00">🔧 </text>
<polygon fill="none" stroke="black" points="393.85,-256.8 393.85,-279.6 595.78,-279.6 595.78,-256.8 393.85,-256.8"/>
<text xml:space="preserve" text-anchor="start" x="396.85" y="-262.6" font-family="Times,serif" font-size="14.00">needs_review</text>
<polygon fill="none" stroke="black" points="595.78,-256.8 595.78,-279.6 667.87,-279.6 667.87,-256.8 595.78,-256.8"/>
<text xml:space="preserve" text-anchor="start" x="598.78" y="-262.6" font-family="Times,serif" font-size="14.00">INTEGER</text>
<polygon fill="none" stroke="black" points="370.35,-234 370.35,-256.8 393.85,-256.8 393.85,-234 370.35,-234"/>
<text xml:space="preserve" text-anchor="start" x="373.35" y="-239.8" font-family="Times,serif" font-size="14.00">🔧 </text>
<polygon fill="none" stroke="black" points="393.85,-234 393.85,-256.8 595.78,-256.8 595.78,-234 393.85,-234"/>
<text xml:space="preserve" text-anchor="start" x="396.85" y="-239.8" font-family="Times,serif" font-size="14.00">preferred</text>
<polygon fill="none" stroke="black" points="595.78,-234 595.78,-256.8 667.87,-256.8 667.87,-234 595.78,-234"/>
<text xml:space="preserve" text-anchor="start" x="598.78" y="-239.8" font-family="Times,serif" font-size="14.00">INTEGER</text>
<polygon fill="none" stroke="black" points="370.35,-211.2 370.35,-234 393.85,-234 393.85,-211.2 370.35,-211.2"/>
<text xml:space="preserve" text-anchor="start" x="373.35" y="-217" font-family="Times,serif" font-size="14.00">🔧 </text>
<polygon fill="none" stroke="black" points="393.85,-211.2 393.85,-234 595.78,-234 595.78,-211.2 393.85,-211.2"/>
<text xml:space="preserve" text-anchor="start" x="396.85" y="-217" font-family="Times,serif" font-size="14.00">original_attribution_was_preferred</text>
<polygon fill="none" stroke="black" points="595.78,-211.2 595.78,-234 667.87,-234 667.87,-211.2 595.78,-211.2"/>
<text xml:space="preserve" text-anchor="start" x="598.78" y="-217" font-family="Times,serif" font-size="14.00">INTEGER</text>
<polygon fill="none" stroke="black" points="370.35,-188.4 370.35,-211.2 393.85,-211.2 393.85,-188.4 370.35,-188.4"/>
<text xml:space="preserve" text-anchor="start" x="373.35" y="-194.2" font-family="Times,serif" font-size="14.00">🔧 </text>
<polygon fill="none" stroke="black" points="393.85,-188.4 393.85,-211.2 595.78,-211.2 595.78,-188.4 393.85,-188.4"/>
<text xml:space="preserve" text-anchor="start" x="396.85" y="-194.2" font-family="Times,serif" font-size="14.00">comment</text>
<polygon fill="none" stroke="black" points="595.78,-188.4 595.78,-211.2 667.87,-211.2 667.87,-188.4 595.78,-188.4"/>
<text xml:space="preserve" text-anchor="start" x="598.78" y="-194.2" font-family="Times,serif" font-size="14.00">TEXT?</text>
<polygon fill="none" stroke="black" points="370.35,-165.6 370.35,-188.4 393.85,-188.4 393.85,-165.6 370.35,-165.6"/>
<text xml:space="preserve" text-anchor="start" x="373.35" y="-171.4" font-family="Times,serif" font-size="14.00">🔧 </text>
<polygon fill="none" stroke="black" points="393.85,-165.6 393.85,-188.4 595.78,-188.4 595.78,-165.6 393.85,-165.6"/>
<text xml:space="preserve" text-anchor="start" x="396.85" y="-171.4" font-family="Times,serif" font-size="14.00">canonical_license_name</text>
<polygon fill="none" stroke="black" points="595.78,-165.6 595.78,-188.4 667.87,-188.4 667.87,-165.6 595.78,-165.6"/>
<text xml:space="preserve" text-anchor="start" x="598.78" y="-171.4" font-family="Times,serif" font-size="14.00">TEXT?</text>
</g>
<!-- resource_to_attribution&#45;&gt;attribution -->
<g id="edge1" class="edge">
<title>resource_to_attribution:e&#45;&gt;attribution:w</title>
<path fill="none" stroke="black" d="M283.99,-816.2C343.35,-816.2 310.86,-716.14 358.02,-702.85"/>
<polygon fill="black" stroke="black" points="358.38,-706.33 367.85,-701.59 357.49,-699.39 358.38,-706.33"/>
</g>
<!-- source_for_attribution -->
<g id="node3" class="node">
<title>source_for_attribution</title>
<polygon fill="none" stroke="black" points="8,-425.8 8,-448.6 318.35,-448.6 318.35,-425.8 8,-425.8"/>
<text xml:space="preserve" text-anchor="start" x="95.13" y="-434" font-family="Times,serif" font-weight="bold" font-size="14.00">source_for_attribution</text>
<polygon fill="none" stroke="black" points="8,-403 8,-425.8 31.5,-425.8 31.5,-403 8,-403"/>
<text xml:space="preserve" text-anchor="start" x="11" y="-408.8" font-family="Times,serif" font-size="14.00">🔑 </text>
<polygon fill="none" stroke="black" points="31.5,-403 31.5,-425.8 246.26,-425.8 246.26,-403 31.5,-403"/>
<text xml:space="preserve" text-anchor="start" x="34.5" y="-408.8" font-family="Times,serif" font-size="14.00">attribution_uuid</text>
<polygon fill="none" stroke="black" points="246.26,-403 246.26,-425.8 318.35,-425.8 318.35,-403 246.26,-403"/>
<text xml:space="preserve" text-anchor="start" x="249.26" y="-408.8" font-family="Times,serif" font-size="14.00">TEXT</text>
<polygon fill="none" stroke="black" points="8,-380.2 8,-403 31.5,-403 31.5,-380.2 8,-380.2"/>
<g id="a_node3_7"><a xlink:title="Mainly contains names of external_attribution_source, but can also contain unknown names">
<polygon fill="none" stroke="black" points="31.5,-380.2 31.5,-403 246.26,-403 246.26,-380.2 31.5,-380.2"/>
<text xml:space="preserve" text-anchor="start" x="34.5" y="-386" font-family="Times,serif" font-size="14.00">external_attribution_source_name 📝</text>
</a>
</g>
<polygon fill="none" stroke="black" points="246.26,-380.2 246.26,-403 318.35,-403 318.35,-380.2 246.26,-380.2"/>
<text xml:space="preserve" text-anchor="start" x="249.26" y="-386" font-family="Times,serif" font-size="14.00">TEXT</text>
<polygon fill="none" stroke="black" points="8,-357.4 8,-380.2 31.5,-380.2 31.5,-357.4 8,-357.4"/>
<polygon fill="none" stroke="black" points="31.5,-357.4 31.5,-380.2 246.26,-380.2 246.26,-357.4 31.5,-357.4"/>
<text xml:space="preserve" text-anchor="start" x="34.5" y="-363.2" font-family="Times,serif" font-size="14.00">document_confidence</text>
<polygon fill="none" stroke="black" points="246.26,-357.4 246.26,-380.2 318.35,-380.2 318.35,-357.4 246.26,-357.4"/>
<text xml:space="preserve" text-anchor="start" x="249.26" y="-363.2" font-family="Times,serif" font-size="14.00">INTEGER?</text>
<polygon fill="none" stroke="black" points="8,-334.6 8,-357.4 31.5,-357.4 31.5,-334.6 8,-334.6"/>
<polygon fill="none" stroke="black" points="31.5,-334.6 31.5,-357.4 246.26,-357.4 246.26,-334.6 31.5,-334.6"/>
<text xml:space="preserve" text-anchor="start" x="34.5" y="-340.4" font-family="Times,serif" font-size="14.00">additional_name</text>
<polygon fill="none" stroke="black" points="246.26,-334.6 246.26,-357.4 318.35,-357.4 318.35,-334.6 246.26,-334.6"/>
<text xml:space="preserve" text-anchor="start" x="249.26" y="-340.4" font-family="Times,serif" font-size="14.00">TEXT?</text>
</g>
<!-- external_attribution_source -->
<g id="node4" class="node">
<title>external_attribution_source</title>
<polygon fill="none" stroke="black" points="399.91,-116.4 399.91,-139.2 638.32,-139.2 638.32,-116.4 399.91,-116.4"/>
<text xml:space="preserve" text-anchor="start" x="435.52" y="-124.6" font-family="Times,serif" font-weight="bold" font-size="14.00">external_attribution_source</text>
<polygon fill="none" stroke="black" points="399.91,-93.6 399.91,-116.4 423.41,-116.4 423.41,-93.6 399.91,-93.6"/>
<text xml:space="preserve" text-anchor="start" x="402.91" y="-99.4" font-family="Times,serif" font-size="14.00">🔑 </text>
<polygon fill="none" stroke="black" points="423.41,-93.6 423.41,-116.4 572.44,-116.4 572.44,-93.6 423.41,-93.6"/>
<text xml:space="preserve" text-anchor="start" x="426.41" y="-99.4" font-family="Times,serif" font-size="14.00">name</text>
<polygon fill="none" stroke="black" points="572.44,-93.6 572.44,-116.4 638.32,-116.4 638.32,-93.6 572.44,-93.6"/>
<text xml:space="preserve" text-anchor="start" x="575.44" y="-99.4" font-family="Times,serif" font-size="14.00">TEXT</text>
<polygon fill="none" stroke="black" points="399.91,-70.8 399.91,-93.6 423.41,-93.6 423.41,-70.8 399.91,-70.8"/>
<polygon fill="none" stroke="black" points="423.41,-70.8 423.41,-93.6 572.44,-93.6 572.44,-70.8 423.41,-70.8"/>
<text xml:space="preserve" text-anchor="start" x="426.41" y="-76.6" font-family="Times,serif" font-size="14.00">priority</text>
<polygon fill="none" stroke="black" points="572.44,-70.8 572.44,-93.6 638.32,-93.6 638.32,-70.8 572.44,-70.8"/>
<text xml:space="preserve" text-anchor="start" x="575.44" y="-76.6" font-family="Times,serif" font-size="14.00">INTEGER</text>
<polygon fill="none" stroke="black" points="399.91,-48 399.91,-70.8 423.41,-70.8 423.41,-48 399.91,-48"/>
<polygon fill="none" stroke="black" points="423.41,-48 423.41,-70.8 572.44,-70.8 572.44,-48 423.41,-48"/>
<text xml:space="preserve" text-anchor="start" x="426.41" y="-53.8" font-family="Times,serif" font-size="14.00">is_relevant_for_preferred</text>
<polygon fill="none" stroke="black" points="572.44,-48 572.44,-70.8 638.32,-70.8 638.32,-48 572.44,-48"/>
<text xml:space="preserve" text-anchor="start" x="575.44" y="-53.8" font-family="Times,serif" font-size="14.00">INTEGER</text>
</g>
<!-- source_for_attribution&#45;&gt;external_attribution_source -->
<g id="edge5" class="edge">
<title>source_for_attribution:e&#45;&gt;external_attribution_source:w</title>
<path fill="none" stroke="black" stroke-dasharray="5,2" d="M319.35,-391.6C373.32,-391.6 340.52,-201.95 362.35,-152.6 371.37,-132.21 372.22,-112.65 387.83,-106.78"/>
<polygon fill="black" stroke="black" points="388.09,-110.28 397.41,-105.24 386.99,-103.37 388.09,-110.28"/>
</g>
<!-- source_for_attribution&#45;&gt;attribution -->
<g id="edge3" class="edge">
<title>source_for_attribution:e&#45;&gt;attribution:w</title>
<path fill="none" stroke="black" d="M319.35,-414.4C444.78,-414.4 252.6,-683.74 358.18,-700.58"/>
<polygon fill="black" stroke="black" points="357.61,-704.04 367.84,-701.29 358.13,-697.06 357.61,-704.04"/>
</g>
<!-- resource&#45;&gt;resource -->
<g id="edge4" class="edge">
<title>resource:e&#45;&gt;resource:w</title>
<path fill="none" stroke="black" d="M640.67,-887C729.66,-932.33 729.66,-1011.6 519.11,-1011.6 316.79,-1011.6 308.89,-1000.52 387.54,-960.43"/>
<polygon fill="black" stroke="black" points="388.84,-963.7 396.2,-956.08 385.69,-957.44 388.84,-963.7"/>
</g>
</g>
</svg>
